<?xml version="1.0" standalone="no"?>
<!DOCTYPE svg PUBLIC "-//W3C//DTD SVG 1.1//EN" "http://www.w3.org/Graphics/SVG/1.1/DTD/svg11.dtd" >
<svg xmlns="http://www.w3.org/2000/svg" xmlns:xlink="http://www.w3.org/1999/xlink" version="1.1">
<metadata></metadata>
<defs>
<font id="supermolotlight" horiz-adv-x="1208" >
<font-face units-per-em="2048" ascent="1653" descent="-395" />
<missing-glyph horiz-adv-x="593" />
<glyph horiz-adv-x="0" />
<glyph horiz-adv-x="682" />
<glyph unicode=" "  horiz-adv-x="593" />
<glyph unicode="&#x09;" horiz-adv-x="593" />
<glyph unicode="&#xa0;" horiz-adv-x="593" />
<glyph unicode="!" horiz-adv-x="532" d="M184 1065v369h164v-369l-31 -655h-102zM195 0v215h143v-215h-143z" />
<glyph unicode="&#x22;" horiz-adv-x="727" d="M133 1229v205h133v-205l-30 -246h-72zM461 1229v205h133v-205l-31 -246h-71z" />
<glyph unicode="#" horiz-adv-x="1423" d="M61 369v112h246l82 471h-246v113h267l61 369h143l-61 -369h440l62 369h143l-61 -369h225v-113h-246l-82 -471h246v-112h-266l-62 -369h-143l61 369h-440l-61 -369h-144l62 369h-226zM451 481h440l82 471h-441z" />
<glyph unicode="$" d="M113 0v113h645q86 0 140 54t54 140v133q0 67 -41 111.5t-112 62.5l-430 103q-256 61 -256 297v112q0 141 89.5 224.5t248.5 83.5h81v184h144v-184h358v-72l-41 -41h-542q-86 0 -140.5 -54.5t-54.5 -140.5v-112q0 -67 41.5 -111.5t112.5 -62.5l430 -103q256 -61 256 -297 v-133q0 -141 -89.5 -224t-248.5 -83h-82v-184h-144v184h-419z" />
<glyph unicode="%" horiz-adv-x="1689" d="M82 963v286q0 95 60.5 150t174.5 55h154q114 0 175 -55t61 -150v-286q0 -95 -61 -150t-175 -55h-154q-114 0 -174.5 55t-60.5 150zM215 963q0 -47 27.5 -75t74.5 -28h154q47 0 74.5 28t27.5 75v286q0 47 -27.5 75t-74.5 28h-154q-47 0 -74.5 -28t-27.5 -75v-286zM348 0 v61l871 1373h122v-62l-870 -1372h-123zM983 184v287q0 95 61 150t175 55h153q114 0 175 -55t61 -150v-287q0 -94 -60.5 -149t-175.5 -55h-153q-115 0 -175.5 55t-60.5 149zM1116 184q0 -47 28 -74.5t75 -27.5h153q47 0 75 27.5t28 74.5v287q0 47 -28 74.5t-75 27.5h-153 q-47 0 -75 -27.5t-28 -74.5v-287z" />
<glyph unicode="&#x26;" horiz-adv-x="1351" d="M102 287v184q0 165 154 244q66 34 154 43v10q-47 44 -72 82q-72 94 -72 205v71q0 141 89.5 224.5t248.5 83.5h481v-72l-41 -41h-440q-86 0 -140 -54.5t-54 -140.5v-71q0 -83 96 -191q38 -45 98 -96l727 -707v-61h-133l-164 164q-21 -52 -61 -92q-92 -92 -246 -92h-287 q-159 0 -248.5 83t-89.5 224zM246 287q0 -86 54 -140.5t140 -54.5h287q108 0 172 76q29 37 43 78l-440 430q-127 0 -191.5 -55t-64.5 -150v-184z" />
<glyph unicode="'" horiz-adv-x="399" d="M133 1229v205h133v-205l-30 -246h-72z" />
<glyph unicode="(" horiz-adv-x="696" d="M195 -61v1331q0 141 89 224t248 83h82v-113h-82q-86 0 -140 -54t-54 -140v-1331q0 -86 54 -140.5t140 -54.5h82v-113h-82q-159 0 -248 83.5t-89 224.5z" />
<glyph unicode=")" horiz-adv-x="696" d="M82 -256h82q86 0 140 54.5t54 140.5v1331q0 86 -54 140t-140 54h-82v113h82q159 0 248.5 -83t89.5 -224v-1331q0 -141 -89.5 -224.5t-248.5 -83.5h-82v113z" />
<glyph unicode="*" horiz-adv-x="839" d="M82 1126l20 82l256 -61l21 287h82l20 -287l256 61l21 -82l-244 -92l152 -225l-72 -51l-174 205l-174 -205l-72 51l152 225z" />
<glyph unicode="+" horiz-adv-x="1085" d="M82 604v113h399v409h123v-409h400v-113h-400v-409h-123v409h-399z" />
<glyph unicode="," horiz-adv-x="409" d="M133 215h143v-143l-71 -287h-72v430z" />
<glyph unicode="-" horiz-adv-x="993" d="M82 604v113h829v-113h-829z" />
<glyph unicode="." horiz-adv-x="409" d="M133 0v215h143v-215h-143z" />
<glyph unicode="/" horiz-adv-x="942" d="M41 -41l737 1577h123v-61l-737 -1577h-123v61z" />
<glyph unicode="0" horiz-adv-x="1310" d="M164 287v860q0 141 89.5 224t248.5 83h307q159 0 248.5 -83t89.5 -224v-860q0 -141 -89.5 -224t-248.5 -83h-307q-159 0 -248.5 83t-89.5 224zM307 287q0 -86 54.5 -140.5t140.5 -54.5h307q86 0 140.5 54.5t54.5 140.5v860q0 86 -54.5 140t-140.5 54h-307 q-86 0 -140.5 -54t-54.5 -140v-860z" />
<glyph unicode="1" horiz-adv-x="675" d="M41 1311v61l317 62h113v-1434h-143v1311h-287z" />
<glyph unicode="2" horiz-adv-x="1105" d="M51 0v113l676 686q40 43 61 75q62 94 62 160v92q0 86 -54.5 140.5t-140.5 54.5h-522l-41 41v72h563q159 0 248.5 -83.5t89.5 -224.5v-92q0 -103 -82 -221q-42 -58 -82 -96l-593 -594v-10h757v-113h-942z" />
<glyph unicode="3" horiz-adv-x="1116" d="M51 1362v72h912v-103l-512 -512v-10h215q159 0 248.5 -83t89.5 -224v-195q0 -141 -89.5 -224t-248.5 -83h-605v113h605q86 0 140 54t54 140v195q0 86 -54 140t-140 54h-400v92l522 523v10h-696z" />
<glyph unicode="4" horiz-adv-x="1198" d="M31 338v102l717 994h194v-983h225v-113h-225v-338h-143v338h-768zM195 451h604v819h-11q-272 -368 -593 -809v-10z" />
<glyph unicode="5" horiz-adv-x="1177" d="M154 0v113h573q86 0 140.5 54t54.5 140v225q0 86 -54.5 140.5t-140.5 54.5h-573v707h850v-72l-41 -41h-666v-481h430q159 0 248.5 -83.5t89.5 -224.5v-225q0 -141 -89.5 -224t-248.5 -83h-573z" />
<glyph unicode="6" horiz-adv-x="1228" d="M164 287v839q0 141 89.5 224.5t248.5 83.5h542v-72l-40 -41h-502q-87 0 -141 -54t-54 -141v-266h471q159 0 248.5 -83t89.5 -224v-266q0 -141 -89.5 -224t-248.5 -83h-276q-159 0 -248.5 83t-89.5 224zM307 287q0 -86 54.5 -140.5t140.5 -54.5h276q86 0 140.5 54.5 t54.5 140.5v266q0 86 -54.5 140.5t-140.5 54.5h-471v-461z" />
<glyph unicode="7" horiz-adv-x="993" d="M20 1321v113h953v-103l-563 -1331h-134v72l533 1239v10h-789z" />
<glyph unicode="8" horiz-adv-x="1280" d="M133 287v215q0 132 113 209q45 31 112 47v10q-51 15 -92 45q-92 69 -92 191v143q0 141 89.5 224t248.5 83h256q159 0 248.5 -83t89.5 -224v-143q0 -122 -92 -191q-41 -30 -92 -45v-10q64 -16 112 -47q113 -80 113 -209v-215q0 -141 -89.5 -224t-248.5 -83h-338 q-159 0 -248.5 83t-89.5 224zM276 287q0 -86 54.5 -140.5t140.5 -54.5h338q86 0 140.5 54.5t54.5 140.5v215q0 86 -54.5 140t-140.5 54h-338q-86 0 -140.5 -53.5t-54.5 -138.5v-217zM317 1004q0 -86 54.5 -140.5t140.5 -54.5h256q86 0 140.5 54.5t54.5 140.5v143 q0 86 -54.5 140t-140.5 54h-256q-86 0 -140.5 -54t-54.5 -140v-143z" />
<glyph unicode="9" horiz-adv-x="1228" d="M113 881v266q0 141 89.5 224t248.5 83h276q159 0 248.5 -83t89.5 -224v-840q0 -141 -89.5 -224t-248.5 -83h-563v113h563q87 0 141 53.5t54 140.5v266h-471q-159 0 -248.5 83.5t-89.5 224.5zM256 881q0 -86 54.5 -140.5t140.5 -54.5h471v461q0 86 -54.5 140t-140.5 54 h-276q-86 0 -140.5 -54t-54.5 -140v-266z" />
<glyph unicode=":" horiz-adv-x="409" d="M133 0v215h143v-215h-143zM133 870v215h143v-215h-143z" />
<glyph unicode=";" horiz-adv-x="409" d="M133 215h143v-143l-71 -287h-72v430zM133 870v215h143v-215h-143z" />
<glyph unicode="&#x3c;" horiz-adv-x="1024" d="M102 481v133l820 482v-154l-676 -389v-10l676 -389v-154z" />
<glyph unicode="=" horiz-adv-x="1034" d="M82 399v113h870v-113h-870zM82 819v113h870v-113h-870z" />
<glyph unicode="&#x3e;" horiz-adv-x="1024" d="M102 0v154l676 389v10l-676 389v154l820 -482v-133z" />
<glyph unicode="?" horiz-adv-x="1013" d="M20 1362v72h564q159 0 248.5 -83.5t89.5 -224.5v-143q0 -86 -39 -139.5t-115 -95.5l-205 -113q-92 -56 -92 -143v-82h-143v82q0 86 38.5 139.5t114.5 95.5l205 113q92 56 92 143v143q0 86 -54 140.5t-140 54.5h-523zM328 0v215h143v-215h-143z" />
<glyph unicode="@" horiz-adv-x="1761" d="M164 266v901q0 141 89.5 224.5t248.5 83.5h747q159 0 248.5 -83.5t89.5 -224.5v-778h-92l-20 143h-11q-16 -40 -53 -81q-78 -82 -192 -82h-215q-145 0 -226.5 75.5t-81.5 200.5v82q0 125 81.5 201t226.5 76h440v163q0 86 -54.5 140.5t-140.5 54.5h-747 q-86 0 -140.5 -54.5t-54.5 -140.5v-901q0 -86 54.5 -140t140.5 -54h1065v-113h-1065q-159 0 -248.5 83t-89.5 224zM840 645q0 -69 47.5 -116.5t116.5 -47.5h215q97 0 174 97q31 45 51 98v215h-440q-69 0 -116.5 -47.5t-47.5 -116.5v-82z" />
<glyph unicode="A" horiz-adv-x="1280" d="M51 0v72l492 1362h194l492 -1362v-72h-133l-133 379h-646l-133 -379h-133zM348 492h584l-287 798h-10z" />
<glyph unicode="B" horiz-adv-x="1331" d="M195 0v1434h614q159 0 248.5 -83.5t89.5 -224.5v-133q0 -120 -82 -190q-39 -31 -82 -45v-10q64 -15 113 -48q112 -79 112 -208v-185q0 -141 -89.5 -224t-248.5 -83h-675zM338 113h532q86 0 140.5 54t54.5 140v185q0 86 -54.5 140t-140.5 54h-532v-573zM338 799h471 q86 0 140.5 54t54.5 140v133q0 86 -54.5 140.5t-140.5 54.5h-471v-522z" />
<glyph unicode="C" horiz-adv-x="1167" d="M164 307v819q0 141 89.5 224.5t248.5 83.5h594v-72l-41 -41h-553q-86 0 -140.5 -54.5t-54.5 -140.5v-819q0 -86 54.5 -140t140.5 -54h594v-113h-594q-159 0 -248.5 83t-89.5 224z" />
<glyph unicode="D" horiz-adv-x="1361" d="M195 0v1434h665q159 0 248.5 -83.5t89.5 -224.5v-819q0 -141 -89.5 -224t-248.5 -83h-665zM338 113h522q86 0 140.5 54t54.5 140v819q0 86 -54.5 140.5t-140.5 54.5h-522v-1208z" />
<glyph unicode="E" horiz-adv-x="1187" d="M195 0v1434h921v-72l-41 -41h-737v-533h604v-112h-604v-563h778v-113h-921z" />
<glyph unicode="F" horiz-adv-x="1136" d="M195 0v1434h921v-72l-41 -41h-737v-584h604v-112h-604v-625h-143z" />
<glyph unicode="G" horiz-adv-x="1341" d="M164 307v819q0 141 89.5 224.5t248.5 83.5h604v-72l-41 -41h-563q-86 0 -140.5 -54.5t-54.5 -140.5v-819q0 -86 54.5 -140t140.5 -54h522v563h-348v112h491v-788h-665q-159 0 -248.5 83t-89.5 224z" />
<glyph unicode="H" horiz-adv-x="1392" d="M195 0v1434h143v-656h717v656h143v-1434h-143v666h-717v-666h-143z" />
<glyph unicode="I" horiz-adv-x="532" d="M195 0v1434h143v-1434h-143z" />
<glyph unicode="J" horiz-adv-x="1054" d="M20 -20v112h502q86 0 140.5 54.5t54.5 140.5v1147h143v-1147q0 -141 -89.5 -224t-248.5 -83h-502z" />
<glyph unicode="K" horiz-adv-x="1290" d="M195 0v1434h143v-656h348l348 656h133v-72l-358 -635l410 -655v-72h-134l-399 666h-348v-666h-143z" />
<glyph unicode="L" horiz-adv-x="1116" d="M195 0v1434h143v-1321h758v-113h-901z" />
<glyph unicode="M" horiz-adv-x="1976" d="M143 0v72l185 1362h204l451 -1106h10l451 1106h205l184 -1362v-72h-133l-164 1280h-10l-441 -1106h-194l-440 1106h-11l-164 -1280h-133z" />
<glyph unicode="N" horiz-adv-x="1392" d="M195 0v1434h174l696 -1239h10l-20 297v942h143v-1434h-174l-696 1239h-11l21 -297v-942h-143z" />
<glyph unicode="O" horiz-adv-x="1372" d="M164 287v860q0 141 89.5 224t248.5 83h368q159 0 248.5 -83t89.5 -224v-860q0 -141 -89.5 -224t-248.5 -83h-368q-159 0 -248.5 83t-89.5 224zM307 287q0 -86 54.5 -140.5t140.5 -54.5h368q86 0 140.5 54.5t54.5 140.5v860q0 86 -54.5 140t-140.5 54h-368 q-86 0 -140.5 -54t-54.5 -140v-860z" />
<glyph unicode="P" horiz-adv-x="1290" d="M195 0v1434h634q159 0 248.5 -83.5t89.5 -224.5v-327q0 -141 -89.5 -224t-248.5 -83h-491v-492h-143zM338 604h491q86 0 140.5 54.5t54.5 140.5v327q0 86 -54.5 140.5t-140.5 54.5h-491v-717z" />
<glyph unicode="Q" horiz-adv-x="1372" d="M164 287v860q0 141 89.5 224t248.5 83h368q159 0 248.5 -83t89.5 -224v-860q0 -141 -89.5 -224t-248.5 -83h-112l143 -185v-71h-133l-145 256h-121q-159 0 -248.5 83t-89.5 224zM307 287q0 -86 54.5 -140.5t140.5 -54.5h368q86 0 140.5 54.5t54.5 140.5v860 q0 86 -54.5 140t-140.5 54h-368q-86 0 -140.5 -54t-54.5 -140v-860z" />
<glyph unicode="R" horiz-adv-x="1331" d="M195 0v1434h634q159 0 248.5 -83.5t89.5 -224.5v-245q0 -175 -143 -252q-68 -37 -143 -45q40 -58 109 -163t127 -190t112 -159v-72h-133l-369 573h-389v-573h-143zM338 686h491q86 0 140.5 54.5t54.5 140.5v245q0 86 -54.5 140.5t-140.5 54.5h-491v-635z" />
<glyph unicode="S" d="M113 0v113h645q86 0 140 54t54 140v133q0 67 -41 111.5t-112 62.5l-430 103q-256 61 -256 297v112q0 141 89.5 224.5t248.5 83.5h583v-72l-41 -41h-542q-86 0 -140.5 -54.5t-54.5 -140.5v-112q0 -67 41.5 -111.5t112.5 -62.5l430 -103q256 -61 256 -297v-133 q0 -141 -89.5 -224t-248.5 -83h-645z" />
<glyph unicode="T" horiz-adv-x="1126" d="M41 1321v113h1044v-72l-41 -41h-409v-1321h-143v1321h-451z" />
<glyph unicode="U" horiz-adv-x="1413" d="M195 287v1147h143v-1147q0 -86 54 -140.5t140 -54.5h349q86 0 140 54.5t54 140.5v1147h144v-1147q0 -141 -89.5 -224t-248.5 -83h-349q-159 0 -248 83t-89 224z" />
<glyph unicode="V" horiz-adv-x="1259" d="M61 1362v72h134l430 -1291h10l430 1291h133v-72l-471 -1362h-195z" />
<glyph unicode="W" horiz-adv-x="1894" d="M82 1362v72h133l277 -1291h10q62 186 178 543.5t170 521.5h194q53 -160 169.5 -518.5t179.5 -546.5h10l276 1291h133v-72l-307 -1362h-194l-359 1065h-10l-358 -1065h-195z" />
<glyph unicode="X" horiz-adv-x="1218" d="M61 0v72l451 645l-420 645v72h133l379 -615h10l379 615h133v-72l-419 -645l450 -645v-72h-133l-410 625h-10l-409 -625h-134z" />
<glyph unicode="Y" horiz-adv-x="1187" d="M41 1362v72h133l414 -809h12l414 809h133v-72l-481 -911v-451h-144v451z" />
<glyph unicode="Z" horiz-adv-x="1126" d="M61 0v102l799 1209v10h-758l-41 41v72h983v-103l-798 -1208v-10h819v-113h-1004z" />
<glyph unicode="[" horiz-adv-x="696" d="M195 -369v1946h419v-113h-276v-1720h276v-113h-419z" />
<glyph unicode="\" horiz-adv-x="942" d="M41 1475v61h123l737 -1577v-61h-123z" />
<glyph unicode="]" horiz-adv-x="696" d="M82 -256h276v1720h-276v113h420v-1946h-420v113z" />
<glyph unicode="^" horiz-adv-x="911" d="M41 942l348 492h133l348 -492h-153l-256 369h-10l-256 -369h-154z" />
<glyph unicode="_" horiz-adv-x="993" d="M61 -143h871v-113h-871v113z" />
<glyph unicode="`" horiz-adv-x="522" d="M82 1434h174l184 -328h-123z" />
<glyph unicode="a" horiz-adv-x="1167" d="M113 256v82q0 125 81 200.5t226 75.5h440v195q0 69 -47.5 116.5t-116.5 47.5h-481v112h481q145 0 226.5 -75.5t81.5 -200.5v-809h-93l-20 143h-10q-16 -40 -54 -82q-77 -81 -192 -81h-215q-145 0 -226 75.5t-81 200.5zM256 256q0 -69 47.5 -116.5t116.5 -47.5h215 q98 0 174 96q30 44 51 99v215h-440q-69 0 -116.5 -47.5t-47.5 -116.5v-82z" />
<glyph unicode="b" d="M174 0v1434h143v-349h441q145 0 226 -75.5t81 -200.5v-533q0 -125 -81 -200.5t-226 -75.5h-584zM317 113h441q69 0 116.5 47t47.5 116v533q0 69 -47.5 116.5t-116.5 47.5h-441v-860z" />
<glyph unicode="c" horiz-adv-x="1034" d="M143 276v533q0 125 81.5 200.5t226.5 75.5h512v-71l-41 -41h-471q-69 0 -116.5 -47.5t-47.5 -116.5v-533q0 -69 47.5 -116t116.5 -47h512v-113h-512q-145 0 -226.5 75.5t-81.5 200.5z" />
<glyph unicode="d" d="M143 256v553q0 125 81.5 200.5t226.5 75.5h440v349h143v-1434h-92l-20 143h-11q-16 -42 -53 -82q-77 -81 -192 -81h-215q-145 0 -226.5 75.5t-81.5 200.5zM287 256q0 -69 47.5 -116.5t116.5 -47.5h215q98 0 174 96q30 44 51 99v686h-440q-69 0 -116.5 -47.5t-47.5 -116.5 v-553z" />
<glyph unicode="e" horiz-adv-x="1157" d="M143 276v553q0 125 81.5 201t226.5 76h256q145 0 226 -75.5t81 -201.5v-348h-727v-205q0 -69 47.5 -116t116.5 -47h522v-113h-522q-145 0 -226.5 75.5t-81.5 200.5zM287 594h583v235q0 69 -47 116.5t-116 47.5h-256q-69 0 -116.5 -47.5t-47.5 -116.5v-235z" />
<glyph unicode="f" horiz-adv-x="819" d="M164 0v1178q0 125 81 200.5t226 75.5h389v-72l-41 -41h-348q-69 0 -116.5 -47t-47.5 -116v-256h420v-113h-420v-809h-143z" />
<glyph unicode="g" horiz-adv-x="1177" d="M72 -20q0 108 82 178q43 34 82 47v10q-19 7 -31 18q-31 27 -31 74v51q0 53 41 82q14 10 41 21v10q-28 12 -57 45q-56 60 -56 170v143q0 125 81.5 201t226.5 76h297l102 164h133v-62l-113 -112v-11q46 -21 82 -57q82 -82 82 -199v-143q0 -125 -81 -200.5t-226 -75.5h-379 q-51 0 -51 -52v-51q0 -51 51 -51h451q145 0 226 -75.5t81 -200.5v-52q0 -125 -81 -200.5t-226 -75.5h-420q-145 0 -226 75.5t-81 200.5v52zM215 -20v-52q0 -69 47.5 -116.5t116.5 -47.5h420q69 0 116.5 47.5t47.5 116.5v52q0 69 -47.5 116t-116.5 47h-420q-69 0 -116.5 -47 t-47.5 -116zM287 686q0 -69 47.5 -116.5t116.5 -47.5h276q69 0 116.5 47.5t47.5 116.5v143q0 69 -47.5 116.5t-116.5 47.5h-276q-69 0 -116.5 -47.5t-47.5 -116.5v-143z" />
<glyph unicode="h" horiz-adv-x="1228" d="M174 0v1434h143v-349h441q145 0 226 -75.5t81 -200.5v-809h-143v809q0 69 -47.5 116.5t-116.5 47.5h-441v-973h-143z" />
<glyph unicode="i" horiz-adv-x="471" d="M164 0v1085h143v-1085h-143zM164 1249v205h143v-205h-143z" />
<glyph unicode="j" horiz-adv-x="512" d="M-154 -236h195q69 0 116.5 47.5t47.5 116.5v1157h143v-1157q0 -125 -81 -200.5t-226 -75.5h-195v112zM205 1249v205h143v-205h-143z" />
<glyph unicode="k" horiz-adv-x="1136" d="M174 0v1434h143v-820h308l276 471h133v-71l-297 -451l328 -491v-72h-133l-307 502h-308v-502h-143z" />
<glyph unicode="l" horiz-adv-x="593" d="M174 256v1178h143v-1178q0 -69 47.5 -116.5t116.5 -47.5h51v-112h-51q-145 0 -226 75.5t-81 200.5z" />
<glyph unicode="m" horiz-adv-x="1822" d="M164 0v1085h92l20 -143h11q16 42 53 82q78 82 192 82h144q102 0 182 -72q34 -34 53 -71h11q16 36 51 71q72 72 174 72h205q145 0 226 -75.5t81 -201.5v-829h-143v829q0 69 -47.5 116.5t-116.5 47.5h-205q-69 0 -116.5 -47.5t-47.5 -116.5v-829h-143v829q0 69 -47.5 116.5 t-116.5 47.5h-144q-104 0 -174 -98q-32 -40 -51 -96v-799h-143z" />
<glyph unicode="n" horiz-adv-x="1228" d="M164 0v1085h92l20 -143h11q16 42 53 82q78 82 192 82h226q145 0 226 -75.5t81 -201.5v-829h-143v829q0 69 -47.5 116.5t-116.5 47.5h-226q-104 0 -174 -98q-32 -40 -51 -96v-799h-143z" />
<glyph unicode="o" d="M143 256v573q0 125 81.5 201t226.5 76h307q145 0 226 -75.5t81 -201.5v-573q0 -125 -81 -200.5t-226 -75.5h-307q-145 0 -226.5 75.5t-81.5 200.5zM287 256q0 -69 47.5 -116.5t116.5 -47.5h307q69 0 116.5 47.5t47.5 116.5v573q0 69 -47.5 116.5t-116.5 47.5h-307 q-69 0 -116.5 -47.5t-47.5 -116.5v-573z" />
<glyph unicode="p" horiz-adv-x="1198" d="M164 -348v1433h92l20 -143h11q16 42 53 82q78 82 192 82h216q145 0 226 -75.5t81 -201.5v-553q0 -125 -81 -200.5t-226 -75.5h-441v-348h-143zM307 113h441q69 0 116 47t47 116v553q0 69 -47 116.5t-116 47.5h-216q-104 0 -174 -98q-32 -40 -51 -96v-686z" />
<glyph unicode="q" horiz-adv-x="1198" d="M143 276v533q0 125 81.5 200.5t226.5 75.5h583v-1433h-143v348h-440q-145 0 -226.5 75.5t-81.5 200.5zM287 276q0 -69 47.5 -116t116.5 -47h440v860h-440q-69 0 -116.5 -47.5t-47.5 -116.5v-533z" />
<glyph unicode="r" horiz-adv-x="880" d="M164 0v1085h92l20 -143h11q16 42 53 82q78 82 192 82h318v-113h-318q-104 0 -174 -98q-32 -40 -51 -96v-799h-143z" />
<glyph unicode="s" horiz-adv-x="1054" d="M92 0v113h563q69 0 116.5 47t47.5 116v52q0 117 -112 133l-400 61q-103 18 -159 79t-56 167v41q0 125 81 200.5t226 75.5h512v-71l-41 -41h-471q-69 0 -116 -47.5t-47 -116.5v-41q0 -117 112 -133l400 -62q215 -37 215 -245v-52q0 -125 -81.5 -200.5t-226.5 -75.5h-563z " />
<glyph unicode="t" horiz-adv-x="870" d="M31 973v112h184l72 287h71v-287h328v-112h-328v-717q0 -69 47.5 -116.5t116.5 -47.5h318v-112h-318q-145 0 -226 75.5t-81 200.5v717h-184z" />
<glyph unicode="u" horiz-adv-x="1228" d="M164 256v829h143v-829q0 -69 47.5 -116.5t116.5 -47.5h225q98 0 174 96q32 47 52 99v798h143v-1085h-92l-21 143h-10q-16 -42 -53 -82q-77 -81 -193 -81h-225q-145 0 -226 75.5t-81 200.5z" />
<glyph unicode="v" horiz-adv-x="1116" d="M61 1014v71h134l358 -962h10l359 962h133v-71l-400 -1014h-194z" />
<glyph unicode="w" horiz-adv-x="1628" d="M82 1014v71h133l215 -942h10l277 779h194l277 -779h10l215 942h133v-71l-256 -1014h-184l-287 788h-10l-287 -788h-184z" />
<glyph unicode="x" horiz-adv-x="1054" d="M61 0v72l379 471l-358 471v71h133l307 -440h10l308 440h133v-71l-359 -471l379 -471v-72h-133l-328 440h-10l-327 -440h-134z" />
<glyph unicode="y" horiz-adv-x="1095" d="M61 1014v71h134l380 -942h11l315 942h133v-71l-407 -1116q-93 -246 -328 -246h-102v112h102q59 0 106 38.5t68 95.5l31 82v18z" />
<glyph unicode="z" horiz-adv-x="1003" d="M61 0v102l676 861v10h-635l-41 41v71h861v-102l-676 -860v-10h696v-113h-881z" />
<glyph unicode="{" horiz-adv-x="808" d="M123 543v133q86 0 135 49t49 135v410q0 141 89.5 224t248.5 83h82v-113h-82q-86 0 -140 -54t-54 -140v-410q0 -134 -93 -203q-43 -32 -92 -43v-10q49 -11 92 -43q93 -69 93 -203v-419q0 -86 54 -140.5t140 -54.5h82v-113h-82q-159 0 -248.5 83.5t-89.5 224.5v419 q0 86 -49 135.5t-135 49.5z" />
<glyph unicode="|" horiz-adv-x="532" d="M195 -430v2007h143v-2007h-143z" />
<glyph unicode="}" horiz-adv-x="808" d="M82 -256h82q86 0 140 54.5t54 140.5v419q0 134 93 203q43 32 92 43v10q-49 11 -92 43q-93 69 -93 203v410q0 86 -54 140t-140 54h-82v113h82q159 0 248.5 -83t89.5 -224v-410q0 -86 49 -135t135 -49v-133q-86 0 -135 -49.5t-49 -135.5v-419q0 -141 -89.5 -224.5 t-248.5 -83.5h-82v113z" />
<glyph unicode="~" horiz-adv-x="1034" d="M102 492v235q0 63 43.5 108.5t110.5 45.5h72q51 0 106 -41q24 -18 47 -41l154 -154q12 -20 24 -27q24 -24 58 -24h31q23 0 42 19t19 42v205h123v-235q0 -63 -43.5 -108.5t-110.5 -45.5h-71q-54 0 -109 41q-16 12 -45 41l-154 154q-18 18 -26 24q-31 27 -56 27h-30 q-23 0 -42.5 -19.5t-19.5 -42.5v-204h-123z" />
<glyph unicode="&#xa1;" horiz-adv-x="532" d="M184 20l31 656h102l31 -656v-368h-164v368zM195 870v215h143v-215h-143z" />
<glyph unicode="&#xa2;" horiz-adv-x="1034" d="M143 276v533q0 125 81.5 200.5t226.5 75.5h81v164h144v-164h287v-71l-41 -41h-471q-69 0 -116.5 -47.5t-47.5 -116.5v-533q0 -69 47.5 -116t116.5 -47h512v-113h-287v-164h-144v164h-81q-145 0 -226.5 75.5t-81.5 200.5z" />
<glyph unicode="&#xa3;" horiz-adv-x="1105" d="M113 0v113h61q39 20 72 53q71 71 71 162v420h-163v112h163v318q0 125 81.5 200.5t226.5 75.5h360v-72l-41 -41h-319q-69 0 -116.5 -47t-47.5 -116v-318h379v-112h-379v-420q0 -88 -68 -156q-29 -29 -65 -49v-10h737v-113h-952z" />
<glyph unicode="&#xa4;" horiz-adv-x="1351" d="M72 287v112h184v195h-184v113h184v727h635q159 0 248.5 -83.5t89.5 -224.5v-225q0 -141 -89.5 -224t-248.5 -83h-492v-195h635v-112h-635v-287h-143v287h-184zM399 707h492q86 0 140 54t54 140v225q0 86 -54 140.5t-140 54.5h-492v-614z" />
<glyph unicode="&#xa5;" horiz-adv-x="1187" d="M41 1362v72h133l414 -809h12l414 809h133v-72l-402 -758h279v-112h-338l-20 -41v-123h358v-113h-358v-215h-144v215h-358v113h358v123l-22 41h-336v112h276z" />
<glyph unicode="&#xa6;" horiz-adv-x="532" d="M195 410h143v-840h-143v840zM195 737v840h143v-840h-143z" />
<glyph unicode="&#xa7;" horiz-adv-x="1116" d="M113 -236h583q69 0 116.5 47.5t47.5 116.5v92q0 46 -39 84.5t-94 49.5l-389 61q-102 18 -163.5 83t-61.5 163v205q0 107 71 163q27 24 72 41v11q-34 15 -61 39q-62 62 -62 145v92q0 126 81 201.5t226 75.5h512v-72l-41 -41h-471q-69 0 -116.5 -47t-47.5 -115v-94 q0 -46 37.5 -85.5t85.5 -47.5l379 -62q102 -18 164 -82.5t62 -162.5v-205q0 -100 -68 -164q-24 -24 -66 -41v-10q40 -16 66 -39q68 -64 68 -146v-92q0 -125 -81.5 -200.5t-226.5 -75.5h-583v112zM256 461q0 -53 34 -89t89 -44l379 -62q42 0 72 40t30 114v205q0 53 -34 89 t-89 44l-368 61q-50 0 -81.5 -39t-31.5 -114v-205z" />
<glyph unicode="&#xa8;" horiz-adv-x="716" d="M82 1229v205h143v-205h-143zM492 1229v205h143v-205h-143z" />
<glyph unicode="&#xa9;" horiz-adv-x="1925" d="M164 266v901q0 141 89.5 224.5t248.5 83.5h921q159 0 248.5 -83.5t89.5 -224.5v-901q0 -141 -89.5 -224t-248.5 -83h-921q-159 0 -248.5 83t-89.5 224zM307 266q0 -86 54.5 -140t140.5 -54h921q86 0 140.5 54t54.5 140v901q0 86 -54.5 140.5t-140.5 54.5h-921 q-86 0 -140.5 -54.5t-54.5 -140.5v-901zM604 532v369q0 110 74 178t203 68h409v-72l-41 -41h-368q-61 0 -97 -36t-36 -97v-369q0 -62 36 -97.5t97 -35.5h409v-112h-409q-129 0 -203 67.5t-74 177.5z" />
<glyph unicode="&#xaa;" horiz-adv-x="778" d="M82 942q0 95 60.5 150t174.5 55h246v82q0 47 -27.5 74.5t-74.5 27.5h-287v103h287q114 0 174.5 -55t60.5 -150v-471h-102l-10 92h-11q-10 -30 -34 -57q-45 -56 -119 -56h-103q-114 0 -174.5 55t-60.5 150zM215 942q0 -47 27.5 -74.5t74.5 -27.5h103q51 0 97 46t46 87v71 h-246q-47 0 -74.5 -27.5t-27.5 -74.5z" />
<glyph unicode="&#xab;" horiz-adv-x="1003" d="M133 532l215 420h133v-71l-184 -349l184 -348v-71h-133zM522 532l215 420h133v-71l-184 -349l184 -348v-71h-133z" />
<glyph unicode="&#xac;" horiz-adv-x="1024" d="M82 748v112h860v-358h-143v246h-717z" />
<glyph unicode="&#xad;" horiz-adv-x="1034" d="M82 604v113h870v-113h-870z" />
<glyph unicode="&#xae;" horiz-adv-x="1925" d="M164 266v901q0 141 89.5 224.5t248.5 83.5h921q159 0 248.5 -83.5t89.5 -224.5v-901q0 -141 -89.5 -224t-248.5 -83h-921q-159 0 -248.5 83t-89.5 224zM307 266q0 -86 54.5 -140t140.5 -54h921q86 0 140.5 54t54.5 140v901q0 86 -54.5 140.5t-140.5 54.5h-921 q-86 0 -140.5 -54.5t-54.5 -140.5v-901zM604 287v860h451q128 0 202 -67.5t74 -178.5v-39q0 -128 -102 -190q-50 -29 -103 -37l226 -277v-71h-133q-172 246 -226 327h-245v-327h-144zM748 727h307q62 0 97.5 36t35.5 99v39q0 61 -36 97t-97 36h-307v-307z" />
<glyph unicode="&#xaf;" horiz-adv-x="819" d="M113 1321v113h594v-113h-594z" />
<glyph unicode="&#xb0;" horiz-adv-x="808" d="M82 963v286q0 95 60.5 150t174.5 55h175q114 0 174.5 -55t60.5 -150v-286q0 -95 -60.5 -150t-174.5 -55h-175q-114 0 -174.5 55t-60.5 150zM215 963q0 -47 27.5 -75t74.5 -28h175q47 0 74.5 28t27.5 75v286q0 47 -27.5 75t-74.5 28h-175q-47 0 -74.5 -28t-27.5 -75v-286z " />
<glyph unicode="&#xb1;" horiz-adv-x="1126" d="M102 758v112h400v410h123v-410h399v-112h-399v-430h389v-113h-901v113h389v430h-400z" />
<glyph unicode="&#xb2;" horiz-adv-x="716" d="M82 758v92l328 246l45 43q47 51 47 90q0 47 -28 74.5t-75 27.5h-297v103h297q114 0 175 -55t61 -150q0 -66 -72 -146q-35 -35 -71 -59l-226 -154v-10h369v-102h-553z" />
<glyph unicode="&#xb3;" horiz-adv-x="737" d="M82 758v102h338q47 0 74.5 28t27.5 75q0 92 -102 92h-215v92l215 174v10h-338v103h522v-93l-237 -184h53q116 0 175.5 -50.5t59.5 -143.5q0 -95 -60.5 -150t-174.5 -55h-338z" />
<glyph unicode="&#xb4;" horiz-adv-x="522" d="M82 1106l184 328h174l-235 -328h-123z" />
<glyph unicode="&#xb5;" horiz-adv-x="1228" d="M164 -348v1433h143v-829q0 -69 47.5 -116.5t116.5 -47.5h225q98 0 174 96q32 47 52 99v798h143v-1085h-92l-21 143h-10q-16 -42 -53 -82q-77 -81 -193 -81h-225q-68 0 -115 34q-26 18 -39 37h-10v-399h-143z" />
<glyph unicode="&#xb6;" horiz-adv-x="1228" d="M82 942v215q0 126 81 201.5t226 75.5h799v-113h-215v-1669h-144v1669h-235v-1669h-143v1014h-62q-145 0 -226 75.5t-81 200.5z" />
<glyph unicode="&#xb7;" horiz-adv-x="593" d="M225 604v215h144v-215h-144z" />
<glyph unicode="&#xb8;" horiz-adv-x="573" d="M82 -358h215q31 0 51.5 20t20.5 51v41q0 31 -20.5 51.5t-51.5 20.5h-154v174h103v-82h71q77 0 126 -47t49 -117v-41q0 -70 -49 -117t-126 -47h-235v93z" />
<glyph unicode="&#xb9;" horiz-adv-x="450" d="M82 1321v82l174 31h113v-676h-133v563h-154z" />
<glyph unicode="&#xba;" horiz-adv-x="788" d="M82 963v286q0 95 60.5 150t174.5 55h154q114 0 175 -55t61 -150v-286q0 -95 -61 -150t-175 -55h-154q-114 0 -174.5 55t-60.5 150zM215 963q0 -47 27.5 -75t74.5 -28h154q47 0 74.5 28t27.5 75v286q0 47 -27.5 75t-74.5 28h-154q-47 0 -74.5 -28t-27.5 -75v-286z" />
<glyph unicode="&#xbb;" horiz-adv-x="1003" d="M133 113v71l184 348l-184 349v71h133l215 -420l-215 -419h-133zM522 113v71l185 348l-185 349v71h133l215 -420l-215 -419h-133z" />
<glyph unicode="&#xbc;" horiz-adv-x="1525" d="M82 1321v82l174 31h113v-676h-133v563h-154zM225 0v61l871 1373h123v-62l-871 -1372h-123zM799 123v92l399 461h133v-451h113v-102h-113v-123h-133v123h-399zM952 225h246v277h-10l-236 -266v-11z" />
<glyph unicode="&#xbd;" horiz-adv-x="1587" d="M82 1321v82l174 31h113v-676h-133v563h-154zM225 0v61l871 1373h123v-62l-871 -1372h-123zM952 0v92l328 246l45 43q47 51 47 90q0 47 -27.5 74.5t-74.5 27.5h-297v103h297q114 0 174.5 -55t60.5 -150q0 -66 -71 -145q-36 -36 -72 -60l-225 -153v-11h368v-102h-553z" />
<glyph unicode="&#xbe;" horiz-adv-x="1628" d="M82 758v102h338q47 0 74.5 28t27.5 75q0 92 -102 92h-215v92l215 174v10h-338v103h522v-93l-237 -184h53q116 0 175.5 -50.5t59.5 -143.5q0 -95 -60.5 -150t-174.5 -55h-338zM348 0v61l871 1373h122v-62l-870 -1372h-123zM901 123v92l399 461h134v-451h112v-102h-112 v-123h-134v123h-399zM1055 225h245v277h-10l-235 -266v-11z" />
<glyph unicode="&#xbf;" horiz-adv-x="952" d="M92 -41v143q0 86 39 140t115 96l205 113q92 56 92 143v82h143v-82q0 -86 -39 -140t-115 -96l-204 -112q-92 -56 -92 -144v-143q0 -86 54 -140.5t140 -54.5h522l41 -40v-72h-563q-159 0 -248.5 83t-89.5 224zM543 870v215h143v-215h-143z" />
<glyph unicode="&#xc0;" horiz-adv-x="1280" d="M51 0v72l492 1362h194l492 -1362v-72h-133l-133 379h-646l-133 -379h-133zM338 1925h174l184 -328h-123zM348 492h584l-287 798h-10z" />
<glyph unicode="&#xc1;" horiz-adv-x="1280" d="M51 0v72l492 1362h194l492 -1362v-72h-133l-133 379h-646l-133 -379h-133zM348 492h584l-287 798h-10zM563 1597l185 328h174l-236 -328h-123z" />
<glyph unicode="&#xc2;" horiz-adv-x="1280" d="M51 0v72l492 1362h194l492 -1362v-72h-133l-133 379h-646l-133 -379h-133zM301 1516l277 307h122l277 -307h-133l-205 215l-205 -215h-133zM348 492h584l-287 798h-10z" />
<glyph unicode="&#xc3;" horiz-adv-x="1280" d="M51 0v72l492 1362h194l492 -1362v-72h-133l-133 379h-646l-133 -379h-133zM348 492h584l-287 798h-10zM348 1567v153q0 54 34.5 88.5t88.5 34.5h41q37 0 70 -26q18 -11 32 -25l93 -82l18 -16q21 -15 43 -15q41 0 41 52v102h123v-154q0 -54 -34.5 -88.5t-88.5 -34.5h-41 q-38 0 -70 25q-12 7 -32 27l-93 82q-12 8 -18 14q-28 16 -43 16q-41 0 -41 -51v-102h-123z" />
<glyph unicode="&#xc4;" horiz-adv-x="1280" d="M51 0v72l492 1362h194l492 -1362v-72h-133l-133 379h-646l-133 -379h-133zM348 492h584l-287 798h-10zM362 1577v205h144v-205h-144zM772 1577v205h143v-205h-143z" />
<glyph unicode="&#xc5;" horiz-adv-x="1280" d="M51 0v72l467 1294q-46 18 -72 56t-26 83v92q0 63 49 108.5t125 45.5h92q76 0 125 -45.5t49 -108.5v-92q0 -44 -27 -82t-71 -57l467 -1294v-72h-133l-133 379h-646l-133 -379h-133zM348 492h584l-287 798h-10zM532 1505q0 -31 20 -51t52 -20h72q32 0 52 20t20 51v92 q0 31 -20 51.5t-52 20.5h-72q-32 0 -52 -20.5t-20 -51.5v-92z" />
<glyph unicode="&#xc6;" horiz-adv-x="1935" d="M20 0v72l664 1362h1180v-72l-41 -41h-717v-533h584v-112h-584v-563h758v-113h-901v461h-594l-215 -461h-134zM430 573h533v748h-179z" />
<glyph unicode="&#xc7;" horiz-adv-x="1167" d="M164 307v819q0 141 89.5 224.5t248.5 83.5h594v-72l-41 -41h-553q-86 0 -140.5 -54.5t-54.5 -140.5v-819q0 -86 54.5 -140t140.5 -54h594v-113h-451v-82h72q77 0 125.5 -47t48.5 -117v-41q0 -70 -48.5 -117t-125.5 -47h-236v93h215q31 0 51.5 20t20.5 51v41 q0 31 -20.5 51.5t-51.5 20.5h-153v174h-41q-159 0 -248.5 83t-89.5 224z" />
<glyph unicode="&#xc8;" horiz-adv-x="1187" d="M195 0v1434h921v-72l-41 -41h-737v-533h604v-112h-604v-563h778v-113h-921zM373 1925h174l184 -328h-123z" />
<glyph unicode="&#xc9;" horiz-adv-x="1187" d="M195 0v1434h921v-72l-41 -41h-737v-533h604v-112h-604v-563h778v-113h-921zM557 1597l184 328h174l-235 -328h-123z" />
<glyph unicode="&#xca;" horiz-adv-x="1187" d="M195 0v1434h921v-72l-41 -41h-737v-533h604v-112h-604v-563h778v-113h-921zM317 1577l277 307h123l276 -307h-133l-205 215l-204 -215h-134z" />
<glyph unicode="&#xcb;" horiz-adv-x="1187" d="M195 0v1434h921v-72l-41 -41h-737v-533h604v-112h-604v-563h778v-113h-921zM379 1597v205h143v-205h-143zM788 1597v205h144v-205h-144z" />
<glyph unicode="&#xcc;" horiz-adv-x="532" d="M-14 1925h174l184 -328h-123zM195 0v1434h143v-1434h-143z" />
<glyph unicode="&#xcd;" horiz-adv-x="532" d="M188 1597l185 328h174l-236 -328h-123zM195 0v1434h143v-1434h-143z" />
<glyph unicode="&#xce;" horiz-adv-x="532" d="M-70 1577l277 307h123l276 -307h-133l-205 215l-205 -215h-133zM195 0v1434h143v-1434h-143z" />
<glyph unicode="&#xcf;" horiz-adv-x="532" d="M-8 1556v205h143v-205h-143zM195 0v1434h143v-1434h-143zM401 1556v205h144v-205h-144z" />
<glyph unicode="&#xd0;" horiz-adv-x="1361" d="M41 686v113h154v635h665q159 0 248.5 -83.5t89.5 -224.5v-819q0 -141 -89.5 -224t-248.5 -83h-665v686h-154zM338 113h522q86 0 140.5 54t54.5 140v819q0 86 -54.5 140.5t-140.5 54.5h-522v-522h317v-113h-317v-573z" />
<glyph unicode="&#xd1;" horiz-adv-x="1392" d="M195 0v1434h174l696 -1239h10l-20 297v942h143v-1434h-174l-696 1239h-11l21 -297v-942h-143zM403 1587v154q0 54 34.5 88.5t88.5 34.5h41q35 0 70 -27q20 -12 33 -25l92 -81l18 -17q20 -14 43 -14q41 0 41 51v102h123v-153q0 -54 -34.5 -88.5t-88.5 -34.5h-41 q-37 0 -69 25q-18 10 -33 26l-92 82q-15 10 -19 14q-30 17 -43 17q-41 0 -41 -51v-103h-123z" />
<glyph unicode="&#xd2;" horiz-adv-x="1372" d="M164 287v860q0 141 89.5 224t248.5 83h368q159 0 248.5 -83t89.5 -224v-860q0 -141 -89.5 -224t-248.5 -83h-368q-159 0 -248.5 83t-89.5 224zM307 287q0 -86 54.5 -140.5t140.5 -54.5h368q86 0 140.5 54.5t54.5 140.5v860q0 86 -54.5 140t-140.5 54h-368 q-86 0 -140.5 -54t-54.5 -140v-860zM424 1925h174l184 -328h-123z" />
<glyph unicode="&#xd3;" horiz-adv-x="1372" d="M164 287v860q0 141 89.5 224t248.5 83h368q159 0 248.5 -83t89.5 -224v-860q0 -141 -89.5 -224t-248.5 -83h-368q-159 0 -248.5 83t-89.5 224zM307 287q0 -86 54.5 -140.5t140.5 -54.5h368q86 0 140.5 54.5t54.5 140.5v860q0 86 -54.5 140t-140.5 54h-368 q-86 0 -140.5 -54t-54.5 -140v-860zM608 1597l185 328h174l-236 -328h-123z" />
<glyph unicode="&#xd4;" horiz-adv-x="1372" d="M164 287v860q0 141 89.5 224t248.5 83h368q159 0 248.5 -83t89.5 -224v-860q0 -141 -89.5 -224t-248.5 -83h-368q-159 0 -248.5 83t-89.5 224zM307 287q0 -86 54.5 -140.5t140.5 -54.5h368q86 0 140.5 54.5t54.5 140.5v860q0 86 -54.5 140t-140.5 54h-368 q-86 0 -140.5 -54t-54.5 -140v-860zM348 1597l277 308h123l276 -308h-133l-205 215l-205 -215h-133z" />
<glyph unicode="&#xd5;" horiz-adv-x="1372" d="M164 287v860q0 141 89.5 224t248.5 83h368q159 0 248.5 -83t89.5 -224v-860q0 -141 -89.5 -224t-248.5 -83h-368q-159 0 -248.5 83t-89.5 224zM307 287q0 -86 54.5 -140.5t140.5 -54.5h368q86 0 140.5 54.5t54.5 140.5v860q0 86 -54.5 140t-140.5 54h-368 q-86 0 -140.5 -54t-54.5 -140v-860zM393 1608v153q0 54 34.5 88.5t88.5 34.5h41q37 0 70 -26q18 -10 32 -25l93 -82l18 -16q21 -15 43 -15q41 0 41 52v102h123v-154q0 -54 -34.5 -88.5t-88.5 -34.5h-41q-38 0 -70 25q-13 8 -32 27l-93 82q-12 8 -18 14q-28 16 -43 16 q-41 0 -41 -51v-102h-123z" />
<glyph unicode="&#xd6;" horiz-adv-x="1372" d="M164 287v860q0 141 89.5 224t248.5 83h368q159 0 248.5 -83t89.5 -224v-860q0 -141 -89.5 -224t-248.5 -83h-368q-159 0 -248.5 83t-89.5 224zM307 287q0 -86 54.5 -140.5t140.5 -54.5h368q86 0 140.5 54.5t54.5 140.5v860q0 86 -54.5 140t-140.5 54h-368 q-86 0 -140.5 -54t-54.5 -140v-860zM410 1597v205h143v-205h-143zM819 1597v205h144v-205h-144z" />
<glyph unicode="&#xd7;" horiz-adv-x="983" d="M102 348l308 307l-308 308l82 81l308 -307l307 307l82 -81l-308 -308l308 -307l-82 -82l-307 307l-308 -307z" />
<glyph unicode="&#xd8;" horiz-adv-x="1372" d="M164 287v860q0 141 89.5 224t248.5 83h368q47 0 80 -8l43 90h123v-61l-35 -76q127 -83 127 -252v-860q0 -141 -89.5 -224t-248.5 -83h-368q-46 0 -82 8l-41 -90h-123v61l35 74q-127 83 -127 254zM307 287q0 -75 43 -127l551 1179q-5 0 -15.5 1t-15.5 1h-368 q-86 0 -140.5 -54t-54.5 -140v-860zM471 94q6 -2 31 -2h368q86 0 140.5 54.5t54.5 140.5v860q0 73 -43 125z" />
<glyph unicode="&#xd9;" horiz-adv-x="1413" d="M195 287v1147h143v-1147q0 -86 54 -140.5t140 -54.5h349q86 0 140 54.5t54 140.5v1147h144v-1147q0 -141 -89.5 -224t-248.5 -83h-349q-159 0 -248 83t-89 224zM465 1843h174l184 -327h-123z" />
<glyph unicode="&#xda;" horiz-adv-x="1413" d="M195 287v1147h143v-1147q0 -86 54 -140.5t140 -54.5h349q86 0 140 54.5t54 140.5v1147h144v-1147q0 -141 -89.5 -224t-248.5 -83h-349q-159 0 -248 83t-89 224zM608 1516l185 327h174l-236 -327h-123z" />
<glyph unicode="&#xdb;" horiz-adv-x="1413" d="M195 287v1147h143v-1147q0 -86 54 -140.5t140 -54.5h349q86 0 140 54.5t54 140.5v1147h144v-1147q0 -141 -89.5 -224t-248.5 -83h-349q-159 0 -248 83t-89 224zM369 1556l276 308h123l276 -308h-133l-204 216l-205 -216h-133z" />
<glyph unicode="&#xdc;" horiz-adv-x="1413" d="M195 287v1147h143v-1147q0 -86 54 -140.5t140 -54.5h349q86 0 140 54.5t54 140.5v1147h144v-1147q0 -141 -89.5 -224t-248.5 -83h-349q-159 0 -248 83t-89 224zM430 1556v205h143v-205h-143zM840 1556v205h143v-205h-143z" />
<glyph unicode="&#xdd;" horiz-adv-x="1187" d="M41 1362v72h133l414 -809h12l414 809h133v-72l-481 -911v-451h-144v451zM496 1516l184 327h174l-236 -327h-122z" />
<glyph unicode="&#xde;" horiz-adv-x="1290" d="M195 0v1434h143v-236h491q159 0 248.5 -83t89.5 -224v-369q0 -141 -89.5 -224t-248.5 -83h-491v-215h-143zM338 328h491q86 0 140.5 54t54.5 140v369q0 86 -54.5 140t-140.5 54h-491v-757z" />
<glyph unicode="&#xdf;" horiz-adv-x="1259" d="M164 0v1126q0 141 89.5 224.5t248.5 83.5h164q145 0 226 -75.5t81 -201.5q0 -45 -23 -87t-56.5 -75t-66.5 -63.5t-56 -65t-23 -67.5v-41q0 -37 23 -66.5t60 -50t82 -39.5t89.5 -42.5t81.5 -52t60 -74.5t23 -105v-52q0 -125 -81 -200.5t-226 -75.5h-287v113h287 q69 0 116.5 47t47.5 116v52q0 40 -23 71t-60 52.5t-82 41t-90 42.5t-82 51t-60 72t-23 100v41q0 38 16.5 74.5t41.5 63.5t54.5 56t54.5 53t41.5 53t16.5 58q0 69 -47 116.5t-116 47.5h-164q-86 0 -140.5 -54.5t-54.5 -140.5v-1126h-143z" />
<glyph unicode="&#xe0;" horiz-adv-x="1167" d="M113 256v82q0 125 81 200.5t226 75.5h440v195q0 69 -47.5 116.5t-116.5 47.5h-481v112h481q145 0 226.5 -75.5t81.5 -200.5v-809h-93l-20 143h-10q-16 -40 -54 -82q-77 -81 -192 -81h-215q-145 0 -226 75.5t-81 200.5zM256 256q0 -69 47.5 -116.5t116.5 -47.5h215 q98 0 174 96q30 44 51 99v215h-440q-69 0 -116.5 -47.5t-47.5 -116.5v-82zM342 1556h174l184 -327h-122z" />
<glyph unicode="&#xe1;" horiz-adv-x="1167" d="M113 256v82q0 125 81 200.5t226 75.5h440v195q0 69 -47.5 116.5t-116.5 47.5h-481v112h481q145 0 226.5 -75.5t81.5 -200.5v-809h-93l-20 143h-10q-16 -40 -54 -82q-77 -81 -192 -81h-215q-145 0 -226 75.5t-81 200.5zM256 256q0 -69 47.5 -116.5t116.5 -47.5h215 q98 0 174 96q30 44 51 99v215h-440q-69 0 -116.5 -47.5t-47.5 -116.5v-82zM485 1229l185 327h174l-236 -327h-123z" />
<glyph unicode="&#xe2;" horiz-adv-x="1167" d="M113 256v82q0 125 81 200.5t226 75.5h440v195q0 69 -47.5 116.5t-116.5 47.5h-481v112h481q145 0 226.5 -75.5t81.5 -200.5v-809h-93l-20 143h-10q-16 -40 -54 -82q-77 -81 -192 -81h-215q-145 0 -226 75.5t-81 200.5zM246 1229l276 307h123l277 -307h-134l-204 215 l-205 -215h-133zM256 256q0 -69 47.5 -116.5t116.5 -47.5h215q98 0 174 96q30 44 51 99v215h-440q-69 0 -116.5 -47.5t-47.5 -116.5v-82z" />
<glyph unicode="&#xe3;" horiz-adv-x="1167" d="M113 256v82q0 125 81 200.5t226 75.5h440v195q0 69 -47.5 116.5t-116.5 47.5h-481v112h481q145 0 226.5 -75.5t81.5 -200.5v-809h-93l-20 143h-10q-16 -40 -54 -82q-77 -81 -192 -81h-215q-145 0 -226 75.5t-81 200.5zM256 256q0 -69 47.5 -116.5t116.5 -47.5h215 q98 0 174 96q30 44 51 99v215h-440q-69 0 -116.5 -47.5t-47.5 -116.5v-82zM291 1239v154q0 54 34.5 88.5t88.5 34.5h41q34 0 69 -27q20 -12 33 -25l92 -82l19 -16q20 -14 43 -14q41 0 41 51v102h122v-153q0 -54 -34 -88.5t-88 -34.5h-41q-39 0 -70 24q-15 9 -33 27l-92 82 q-12 8 -18 14q-30 17 -43 17q-41 0 -41 -52v-102h-123z" />
<glyph unicode="&#xe4;" horiz-adv-x="1167" d="M113 256v82q0 125 81 200.5t226 75.5h440v195q0 69 -47.5 116.5t-116.5 47.5h-481v112h481q145 0 226.5 -75.5t81.5 -200.5v-809h-93l-20 143h-10q-16 -40 -54 -82q-77 -81 -192 -81h-215q-145 0 -226 75.5t-81 200.5zM256 256q0 -69 47.5 -116.5t116.5 -47.5h215 q98 0 174 96q30 44 51 99v215h-440q-69 0 -116.5 -47.5t-47.5 -116.5v-82zM307 1229v205h144v-205h-144zM717 1229v205h143v-205h-143z" />
<glyph unicode="&#xe5;" horiz-adv-x="1167" d="M113 256v82q0 125 81 200.5t226 75.5h440v195q0 69 -47.5 116.5t-116.5 47.5h-481v112h481q145 0 226.5 -75.5t81.5 -200.5v-809h-93l-20 143h-10q-16 -40 -54 -82q-77 -81 -192 -81h-215q-145 0 -226 75.5t-81 200.5zM256 256q0 -69 47.5 -116.5t116.5 -47.5h215 q98 0 174 96q30 44 51 99v215h-440q-69 0 -116.5 -47.5t-47.5 -116.5v-82zM362 1372v92q0 63 49.5 108.5t125.5 45.5h92q76 0 125 -45.5t49 -108.5v-92q0 -63 -49 -108t-125 -45h-92q-76 0 -125.5 45t-49.5 108zM475 1372q0 -31 20 -51.5t52 -20.5h71q32 0 52 20.5t20 51.5 v92q0 31 -20 51.5t-52 20.5h-71q-32 0 -52 -20.5t-20 -51.5v-92z" />
<glyph unicode="&#xe6;" horiz-adv-x="1873" d="M113 256v82q0 125 81 200.5t226 75.5h440v215q0 55 -49 99.5t-115 44.5h-481v112h481q93 0 170 -61q36 -28 56 -61q15 29 57 71q80 72 188 72h256q145 0 226.5 -76t81.5 -201v-348h-727v-205q0 -69 47 -116t116 -47h523v-113h-523q-114 0 -196 82q-42 42 -60 82 q-24 -52 -61 -92q-84 -92 -215 -92h-215q-145 0 -226 75.5t-81 200.5zM256 256q0 -69 47.5 -116.5t116.5 -47.5h215q98 0 174 96q30 44 51 99v215h-440q-69 0 -116.5 -47.5t-47.5 -116.5v-82zM1004 594h583v235q0 69 -47.5 116.5t-116.5 47.5h-256q-69 0 -116 -47.5 t-47 -116.5v-235z" />
<glyph unicode="&#xe7;" horiz-adv-x="1034" d="M143 276v533q0 125 81.5 200.5t226.5 75.5h512v-71l-41 -41h-471q-69 0 -116.5 -47.5t-47.5 -116.5v-533q0 -69 47.5 -116t116.5 -47h512v-113h-385v-82h71q77 0 125.5 -47t48.5 -117v-41q0 -70 -48.5 -117t-125.5 -47h-235v93h215q31 0 51 20t20 51v41q0 31 -20 51.5 t-51 20.5h-154v174h-24q-145 0 -226.5 75.5t-81.5 200.5z" />
<glyph unicode="&#xe8;" horiz-adv-x="1157" d="M143 276v553q0 125 81.5 201t226.5 76h256q145 0 226 -75.5t81 -201.5v-348h-727v-205q0 -69 47.5 -116t116.5 -47h522v-113h-522q-145 0 -226.5 75.5t-81.5 200.5zM287 594h583v235q0 69 -47 116.5t-116 47.5h-256q-69 0 -116.5 -47.5t-47.5 -116.5v-235zM317 1556h175 l184 -327h-123z" />
<glyph unicode="&#xe9;" horiz-adv-x="1157" d="M143 276v553q0 125 81.5 201t226.5 76h256q145 0 226 -75.5t81 -201.5v-348h-727v-205q0 -69 47.5 -116t116.5 -47h522v-113h-522q-145 0 -226.5 75.5t-81.5 200.5zM287 594h583v235q0 69 -47 116.5t-116 47.5h-256q-69 0 -116.5 -47.5t-47.5 -116.5v-235zM481 1229 l185 327h174l-236 -327h-123z" />
<glyph unicode="&#xea;" horiz-adv-x="1157" d="M143 276v553q0 125 81.5 201t226.5 76h256q145 0 226 -75.5t81 -201.5v-348h-727v-205q0 -69 47.5 -116t116.5 -47h522v-113h-522q-145 0 -226.5 75.5t-81.5 200.5zM240 1229l276 307h123l276 -307h-133l-204 215l-205 -215h-133zM287 594h583v235q0 69 -47 116.5 t-116 47.5h-256q-69 0 -116.5 -47.5t-47.5 -116.5v-235z" />
<glyph unicode="&#xeb;" horiz-adv-x="1157" d="M143 276v553q0 125 81.5 201t226.5 76h256q145 0 226 -75.5t81 -201.5v-348h-727v-205q0 -69 47.5 -116t116.5 -47h522v-113h-522q-145 0 -226.5 75.5t-81.5 200.5zM287 594h583v235q0 69 -47 116.5t-116 47.5h-256q-69 0 -116.5 -47.5t-47.5 -116.5v-235zM301 1249v205 h143v-205h-143zM711 1249v205h143v-205h-143z" />
<glyph unicode="&#xec;" horiz-adv-x="471" d="M-43 1556h174l184 -327h-122zM164 0v1085h143v-1085h-143z" />
<glyph unicode="&#xed;" horiz-adv-x="471" d="M160 1229l184 327h174l-235 -327h-123zM164 0v1085h143v-1085h-143z" />
<glyph unicode="&#xee;" horiz-adv-x="471" d="M-100 1229l276 307h123l276 -307h-133l-204 215l-205 -215h-133zM164 0v1085h143v-1085h-143z" />
<glyph unicode="&#xef;" horiz-adv-x="471" d="M-39 1229v205h143v-205h-143zM164 0v1085h143v-1085h-143zM371 1229v205h143v-205h-143z" />
<glyph unicode="&#xf0;" d="M143 256v451q0 125 81.5 200.5t226.5 75.5h460v92q0 111 -50.5 172t-133.5 74l-70 10l-43 -205l-122 21l43 205l-248 41l20 112l252 -41l35 164l123 -20l-35 -164l66 -10q143 -24 225 -116.5t82 -242.5v-819q0 -125 -81 -200.5t-226 -75.5h-297q-145 0 -226.5 75.5 t-81.5 200.5zM287 256q0 -69 47.5 -116.5t116.5 -47.5h297q69 0 116 47.5t47 116.5v614h-460q-69 0 -116.5 -47t-47.5 -116v-451z" />
<glyph unicode="&#xf1;" horiz-adv-x="1228" d="M164 0v1085h92l20 -143h11q16 42 53 82q78 82 192 82h226q145 0 226 -75.5t81 -201.5v-829h-143v829q0 69 -47.5 116.5t-116.5 47.5h-226q-104 0 -174 -98q-32 -40 -51 -96v-799h-143zM322 1260v153q0 54 34 88.5t88 34.5h41q35 0 70 -27q23 -14 33 -24l92 -82l18 -17 q20 -14 43 -14q41 0 41 51v103h123v-154q0 -54 -34.5 -88.5t-88.5 -34.5h-41q-37 0 -69 25q-18 10 -33 26l-92 82q-12 8 -19 15q-28 16 -43 16q-41 0 -41 -51v-102h-122z" />
<glyph unicode="&#xf2;" d="M143 256v573q0 125 81.5 201t226.5 76h307q145 0 226 -75.5t81 -201.5v-573q0 -125 -81 -200.5t-226 -75.5h-307q-145 0 -226.5 75.5t-81.5 200.5zM287 256q0 -69 47.5 -116.5t116.5 -47.5h307q69 0 116.5 47.5t47.5 116.5v573q0 69 -47.5 116.5t-116.5 47.5h-307 q-69 0 -116.5 -47.5t-47.5 -116.5v-573zM342 1556h174l184 -327h-122z" />
<glyph unicode="&#xf3;" d="M143 256v573q0 125 81.5 201t226.5 76h307q145 0 226 -75.5t81 -201.5v-573q0 -125 -81 -200.5t-226 -75.5h-307q-145 0 -226.5 75.5t-81.5 200.5zM287 256q0 -69 47.5 -116.5t116.5 -47.5h307q69 0 116.5 47.5t47.5 116.5v573q0 69 -47.5 116.5t-116.5 47.5h-307 q-69 0 -116.5 -47.5t-47.5 -116.5v-573zM526 1229l185 327h174l-236 -327h-123z" />
<glyph unicode="&#xf4;" d="M143 256v573q0 125 81.5 201t226.5 76h307q145 0 226 -75.5t81 -201.5v-573q0 -125 -81 -200.5t-226 -75.5h-307q-145 0 -226.5 75.5t-81.5 200.5zM266 1229l277 307h123l276 -307h-133l-205 215l-205 -215h-133zM287 256q0 -69 47.5 -116.5t116.5 -47.5h307 q69 0 116.5 47.5t47.5 116.5v573q0 69 -47.5 116.5t-116.5 47.5h-307q-69 0 -116.5 -47.5t-47.5 -116.5v-573z" />
<glyph unicode="&#xf5;" d="M143 256v573q0 125 81.5 201t226.5 76h307q145 0 226 -75.5t81 -201.5v-573q0 -125 -81 -200.5t-226 -75.5h-307q-145 0 -226.5 75.5t-81.5 200.5zM287 256q0 -69 47.5 -116.5t116.5 -47.5h307q69 0 116.5 47.5t47.5 116.5v573q0 69 -47.5 116.5t-116.5 47.5h-307 q-69 0 -116.5 -47.5t-47.5 -116.5v-573zM311 1260v153q0 54 34.5 88.5t88.5 34.5h41q35 0 70 -27q23 -14 33 -24l92 -82l18 -17q20 -14 43 -14q41 0 41 51v103h123v-154q0 -54 -34.5 -88.5t-88.5 -34.5h-41q-37 0 -69 25q-18 10 -33 26l-92 82q-12 8 -19 15q-28 16 -43 16 q-41 0 -41 -51v-102h-123z" />
<glyph unicode="&#xf6;" d="M143 256v573q0 125 81.5 201t226.5 76h307q145 0 226 -75.5t81 -201.5v-573q0 -125 -81 -200.5t-226 -75.5h-307q-145 0 -226.5 75.5t-81.5 200.5zM287 256q0 -69 47.5 -116.5t116.5 -47.5h307q69 0 116.5 47.5t47.5 116.5v573q0 69 -47.5 116.5t-116.5 47.5h-307 q-69 0 -116.5 -47.5t-47.5 -116.5v-573zM328 1249v205h143v-205h-143zM737 1249v205h144v-205h-144z" />
<glyph unicode="&#xf7;" horiz-adv-x="1003" d="M82 604v113h840v-113h-840zM430 195v215h143v-215h-143zM430 911v215h143v-215h-143z" />
<glyph unicode="&#xf8;" d="M143 256v573q0 125 81.5 201t226.5 76h307q50 0 104 -14l60 96h112v-62l-57 -92q88 -76 88 -205v-573q0 -125 -81 -200.5t-226 -75.5h-307q-53 0 -107 14l-57 -96h-113v61l55 92q-86 77 -86 205zM287 256q0 -46 18 -80l494 811q-18 6 -41 6h-307q-69 0 -116.5 -47.5 t-47.5 -116.5v-573zM408 96q28 -4 43 -4h307q69 0 116.5 47.5t47.5 116.5v573q0 39 -21 80z" />
<glyph unicode="&#xf9;" horiz-adv-x="1228" d="M164 256v829h143v-829q0 -69 47.5 -116.5t116.5 -47.5h225q98 0 174 96q32 47 52 99v798h143v-1085h-92l-21 143h-10q-16 -42 -53 -82q-77 -81 -193 -81h-225q-145 0 -226 75.5t-81 200.5zM373 1516h174l184 -328h-123z" />
<glyph unicode="&#xfa;" horiz-adv-x="1228" d="M164 256v829h143v-829q0 -69 47.5 -116.5t116.5 -47.5h225q98 0 174 96q32 47 52 99v798h143v-1085h-92l-21 143h-10q-16 -42 -53 -82q-77 -81 -193 -81h-225q-145 0 -226 75.5t-81 200.5zM516 1188l184 328h174l-235 -328h-123z" />
<glyph unicode="&#xfb;" horiz-adv-x="1228" d="M164 256v829h143v-829q0 -69 47.5 -116.5t116.5 -47.5h225q98 0 174 96q32 47 52 99v798h143v-1085h-92l-21 143h-10q-16 -42 -53 -82q-77 -81 -193 -81h-225q-145 0 -226 75.5t-81 200.5zM297 1229l276 307h123l277 -307h-133l-205 215l-205 -215h-133z" />
<glyph unicode="&#xfc;" horiz-adv-x="1228" d="M164 256v829h143v-829q0 -69 47.5 -116.5t116.5 -47.5h225q98 0 174 96q32 47 52 99v798h143v-1085h-92l-21 143h-10q-16 -42 -53 -82q-77 -81 -193 -81h-225q-145 0 -226 75.5t-81 200.5zM338 1229v205h143v-205h-143zM748 1229v205h143v-205h-143z" />
<glyph unicode="&#xfd;" horiz-adv-x="1095" d="M61 1014v71h134l380 -942h11l315 942h133v-71l-407 -1116q-93 -246 -328 -246h-102v112h102q59 0 106 38.5t68 95.5l31 82v18zM451 1147l184 328h174l-236 -328h-122z" />
<glyph unicode="&#xfe;" d="M174 -348v1782h143v-349h441q145 0 226 -75.5t81 -200.5v-533q0 -125 -81 -200.5t-226 -75.5h-441v-348h-143zM317 113h441q69 0 116.5 47t47.5 116v533q0 69 -47.5 116.5t-116.5 47.5h-441v-860z" />
<glyph unicode="&#xff;" horiz-adv-x="1095" d="M61 1014v71h134l380 -942h11l315 942h133v-71l-407 -1116q-93 -246 -328 -246h-102v112h102q59 0 106 38.5t68 95.5l31 82v18zM270 1210v205h144v-205h-144zM680 1210v205h143v-205h-143z" />
<glyph unicode="&#x152;" horiz-adv-x="1966" d="M164 307v819q0 141 89.5 224.5t248.5 83.5h1392v-72l-41 -41h-716v-533h583v-112h-583v-563h757v-113h-1392q-159 0 -248.5 83t-89.5 224zM307 307q0 -86 54.5 -140t140.5 -54h491v1208h-491q-86 0 -140.5 -54.5t-54.5 -140.5v-819z" />
<glyph unicode="&#x153;" horiz-adv-x="1935" d="M143 256v573q0 125 81.5 201t226.5 76h307q102 0 182 -68q30 -23 53 -65q23 40 54 65q80 68 182 68h256q145 0 226 -75.5t81 -201.5v-348h-727v-215q0 -62 48.5 -107.5t115.5 -45.5h522v-113h-522q-101 0 -170 55q-34 24 -55 58q-20 -38 -58 -68q-77 -65 -188 -65h-307 q-145 0 -226.5 75.5t-81.5 200.5zM287 256q0 -69 47.5 -116.5t116.5 -47.5h307q70 0 117 48.5t47 125.5v563q0 69 -47.5 116.5t-116.5 47.5h-307q-69 0 -116.5 -47.5t-47.5 -116.5v-573zM1065 594h584v235q0 69 -47.5 116.5t-116.5 47.5h-256q-69 0 -116.5 -47.5 t-47.5 -116.5v-235z" />
<glyph unicode="&#x178;" horiz-adv-x="1187" d="M41 1362v72h133l414 -809h12l414 809h133v-72l-481 -911v-451h-144v451zM317 1536v205h144v-205h-144zM727 1536v205h143v-205h-143z" />
<glyph unicode="&#x2c6;" horiz-adv-x="839" d="M82 1126l276 308h123l277 -308h-133l-205 215l-205 -215h-133z" />
<glyph unicode="&#x2dc;" horiz-adv-x="747" d="M82 1157v154q0 54 34.5 88.5t88.5 34.5h41q34 0 69 -27q20 -12 33 -25l92 -82l19 -16q20 -14 43 -14q41 0 41 51v102h123v-153q0 -54 -34.5 -88.5t-88.5 -34.5h-41q-39 0 -70 24q-15 9 -33 27l-92 82q-12 8 -18 14q-30 17 -43 17q-41 0 -41 -51v-103h-123z" />
<glyph unicode="&#x2000;" horiz-adv-x="962" />
<glyph unicode="&#x2001;" horiz-adv-x="1925" />
<glyph unicode="&#x2002;" horiz-adv-x="962" />
<glyph unicode="&#x2003;" horiz-adv-x="1925" />
<glyph unicode="&#x2004;" horiz-adv-x="641" />
<glyph unicode="&#x2005;" horiz-adv-x="481" />
<glyph unicode="&#x2006;" horiz-adv-x="320" />
<glyph unicode="&#x2007;" horiz-adv-x="320" />
<glyph unicode="&#x2008;" horiz-adv-x="240" />
<glyph unicode="&#x2009;" horiz-adv-x="385" />
<glyph unicode="&#x200a;" horiz-adv-x="106" />
<glyph unicode="&#x2010;" horiz-adv-x="993" d="M82 604v113h829v-113h-829z" />
<glyph unicode="&#x2011;" horiz-adv-x="993" d="M82 604v113h829v-113h-829z" />
<glyph unicode="&#x2012;" horiz-adv-x="993" d="M82 604v113h829v-113h-829z" />
<glyph unicode="&#x2013;" horiz-adv-x="1167" d="M82 563v113h1003v-113h-1003z" />
<glyph unicode="&#x2014;" horiz-adv-x="1710" d="M82 563v113h1546v-113h-1546z" />
<glyph unicode="&#x2018;" horiz-adv-x="409" d="M133 1004v143l72 287h71v-430h-143z" />
<glyph unicode="&#x2019;" horiz-adv-x="409" d="M133 1004v430h143v-144l-71 -286h-72z" />
<glyph unicode="&#x201a;" horiz-adv-x="409" d="M133 215h143v-143l-71 -287h-72v430z" />
<glyph unicode="&#x201c;" horiz-adv-x="727" d="M133 1004v143l72 287h71v-430h-143zM451 1004v143l71 287h72v-430h-143z" />
<glyph unicode="&#x201d;" horiz-adv-x="727" d="M133 1004v430h143v-144l-71 -286h-72zM451 1004v430h143v-144l-72 -286h-71z" />
<glyph unicode="&#x201e;" horiz-adv-x="747" d="M133 215h143v-143l-71 -287h-72v430zM471 215h143v-143l-71 -287h-72v430z" />
<glyph unicode="&#x2022;" horiz-adv-x="747" d="M266 594v92q0 23 19.5 42.5t42.5 19.5h92q23 0 42 -19.5t19 -42.5v-92q0 -23 -19 -42.5t-42 -19.5h-92q-23 0 -42.5 19.5t-19.5 42.5z" />
<glyph unicode="&#x2026;" horiz-adv-x="1269" d="M133 0v215h143v-215h-143zM563 0v215h144v-215h-144zM993 0v215h144v-215h-144z" />
<glyph unicode="&#x202f;" horiz-adv-x="385" />
<glyph unicode="&#x2039;" horiz-adv-x="645" d="M133 532l246 451h133v-72l-215 -379l215 -378v-72h-133z" />
<glyph unicode="&#x203a;" horiz-adv-x="645" d="M133 82v72l215 378l-215 379v72h133l246 -451l-246 -450h-133z" />
<glyph unicode="&#x205f;" horiz-adv-x="481" />
<glyph unicode="&#x20ac;" horiz-adv-x="1239" d="M61 502v112h175v205h-175v113h175v194q0 141 89 224.5t248 83.5h594v-72l-41 -41h-553q-86 0 -140 -54.5t-54 -140.5v-194h557v-113h-557v-205h557v-112h-557v-195q0 -86 54 -140t140 -54h594v-113h-594q-159 0 -248 83t-89 224v195h-175z" />
<glyph unicode="&#x2122;" horiz-adv-x="1740" d="M10 1331v103h645v-72l-30 -31h-226v-573h-133v573h-256zM717 758v61l82 615h174l194 -471h11l194 471h174l82 -615v-61h-123l-55 553h-10l-191 -471h-153l-191 471h-10l-55 -553h-123z" />
<glyph unicode="&#x25fc;" horiz-adv-x="1085" d="M0 0v1085h1085v-1085h-1085z" />
</font>
</defs>
</svg>
