<?xml version="1.0" encoding="utf-8"?>
<!-- Generator: Adobe Illustrator 16.0.1, SVG Export Plug-In . SVG Version: 6.00 Build 0)  -->
<!DOCTYPE svg PUBLIC "-//W3C//DTD SVG 1.1//EN" "http://www.w3.org/Graphics/SVG/1.1/DTD/svg11.dtd">
<svg version="1.1" id="Слой_1" xmlns="http://www.w3.org/2000/svg" xmlns:xlink="http://www.w3.org/1999/xlink" x="0px" y="0px"
	 width="238px" height="253.667px" viewBox="0 0 238 253.667" enable-background="new 0 0 238 253.667" xml:space="preserve">
<rect x="128.451" y="197.642" fill="#231F20" width="47.826" height="2.189"/>
<rect x="61.211" y="197.642" fill="#231F20" width="47.826" height="2.189"/>
<rect x="69.851" y="29.83" transform="matrix(-0.7071 -0.7071 0.7071 -0.7071 147.2995 218.9705)" fill="#FFFFFF" width="98.298" height="98.298"/>
<path fill="#231F20" d="M77.555,168.297l-0.918-2.625h-5.158l-0.918,2.625h-2.092l4.791-13.068h1.596l4.773,13.068H77.555z
	 M74.104,158.184l-2.056,5.801h4.057L74.104,158.184z"/>
<polygon fill="#231F20" points="81.554,168.298 81.554,155.229 83.536,155.229 83.536,161.433 88.419,155.229 90.861,155.229 
	85.831,161.396 91.32,168.298 88.805,168.298 83.536,161.47 83.536,168.298 "/>
<polygon fill="#231F20" points="97.374,157.009 97.374,168.298 95.392,168.298 95.392,157.009 91.793,157.009 91.793,155.229 
	100.972,155.229 100.972,157.009 "/>
<polygon fill="#231F20" points="103.227,168.298 103.227,155.229 111.598,155.229 111.598,157.009 105.208,157.009 105.208,160.826 
	110.643,160.826 110.643,162.589 105.208,162.589 105.208,166.518 111.598,166.518 111.598,168.298 "/>
<g>
	<defs>
		<rect id="SVGID_1_" width="238" height="253.667"/>
	</defs>
	<clipPath id="SVGID_2_">
		<use xlink:href="#SVGID_1_"  overflow="visible"/>
	</clipPath>
	<path clip-path="url(#SVGID_2_)" fill="#231F20" d="M119.249,163.157h-2.974v5.141h-1.983v-13.069h4.957
		c2.479,0,4.186,1.615,4.186,3.965S121.728,163.157,119.249,163.157 M119.12,157.009h-2.845v4.369h2.845
		c1.433,0,2.332-0.846,2.332-2.185C121.452,157.835,120.553,157.009,119.12,157.009"/>
	<path clip-path="url(#SVGID_2_)" fill="#231F20" d="M130.058,168.408c-1.358,0-2.533-0.496-3.433-1.396
		c-1.284-1.285-1.267-2.734-1.267-5.25c0-2.514-0.018-3.964,1.267-5.25c0.899-0.898,2.074-1.394,3.433-1.394
		c2.405,0,4.204,1.413,4.663,4.019h-2.02c-0.312-1.321-1.193-2.239-2.644-2.239c-0.771,0-1.468,0.295-1.927,0.789
		c-0.643,0.699-0.79,1.45-0.79,4.075s0.147,3.378,0.79,4.076c0.459,0.496,1.155,0.789,1.927,0.789c1.45,0,2.35-0.917,2.662-2.24
		h2.001C134.28,166.994,132.426,168.408,130.058,168.408"/>
	<polygon clip-path="url(#SVGID_2_)" fill="#231F20" points="137.416,168.298 137.416,155.229 139.398,155.229 139.398,161.433 
		144.281,155.229 146.723,155.229 141.692,161.396 147.181,168.298 144.666,168.298 139.398,161.47 139.398,168.298 	"/>
	<path clip-path="url(#SVGID_2_)" fill="#231F20" d="M157.383,161.945c0,2.149-0.018,3.781-1.266,5.067
		c-0.899,0.918-2.074,1.395-3.451,1.395c-1.358,0-2.533-0.477-3.433-1.395c-1.248-1.267-1.268-3.047-1.268-4.994v-0.862
		c0-2.146,0.167-3.543,1.268-4.644c0.899-0.9,2.093-1.395,3.433-1.395c1.358,0,2.552,0.494,3.451,1.395
		c1.01,1.028,1.266,2.478,1.266,4.332V161.945z M154.612,157.706c-0.514-0.532-1.193-0.809-1.946-0.809
		c-0.733,0-1.432,0.276-1.945,0.809c-0.734,0.771-0.753,2.056-0.753,3.727v1.12c0,1.34,0.056,2.569,0.753,3.266
		c0.532,0.533,1.193,0.809,1.945,0.809c0.771,0,1.45-0.275,1.946-0.809c0.771-0.807,0.771-1.964,0.771-4.184
		C155.383,159.651,155.347,158.477,154.612,157.706"/>
	<polygon clip-path="url(#SVGID_2_)" fill="#231F20" points="160.317,168.298 160.317,155.229 168.688,155.229 168.688,157.009 
		162.3,157.009 162.3,160.826 167.733,160.826 167.733,162.589 162.3,162.589 162.3,166.518 168.688,166.518 168.688,168.298 	"/>
	<polygon clip-path="url(#SVGID_2_)" fill="#231F20" points="72.188,186.544 72.188,177.807 69.178,184.176 67.708,184.176 
		64.644,177.807 64.644,186.544 62.661,186.544 62.661,173.475 64.625,173.475 68.442,181.606 72.207,173.475 74.188,173.475 
		74.188,186.544 	"/>
	<path clip-path="url(#SVGID_2_)" fill="#231F20" d="M85.107,186.543l-0.918-2.625h-5.158l-0.918,2.625h-2.092l4.791-13.068h1.596
		l4.773,13.068H85.107z M81.656,176.43L79.6,182.23h4.057L81.656,176.43z"/>
	<path clip-path="url(#SVGID_2_)" fill="#231F20" d="M93.089,186.654c-1.358,0-2.533-0.496-3.433-1.396
		c-1.285-1.285-1.266-2.734-1.266-5.25c0-2.514-0.019-3.964,1.266-5.25c0.9-0.898,2.075-1.394,3.433-1.394
		c2.405,0,4.204,1.413,4.663,4.019h-2.02c-0.312-1.321-1.193-2.239-2.643-2.239c-0.771,0-1.469,0.295-1.928,0.789
		c-0.642,0.699-0.789,1.45-0.789,4.075s0.147,3.378,0.789,4.076c0.459,0.496,1.157,0.789,1.928,0.789c1.45,0,2.35-0.917,2.662-2.24
		h2.001C97.311,185.24,95.457,186.654,93.089,186.654"/>
	<polygon clip-path="url(#SVGID_2_)" fill="#231F20" points="104.632,175.255 104.632,186.544 102.65,186.544 102.65,175.255 
		99.052,175.255 99.052,173.475 108.23,173.475 108.23,175.255 	"/>
	<polygon clip-path="url(#SVGID_2_)" fill="#231F20" points="110.485,186.544 110.485,173.475 118.856,173.475 118.856,175.255 
		112.467,175.255 112.467,179.072 117.901,179.072 117.901,180.835 112.467,180.835 112.467,184.764 118.856,184.764 
		118.856,186.544 	"/>
	<path clip-path="url(#SVGID_2_)" fill="#231F20" d="M126.509,181.403h-2.974v5.141h-1.982v-13.069h4.956
		c2.478,0,4.185,1.615,4.185,3.965S128.986,181.403,126.509,181.403 M126.38,175.255h-2.845v4.369h2.845
		c1.432,0,2.331-0.846,2.331-2.185C128.711,176.081,127.812,175.255,126.38,175.255"/>
	<path clip-path="url(#SVGID_2_)" fill="#231F20" d="M137.316,186.654c-1.358,0-2.533-0.496-3.433-1.396
		c-1.284-1.285-1.267-2.734-1.267-5.25c0-2.514-0.018-3.964,1.267-5.25c0.899-0.898,2.074-1.394,3.433-1.394
		c2.405,0,4.204,1.413,4.663,4.019h-2.02c-0.312-1.321-1.193-2.239-2.644-2.239c-0.771,0-1.468,0.295-1.927,0.789
		c-0.643,0.699-0.79,1.45-0.79,4.075s0.147,3.378,0.79,4.076c0.459,0.496,1.155,0.789,1.927,0.789c1.45,0,2.35-0.917,2.662-2.24
		h2.001C141.539,185.24,139.685,186.654,137.316,186.654"/>
	<polygon clip-path="url(#SVGID_2_)" fill="#231F20" points="148.86,175.255 148.86,186.544 146.878,186.544 146.878,175.255 
		143.28,175.255 143.28,173.475 152.458,173.475 152.458,175.255 	"/>
	<path clip-path="url(#SVGID_2_)" fill="#231F20" d="M160.001,186.544h-5.287v-13.07h5.085c2.386,0,3.946,1.396,3.946,3.525
		c0,1.321-0.605,2.274-1.762,2.844c1.284,0.606,1.964,1.542,1.964,3.03C163.947,185.131,162.442,186.544,160.001,186.544
		 M159.634,175.255h-2.938v3.744h2.938c1.321,0,2.129-0.698,2.129-1.872C161.763,175.952,160.955,175.255,159.634,175.255
		 M159.799,180.78h-3.104v3.982h3.104c1.321,0,2.146-0.771,2.146-2.001C161.945,181.551,161.12,180.78,159.799,180.78"/>
	<path clip-path="url(#SVGID_2_)" fill="#231F20" d="M175.819,180.191c0,2.149-0.018,3.781-1.266,5.067
		c-0.9,0.918-2.074,1.395-3.451,1.395c-1.358,0-2.533-0.477-3.433-1.395c-1.248-1.267-1.268-3.047-1.268-4.994v-0.862
		c0-2.146,0.167-3.543,1.268-4.644c0.899-0.9,2.093-1.395,3.433-1.395c1.358,0,2.551,0.494,3.451,1.395
		c1.01,1.028,1.266,2.478,1.266,4.332V180.191z M173.049,175.952c-0.514-0.532-1.193-0.809-1.946-0.809
		c-0.733,0-1.432,0.276-1.945,0.809c-0.734,0.771-0.754,2.056-0.754,3.727v1.12c0,1.34,0.057,2.569,0.754,3.266
		c0.532,0.533,1.193,0.809,1.945,0.809c0.771,0,1.45-0.275,1.946-0.809c0.771-0.807,0.771-1.964,0.771-4.184
		C173.819,177.897,173.783,176.723,173.049,175.952"/>
	<polygon clip-path="url(#SVGID_2_)" fill="#231F20" points="121.838,204.789 121.838,195.299 115.982,204.789 114.183,204.789 
		114.183,191.72 116.165,191.72 116.165,201.19 122.003,191.72 123.82,191.72 123.82,204.789 	"/>
	<path clip-path="url(#SVGID_2_)" fill="#231F20" d="M59.542,223.146c-1.358,0-2.533-0.496-3.433-1.396
		c-1.285-1.285-1.266-2.734-1.266-5.25c0-2.514-0.019-3.964,1.266-5.25c0.9-0.898,2.075-1.394,3.433-1.394
		c2.405,0,4.204,1.413,4.663,4.019h-2.02c-0.312-1.321-1.193-2.239-2.643-2.239c-0.771,0-1.469,0.294-1.928,0.789
		c-0.642,0.699-0.789,1.45-0.789,4.075s0.147,3.378,0.789,4.076c0.459,0.496,1.157,0.789,1.928,0.789c1.45,0,2.35-0.917,2.662-2.24
		h2.001C63.764,221.731,61.91,223.146,59.542,223.146"/>
	<polygon clip-path="url(#SVGID_2_)" fill="#231F20" points="75.711,225.972 75.711,223.034 66.845,223.034 66.845,209.966 
		68.827,209.966 68.827,221.255 74.114,221.255 74.114,209.966 76.096,209.966 76.096,221.255 77.638,221.255 77.638,225.972 	"/>
	<polygon clip-path="url(#SVGID_2_)" fill="#231F20" points="79.966,223.035 79.966,209.966 88.337,209.966 88.337,211.746 
		81.948,211.746 81.948,215.563 87.382,215.563 87.382,217.326 81.948,217.326 81.948,221.255 88.337,221.255 88.337,223.035 	"/>
	<polygon clip-path="url(#SVGID_2_)" fill="#231F20" points="98.301,223.035 98.301,217.326 93.014,217.326 93.014,223.035 
		91.032,223.035 91.032,209.966 93.014,209.966 93.014,215.563 98.301,215.563 98.301,209.966 100.302,209.966 100.302,223.035 	"/>
	<polygon clip-path="url(#SVGID_2_)" fill="#231F20" points="111.35,223.035 111.35,213.545 105.494,223.035 103.695,223.035 
		103.695,209.966 105.678,209.966 105.678,219.437 111.515,209.966 113.332,209.966 113.332,223.035 	"/>
	<path clip-path="url(#SVGID_2_)" fill="#231F20" d="M123.223,223.035v-5.121c-0.752,0.146-2.221,0.422-3.506,0.422
		c-1.725,0-3.396-0.9-3.396-3.212v-5.158h2.001v4.68c0,1.505,0.936,1.91,2,1.91c0.863,0,2.222-0.221,2.9-0.368v-6.222h1.982v13.069
		H123.223z"/>
	<polygon clip-path="url(#SVGID_2_)" fill="#231F20" points="128.616,223.035 128.616,209.966 136.986,209.966 136.986,211.746 
		130.599,211.746 130.599,215.563 136.032,215.563 136.032,217.326 130.599,217.326 130.599,221.255 136.986,221.255 
		136.986,223.035 	"/>
	<path clip-path="url(#SVGID_2_)" fill="#231F20" d="M143.904,223.146c-1.358,0-2.533-0.496-3.433-1.396
		c-1.284-1.285-1.267-2.734-1.267-5.25c0-2.514-0.018-3.964,1.267-5.25c0.899-0.898,2.074-1.394,3.433-1.394
		c2.405,0,4.204,1.413,4.663,4.019h-2.02c-0.312-1.321-1.193-2.239-2.644-2.239c-0.771,0-1.468,0.294-1.927,0.789
		c-0.643,0.699-0.79,1.45-0.79,4.075s0.147,3.378,0.79,4.076c0.459,0.496,1.155,0.789,1.927,0.789c1.45,0,2.35-0.917,2.662-2.24
		h2.001C148.127,221.731,146.272,223.146,143.904,223.146"/>
	<polygon clip-path="url(#SVGID_2_)" fill="#231F20" points="151.262,223.035 151.262,209.966 153.245,209.966 153.245,216.17 
		158.128,209.966 160.569,209.966 155.539,216.133 161.027,223.035 158.513,223.035 153.245,216.207 153.245,223.035 	"/>
	<path clip-path="url(#SVGID_2_)" fill="#231F20" d="M170.185,223.034l-0.918-2.625h-5.158l-0.918,2.625h-2.093l4.791-13.068h1.598
		l4.772,13.068H170.185z M166.733,212.921l-2.056,5.801h4.057L166.733,212.921z"/>
	<path clip-path="url(#SVGID_2_)" fill="#231F20" d="M175.578,223.035h-2.35l2.846-5.507c-1.542-0.532-2.516-1.836-2.516-3.598
		c0-2.424,1.689-3.966,4.167-3.966h4.975v13.07h-2.001v-5.14h-2.588L175.578,223.035z M180.699,211.728h-2.845
		c-1.432,0-2.313,0.825-2.313,2.185c0,1.339,0.882,2.203,2.313,2.203h2.845V211.728z"/>
	<path clip-path="url(#SVGID_2_)" fill="#231F20" d="M102.65,236.141h-2.974v5.141h-1.983v-13.069h4.957
		c2.478,0,4.185,1.615,4.185,3.965S105.128,236.141,102.65,236.141 M102.521,229.992h-2.845v4.369h2.845
		c1.432,0,2.332-0.846,2.332-2.185C104.854,230.818,103.954,229.992,102.521,229.992"/>
	<polygon clip-path="url(#SVGID_2_)" fill="#231F20" points="109.237,241.281 109.237,228.212 117.608,228.212 117.608,229.992 
		111.219,229.992 111.219,233.81 116.653,233.81 116.653,235.572 111.219,235.572 111.219,239.501 117.608,239.501 117.608,241.281 
			"/>
	<path clip-path="url(#SVGID_2_)" fill="#231F20" d="M126.783,241.281v-5.121c-0.753,0.146-2.222,0.422-3.506,0.422
		c-1.726,0-3.396-0.9-3.396-3.212v-5.158h2.001v4.68c0,1.505,0.937,1.91,2.001,1.91c0.862,0,2.221-0.221,2.9-0.368v-6.222h1.982
		v13.069H126.783z"/>
	<path clip-path="url(#SVGID_2_)" fill="#231F20" d="M137.188,241.28h-5.012v-13.068h1.982v5.14h3.029
		c2.496,0,4.148,1.615,4.148,3.965C141.337,239.665,139.666,241.28,137.188,241.28 M137.022,235.132h-2.863v4.369h2.863
		c1.45,0,2.313-0.826,2.313-2.185C139.336,235.977,138.473,235.132,137.022,235.132"/>
	<path clip-path="url(#SVGID_2_)" d="M105.689,87.507c-4.353,0.352-8.305,1.991-11.41,4.504c1.339-4.942,5.846-8.723,11.41-9.391
		V63.223l3.591,3.443c0.007,0.006,1.054,0.978,3.109,2.127c0.812-1.333,2.083-2.857,3.84-3.373c3.351-0.983,7.199,2.073,7.199,2.073
		s-0.893,2.615-2.751,4.338c2.14,0.456,4.617,0.768,7.416,0.793V52.363c0,0-6.833,6.551-20.64,6.551
		c-13.808,0-20.641-6.551-20.641-6.551v31.7c0,9.91,15.6,18.189,19.675,20.183c-0.53-1.451-0.798-2.9-0.798-4.348V87.507z
		 M91.478,67.492c0,0,3.847-3.055,7.198-2.072c3.351,0.984,4.936,5.635,4.936,5.635s-3.847,3.056-7.198,2.072
		C93.063,72.144,91.478,67.492,91.478,67.492"/>
	<path clip-path="url(#SVGID_2_)" d="M128.452,74.75c-13.808,0-20.641-6.552-20.641-6.552v31.7
		c0,11.399,20.641,20.641,20.641,20.641s20.639-9.242,20.639-20.641v-31.7C149.091,68.198,142.258,74.75,128.452,74.75
		 M112.476,83.328c0,0,3.848-3.056,7.199-2.073c3.352,0.984,4.937,5.635,4.937,5.635s-3.849,3.056-7.199,2.072
		C114.062,87.979,112.476,83.328,112.476,83.328 M128.452,108.908c-6.36,0-11.696-4.041-13.174-9.496
		c3.519,2.849,8.128,4.576,13.174,4.576c5.045,0,9.653-1.727,13.172-4.576C140.147,104.867,134.811,108.908,128.452,108.908
		 M139.49,88.962c-3.352,0.984-7.199-2.072-7.199-2.072s1.586-4.651,4.937-5.635c3.351-0.983,7.198,2.073,7.198,2.073
		S142.841,87.979,139.49,88.962"/>
</g>
</svg>
