<?xml version="1.0" encoding="utf-8"?>
<!-- Generator: Adobe Illustrator 16.0.1, SVG Export Plug-In . SVG Version: 6.00 Build 0)  -->
<!DOCTYPE svg PUBLIC "-//W3C//DTD SVG 1.1//EN" "http://www.w3.org/Graphics/SVG/1.1/DTD/svg11.dtd">
<svg version="1.1" id="Слой_1" xmlns="http://www.w3.org/2000/svg" xmlns:xlink="http://www.w3.org/1999/xlink" x="0px" y="0px"
	 width="1280px" height="720px" viewBox="0 0 1280 720" enable-background="new 0 0 1280 720" xml:space="preserve">
<g>
	<defs>
		<rect id="SVGID_1_" width="1280" height="720"/>
	</defs>
	<clipPath id="SVGID_2_">
		<use xlink:href="#SVGID_1_"  overflow="visible"/>
	</clipPath>
	<rect clip-path="url(#SVGID_2_)" fill="#D0D2D3" width="1280" height="720"/>
	<g clip-path="url(#SVGID_2_)">
		<defs>
			<rect id="SVGID_3_" width="1280" height="720"/>
		</defs>
		<clipPath id="SVGID_4_">
			<use xlink:href="#SVGID_3_"  overflow="visible"/>
		</clipPath>
		<g opacity="0.15" clip-path="url(#SVGID_4_)">
			<g>
				<defs>
					<rect id="SVGID_5_" x="-3" width="2313.42" height="725.54"/>
				</defs>
				<clipPath id="SVGID_6_">
					<use xlink:href="#SVGID_5_"  overflow="visible"/>
				</clipPath>
				<path clip-path="url(#SVGID_6_)" fill="#FFFFFF" d="M139.48,580.84L-1.507,721.827l2.293,2.294l70.659-70.658l69.519,69.516
					v0.401h0.4l0.075,0.074l0.074-0.074h2.695v-66.183l76.358-76.357h66.119l71.372,71.371l-68.95,68.949l2.294,2.294l68.949-68.949
					l68.939,68.938v0.139h0.139l1.958,1.958l2.294-2.294l-1.147-1.146v-67.123h71.372v64.551h3.244v-64.551h70.561v67.551
					l-0.528,0.528l2.294,2.293l71.44-71.441l69.606,69.605l0.966-0.966v1.035h3.244V506.67l34.88-34.88l250.862,248.889l1.142-1.151
					h1.622v-140.45l70.562-70.561l69.413,69.414l2.293-2.293l-69.413-69.414l69.413-69.414l-2.293-2.294L1013.238,574.49V291.158
					l72.043-72.043h70.701v-3.244h-67.456l68.603-68.603l-1.146-1.147v-1.622h-142.744V3.783h-3.244v138.422L867.789,0l-1.146,1.146
					L865.496,0L722.277,143.219L654.528,75.47l69.121-69.121l-2.294-2.293l-69.121,69.121l-69.12-69.121l-1.147,1.147h-1.622
					v139.296H434.333L290.932,2.226l-1.142,1.152h-1.622v141.121h-144.65l-70.47-70.47l69.504-69.504l-2.293-2.294L70.753,71.734
					l-71.46-71.46L-3,2.568l141.93,141.93H3.492v3.244h64.663v70.662H3.492v3.244h137.472V430.53L3.5,293.068l-2.293,2.293
					l138.881,138.882H0.732v3.244h140.231v140.107H0.732v3.245H139.48z M253.625,543.192l-35.955-35.955l67.456-67.456v71.91
					L253.625,543.192z M285.125,516.278v58.414l-29.207-29.207L285.125,516.278z M436.448,578.406l141.069-141.069l105.979,105.98
					l-35.088,35.089H436.448z M718.587,581.65l-67.671,67.669L616.5,614.902l33.252-33.252H718.587z M652.996,578.406l32.795-32.795
					l32.796,32.795H652.996z M583.248,581.65h61.917l-30.958,30.959L583.248,581.65z M869.971,576.711V436.474h140.023v140.31
					H870.045L869.971,576.711z M1007.7,580.028l-66.928,66.927l-67.458-66.927H1007.7z M866.727,573.491l-68.179-67.642
					l68.179-68.179V573.491z M871.166,433.229l68.268-68.267l68.267,68.267H871.166z M866.579,433.229h-68.405l104.763-104.764
					l34.204,34.204L866.579,433.229z M291.412,7.271l67.829,67.296l-67.829,67.828V7.271z M360.872,216.104l-68.361-68.361h136.979
					L360.872,216.104z M431.918,149.903V287.15l-68.752-68.752L431.918,149.903z M435.163,288.211v-138.32l70.455,69.902
					l-70.528,70.528l-2.11-2.11H435.163z M507.92,222.078l33.541,33.277l-70.669,70.67l-33.409-33.409L507.92,222.078z
					 M941.057,219.115h66.644l-66.644,66.645V219.115z M867.923,288.865L726.802,147.743h211.01v141.122H867.923z M934.707,292.108
					l-31.771,31.77l-31.771-31.77H934.707z M652.63,217.455l68.251-68.251v68.694H652.63V217.455z M720.881,286.57l-65.429-65.428
					h65.429V286.57z M649.385,357.859l-68.851-68.309l68.851-68.852V357.859z M648.608,361.658l-71.091,71.092l-70.369-70.369
					v-68.125l36.616-36.616L648.608,361.658z M546.058,255.346l103.327-103.327v64.093l-71.154,71.154L546.058,255.346z
					 M653.66,147.743h64.094l-65.124,65.124v-64.092L653.66,147.743z M863.336,288.865H725.99l68.197-68.198l-2.294-2.293
					l-67.77,67.769V149.653L863.336,288.865z M719.994,290.272l-67.364,67.365V222.907L719.994,290.272z M720.746,433.229H581.625
					l69.286-69.286L720.746,433.229z M573.411,433.229h-66.262v-66.262L573.411,433.229z M434.893,366.512l66.718,66.718H368.174
					L434.893,366.512z M437.187,364.218l33.606-33.606l33.112,33.112v67.212L437.187,364.218z M473.085,328.317l30.819-30.818
					v61.637L473.085,328.317z M510.214,219.784l72.041-72.041h66.818L543.755,253.061L510.214,219.784z M656.904,144.499
					l31.033-31.033l31.032,31.033H656.904z M725.584,144.499L865.021,5.063v139.436H725.584z M868.265,5.063l68.064,68.064
					l-68.064,68.065V5.063z M938.622,75.42l69.078,69.078H869.545L938.622,75.42z M1009.994,215.871h-68.938v-68.128h68.938V215.871
					z M1013.238,150.037l65.834,65.834h-65.834V150.037z M1009.994,221.409v67.456h-67.456L1009.994,221.409z M1007.7,292.108
					l-68.267,68.268l-34.203-34.205l34.064-34.063H1007.7z M793.586,433.229h-68.233l-72.148-71.58l69.906-69.906v0.365h143.469
					l34.064,34.063L793.586,433.229z M790.342,436.474l-30.738,30.738l-30.982-30.738H790.342z M721.488,436.474v68.853
					l-35.697,35.697l-104.55-104.55H721.488z M327.291,474.113l37.64-37.64h208.863L431.861,578.406h-0.279L327.291,474.113z
					 M324.997,471.82L217.098,363.922l143.771-143.234l107.63,107.63L324.997,471.82z M282.833,437.487l-67.456,67.456
					l-67.456-67.456H282.833z M146.512,434.243l68.288-68.032l68.033,68.032H146.512z M213.083,507.237l-68.875,68.875V438.361
					L213.083,507.237z M144.208,431.96V295.619l68.298,68.297L144.208,431.96z M147.392,294.215h135.077l-67.665,67.413
					L147.392,294.215z M322.703,474.113l-34.333,34.333v-68.665L322.703,474.113z M251.332,545.485l-32.109,32.109h-71.91
					l68.064-68.064L251.332,545.485z M71.398,147.743h216.525l70.65,70.651l-72.849,72.577H144.208v-72.059h-1.622v-0.507H71.398
					V147.743z M429.727,144.499h-135.83l67.647-67.647L429.727,144.499z M437.603,147.743h140.065L507.912,217.5L437.603,147.743z
					 M649.941,75.47l-66.352,66.352V9.118L649.941,75.47z M652.234,77.764l33.409,33.409l-33.326,33.326H585.5L652.234,77.764z
					 M1083.938,215.871h-0.279l-68.127-68.128h136.534L1083.938,215.871z M1013.238,286.57v-67.456h67.456L1013.238,286.57z
					 M1009.994,294.401v136.534l-68.267-68.267L1009.994,294.401z M1009.994,582.321v133.313l-66.919-66.394L1009.994,582.321z
					 M761.906,469.496l33.023-33.022h68.406l-67.092,67.091L761.906,469.496z M724.732,502.082v-64.897l32.577,32.321
					L724.732,502.082z M721.488,509.914v66.807l-33.402-33.403L721.488,509.914z M653.211,651.613l68.277-68.277v136.556
					L653.211,651.613z M580.954,719.283v-135.34l67.669,67.67L580.954,719.283z M507.148,581.65h70.561v70.082h-70.561V581.65z
					 M432.533,651.732v-69.411l0.672-0.671h70.7v70.082H432.533z M362.644,652.211l66.645-66.646v133.29L362.644,652.211z
					 M360.35,649.918l-71.98-71.98v-64.903l36.627-36.627l104.292,104.292v0.279L360.35,649.918z M223.81,577.595l29.815-29.815
					l29.816,29.815H223.81z M144.208,652.609v-71.77h71.77L144.208,652.609z M73.738,651.169l67.225-67.226v134.448L73.738,651.169z
					"/>
				<path clip-path="url(#SVGID_6_)" fill="#FFFFFF" d="M2306.684,580.84v-3.245h-140.23V437.487h140.23v-3.244h-139.357
					l138.883-138.881l-2.295-2.293L2166.453,430.53V221.648h137.472v-3.244h-64.664v-70.662h64.664v-3.244h-135.439l141.931-141.93
					l-2.295-2.294l-71.459,71.46L2167.157,2.23l-2.294,2.294l69.505,69.504l-70.47,70.47h-144.65V3.377h-1.621l-1.143-1.152
					l-143.4,142.273H1727.07V5.202h-1.622l-1.146-1.146l-69.121,69.12l-69.12-69.12l-2.294,2.293l69.121,69.121l-67.749,67.749
					L1441.92,0l-1.147,1.147L1439.626,0l-142.204,142.205V3.783h-3.245v140.716h-142.743v1.622l-1.146,1.147l68.603,68.603h-67.456
					v3.244h70.7l72.043,72.043V574.49l-139.974-139.975l-2.295,2.294l69.414,69.414l-69.414,69.413l2.295,2.294l69.413-69.414
					l70.561,70.561v140.45h1.622l1.143,1.151l250.861-248.889l34.88,34.88v216.913h3.244v-1.036l0.967,0.966l69.604-69.605
					l71.442,71.441l2.293-2.294l-0.526-0.527v-67.551h70.561v64.551h3.244v-64.551h71.371V722.1l-1.146,1.147l2.293,2.294
					l1.958-1.958h0.141v-0.141l68.938-68.938l68.95,68.95l2.293-2.295l-68.949-68.949l71.372-71.371h66.119l76.358,76.357v66.183
					h2.693l0.075,0.075l0.074-0.075h0.401v-0.401l69.518-69.516l70.659,70.657l2.294-2.293L2167.936,580.84H2306.684z
					 M2022.289,511.69v-71.909l67.457,67.455l-35.955,35.955L2022.289,511.69z M2051.496,545.485l-29.207,29.207v-58.414
					L2051.496,545.485z M1659.007,578.405l-35.089-35.088l105.98-105.98l141.069,141.068H1659.007z M1657.664,581.65l33.252,33.252
					l-34.418,34.417l-67.668-67.669H1657.664z M1588.83,578.405l32.795-32.795l32.794,32.795H1588.83z M1693.21,612.609
					l-30.959-30.959h61.918L1693.21,612.609z M1437.371,576.783h-139.949v-140.31h140.023v140.237L1437.371,576.783z
					 M1434.102,580.027l-67.459,66.929l-66.928-66.929H1434.102z M1440.689,437.671l68.18,68.179l-68.18,67.642V437.671z
					 M1299.715,433.229l68.267-68.267l68.268,68.267H1299.715z M1370.275,362.669l34.203-34.203l104.764,104.764h-68.405
					L1370.275,362.669z M2016.005,142.396l-67.83-67.828l67.83-67.296V142.396z M1877.927,147.743h136.978l-68.36,68.361
					L1877.927,147.743z M1944.25,218.398l-68.752,68.751V149.904L1944.25,218.398z M1874.437,288.211l-2.11,2.11l-70.528-70.529
					l70.456-69.901v138.32H1874.437z M1870.032,292.615l-33.409,33.41l-70.668-70.67l33.539-33.277L1870.032,292.615z
					 M1366.359,285.76l-66.645-66.645h66.645V285.76z M1369.604,288.864V147.743h211.011l-141.122,141.121H1369.604z
					 M1436.249,292.108l-31.771,31.77l-31.77-31.77H1436.249z M1654.787,217.897h-68.252v-68.694l68.252,68.251V217.897z
					 M1586.535,221.142h65.429l-65.429,65.429V221.142z M1658.03,220.699l68.853,68.851l-68.853,68.31V220.699z M1763.651,257.64
					l36.616,36.615v68.126l-70.369,70.369l-71.091-71.092L1763.651,257.64z M1729.185,287.266l-71.154-71.155v-64.092
					l103.327,103.327L1729.185,287.266z M1654.787,148.773v64.093l-65.125-65.124h64.094L1654.787,148.773z M1583.292,149.652
					v136.49l-67.771-67.77l-2.294,2.294l68.198,68.197H1444.08L1583.292,149.652z M1654.787,222.907v134.731l-67.366-67.365
					L1654.787,222.907z M1656.505,363.943l69.286,69.286H1586.67L1656.505,363.943z M1800.268,366.968v66.262h-66.262
					L1800.268,366.968z M1939.241,433.229h-133.437l66.719-66.718L1939.241,433.229z M1803.512,430.936v-67.212l33.111-33.112
					l33.606,33.606L1803.512,430.936z M1803.512,359.137V297.5l30.818,30.818L1803.512,359.137z M1763.66,253.061l-105.317-105.318
					h66.817l72.041,72.041L1763.66,253.061z M1588.445,144.499l31.033-31.033l31.032,31.033H1588.445z M1442.395,144.499V5.063
					l139.436,139.436H1442.395z M1439.15,141.19l-68.063-68.064l68.063-68.064V141.19z M1437.871,144.499h-138.156l69.078-69.078
					L1437.871,144.499z M1297.422,147.743h68.938v68.128h-68.938V147.743z M1294.177,215.871h-65.833l65.833-65.834V215.871z
					 M1364.877,288.864h-67.455v-67.455L1364.877,288.864z M1368.121,292.108l34.063,34.063l-34.203,34.205l-68.267-68.268H1368.121
					z M1406.772,326.171l34.064-34.063h143.468v-0.365l69.906,69.906l-72.147,71.58h-68.233L1406.772,326.171z M1578.794,436.474
					l-30.982,30.738l-30.738-30.738H1578.794z M1726.174,436.474l-104.549,104.55l-35.698-35.697v-68.853H1726.174z
					 M1875.834,578.405h-0.279l-141.932-141.932h208.862l37.641,37.64L1875.834,578.405z M1838.918,328.317l107.63-107.63
					l143.771,143.234L1982.42,471.82L1838.918,328.317z M2159.496,437.487l-67.457,67.456l-67.455-67.456H2159.496z
					 M2024.584,434.243l68.032-68.032l68.288,68.032H2024.584z M2163.209,438.361v137.751l-68.875-68.876L2163.209,438.361z
					 M2094.91,363.917l68.299-68.298V431.96L2094.91,363.917z M2092.612,361.628l-67.665-67.413h135.077L2092.612,361.628z
					 M2019.046,439.781v68.665l-34.333-34.333L2019.046,439.781z M2092.039,509.53l68.064,68.064h-71.91l-32.109-32.109
					L2092.039,509.53z M2236.017,218.405h-71.187v0.507h-1.621v72.059h-141.518l-72.85-72.577l70.65-70.651h216.524V218.405z
					 M1945.873,76.852l67.646,67.647h-135.83L1945.873,76.852z M1799.505,217.5l-69.757-69.757h140.065L1799.505,217.5z
					 M1723.826,9.118v132.704l-66.352-66.352L1723.826,9.118z M1721.917,144.499h-66.818l-33.326-33.326l33.408-33.409
					L1721.917,144.499z M1155.35,147.743h136.534l-68.128,68.128h-0.279L1155.35,147.743z M1226.721,219.115h67.456v67.456
					L1226.721,219.115z M1365.688,362.669l-68.266,68.267V294.401L1365.688,362.669z M1364.34,649.24l-66.918,66.394V582.321
					L1364.34,649.24z M1511.172,503.564l-67.092-67.091h68.406l33.023,33.023L1511.172,503.564z M1550.105,469.506l32.577-32.321
					v64.898L1550.105,469.506z M1619.33,543.317l-33.403,33.403v-66.806L1619.33,543.317z M1585.927,719.892V583.336l68.278,68.277
					L1585.927,719.892z M1658.793,651.613l67.67-67.67v135.34L1658.793,651.613z M1729.707,581.65h70.561v70.082h-70.561V581.65z
					 M1803.512,651.732V581.65h70.7l0.671,0.671v69.411H1803.512z M1878.128,718.855v-133.29l66.644,66.646L1878.128,718.855z
					 M1878.128,580.979v-0.279l104.292-104.292l36.626,36.627v64.903l-71.98,71.979L1878.128,580.979z M2023.976,577.595
					l29.815-29.815l29.815,29.815H2023.976z M2091.438,580.84h71.771v71.77L2091.438,580.84z M2166.453,718.392V583.943
					l67.225,67.226L2166.453,718.392z"/>
			</g>
		</g>
	</g>
</g>
</svg>
