<?xml version="1.0" encoding="utf-8"?>
<!-- Generator: Adobe Illustrator 16.0.1, SVG Export Plug-In . SVG Version: 6.00 Build 0)  -->
<!DOCTYPE svg PUBLIC "-//W3C//DTD SVG 1.1//EN" "http://www.w3.org/Graphics/SVG/1.1/DTD/svg11.dtd">
<svg version="1.1" id="Слой_1" xmlns="http://www.w3.org/2000/svg" xmlns:xlink="http://www.w3.org/1999/xlink" x="0px" y="0px"
	 width="180px" height="61.739px" viewBox="0 0 180 61.739" enable-background="new 0 0 180 61.739" xml:space="preserve">
<rect x="2.794" y="3.37" fill="#33B88D" width="174.412" height="55"/>
<rect x="2.794" y="51.62" fill="#33B88D" width="174.412" height="6.75"/>
<g>
	<defs>
		<rect id="SVGID_1_" width="180" height="61.739"/>
	</defs>
	<clipPath id="SVGID_2_">
		<use xlink:href="#SVGID_1_"  overflow="visible"/>
	</clipPath>
	<path clip-path="url(#SVGID_2_)" fill="#231F20" d="M21.951,43.279c0,0.39-0.312,0.7-0.701,0.7h-1.987
		c-0.429,0-0.742-0.311-0.742-0.7V17.401c0-0.39,0.313-0.702,0.742-0.702h1.987c0.389,0,0.701,0.312,0.701,0.702v9.392
		c0,0.39,0.156,0.429,0.351,0.078l5.612-9.548c0.194-0.351,0.701-0.624,1.091-0.624h2.533c0.39,0,0.546,0.273,0.351,0.624
		L24.64,29.716c-0.195,0.312-0.195,0.857,0,1.208l7.288,12.432c0.195,0.352,0.039,0.623-0.351,0.623h-2.572
		c-0.39,0-0.858-0.271-1.052-0.623l-5.651-9.625c-0.195-0.313-0.351-0.273-0.351,0.115V43.279z"/>
	<path clip-path="url(#SVGID_2_)" fill="#231F20" d="M50.749,39.577c0,0.389-0.235,0.935-0.546,1.208l-2.962,2.688
		c-0.312,0.273-0.741,0.507-0.974,0.507h-1.131h-4.832c-0.389,0-0.974-0.233-1.247-0.507l-3.001-2.688
		c-0.272-0.273-0.507-0.819-0.507-1.208V21.065c0-0.39,0.235-0.935,0.507-1.208l3.001-2.689c0.273-0.273,0.858-0.468,1.247-0.468
		h5.651c0.428,0,0.974,0.195,1.286,0.468l2.962,2.689c0.311,0.273,0.546,0.818,0.546,1.208V39.577z M38.979,37.978
		c0,0.39,0.234,0.936,0.507,1.209l0.779,0.855c0.273,0.274,0.818,0.507,1.208,0.507h3.313c0.389,0,0.935-0.232,1.208-0.507
		l0.818-0.817c0.273-0.272,0.507-0.818,0.507-1.208V22.663c0-0.39-0.234-0.935-0.507-1.208l-0.818-0.819
		c-0.273-0.311-0.78-0.506-1.169-0.506h-3.313c-0.389,0-0.935,0.195-1.208,0.467l-0.818,0.858c-0.273,0.273-0.507,0.818-0.507,1.208
		V37.978z"/>
	<path clip-path="url(#SVGID_2_)" fill="#231F20" d="M59.436,43.279c0,0.39-0.312,0.7-0.701,0.7h-2.027
		c-0.389,0-0.702-0.311-0.702-0.7V17.401c0-0.39,0.313-0.702,0.702-0.702h2.027c0.389,0,0.701,0.312,0.701,0.702v10.561
		c0,0.39,0.312,0.702,0.701,0.702h5.262c0.39,0,0.701-0.312,0.701-0.702V17.401c0-0.39,0.312-0.702,0.701-0.702h2.027
		c0.39,0,0.702,0.312,0.702,0.702v25.877c0,0.39-0.312,0.7-0.702,0.7H66.8c-0.389,0-0.701-0.311-0.701-0.7V32.677
		c0-0.35-0.311-0.662-0.701-0.662h-5.262c-0.389,0-0.701,0.313-0.701,0.662V43.279z"/>
	<path clip-path="url(#SVGID_2_)" fill="#231F20" d="M73.189,17.401c0-0.39,0.312-0.702,0.701-0.702h12.315
		c0.389,0,0.702,0.312,0.702,0.702v1.987c0,0.39-0.313,0.702-0.702,0.702h-3.742c-0.389,0-0.701,0.311-0.701,0.702v22.486
		c0,0.39-0.311,0.701-0.701,0.701h-2.026c-0.39,0-0.702-0.312-0.702-0.701V20.792c0-0.391-0.312-0.702-0.702-0.702h-3.741
		c-0.389,0-0.701-0.312-0.701-0.702V17.401z"/>
	<path clip-path="url(#SVGID_2_)" fill="#231F20" d="M104.44,43.278c0.079,0.391-0.193,0.702-0.584,0.702h-2.065
		c-0.39,0-0.74-0.312-0.818-0.702l-1.441-8.846c-0.078-0.39-0.429-0.701-0.818-0.701h-4.131c-0.391,0-0.779,0.312-0.818,0.701
		l-1.481,8.846c-0.039,0.391-0.429,0.702-0.818,0.702h-2.065c-0.39,0-0.624-0.312-0.584-0.702l4.286-25.876
		c0.039-0.39,0.429-0.702,0.818-0.702h5.456c0.39,0,0.74,0.312,0.818,0.702L104.44,43.278z M98.128,30.34
		c0.39,0,0.663-0.312,0.624-0.702l-1.481-8.846c-0.039-0.351-0.351-0.702-0.623-0.702c-0.312,0-0.585,0.351-0.663,0.702
		l-1.441,8.846c-0.078,0.39,0.194,0.702,0.584,0.702H98.128z"/>
	<path clip-path="url(#SVGID_2_)" fill="#231F20" d="M111.647,43.279c0,0.39-0.312,0.7-0.701,0.7h-1.986
		c-0.43,0-0.742-0.311-0.742-0.7V17.401c0-0.39,0.313-0.702,0.742-0.702h1.986c0.39,0,0.701,0.312,0.701,0.702v9.392
		c0,0.39,0.156,0.429,0.351,0.078l5.612-9.548c0.194-0.351,0.701-0.624,1.091-0.624h2.533c0.39,0,0.546,0.273,0.352,0.624
		l-7.249,12.393c-0.195,0.312-0.195,0.857,0,1.208l7.287,12.432c0.195,0.352,0.039,0.623-0.351,0.623h-2.572
		c-0.39,0-0.857-0.271-1.052-0.623l-5.651-9.625c-0.194-0.313-0.351-0.273-0.351,0.115V43.279z"/>
	<path clip-path="url(#SVGID_2_)" fill="#231F20" d="M123.414,17.401c0-0.39,0.313-0.702,0.701-0.702h12.314
		c0.39,0,0.702,0.312,0.702,0.702v1.987c0,0.39-0.313,0.702-0.702,0.702h-3.741c-0.39,0-0.701,0.311-0.701,0.702v22.486
		c0,0.39-0.312,0.701-0.701,0.701h-2.026c-0.39,0-0.702-0.312-0.702-0.701V20.792c0-0.391-0.312-0.702-0.701-0.702h-3.741
		c-0.389,0-0.701-0.312-0.701-0.702V17.401z"/>
	<path clip-path="url(#SVGID_2_)" fill="#231F20" d="M141.572,43.98c-0.429,0-0.741-0.272-0.741-0.701V17.401
		c0-0.39,0.313-0.702,0.702-0.702h2.026c0.39,0,0.701,0.312,0.701,0.702v10.522h5.963c0.39,0,0.936,0.234,1.208,0.507l2.688,2.923
		c0.273,0.272,0.507,0.818,0.507,1.208v7.171c0,0.663-0.233,0.817-0.546,1.13l-2.961,2.649c-0.313,0.273-0.857,0.469-1.247,0.469
		H141.572z M144.962,40.667h3.703c0.39,0,0.935-0.234,1.208-0.507l0.818-0.819c0.272-0.271,0.506-0.778,0.506-1.169v-4.441
		c0-0.391-0.233-0.936-0.506-1.17l-0.856-0.818c-0.274-0.273-0.819-0.467-1.208-0.467h-3.665c-0.39,0-0.701,0.312-0.701,0.663v8.067
		C144.261,40.356,144.572,40.667,144.962,40.667 M159.147,17.401c0-0.39,0.313-0.702,0.702-0.702h2.027c0.389,0,0.7,0.312,0.7,0.702
		v25.877c0,0.39-0.312,0.701-0.7,0.701h-2.027c-0.39,0-0.702-0.312-0.702-0.701V17.401z"/>
</g>
</svg>
