<?xml version="1.0" encoding="utf-8"?>
<!-- Generator: Adobe Illustrator 16.0.1, SVG Export Plug-In . SVG Version: 6.00 Build 0)  -->
<!DOCTYPE svg PUBLIC "-//W3C//DTD SVG 1.1//EN" "http://www.w3.org/Graphics/SVG/1.1/DTD/svg11.dtd">
<svg version="1.1" id="Слой_1" xmlns="http://www.w3.org/2000/svg" xmlns:xlink="http://www.w3.org/1999/xlink" x="0px" y="0px"
	 width="238px" height="205.426px" viewBox="0 0 238 205.426" enable-background="new 0 0 238 205.426" xml:space="preserve">
<rect x="69.851" y="33.303" transform="matrix(-0.7071 -0.7071 0.7071 -0.7071 144.8431 224.8996)" fill="#33B88D" width="98.298" height="98.298"/>
<polygon fill="#231F20" points="88.326,171.771 88.326,158.701 90.308,158.701 90.308,169.99 94.732,169.99 94.732,158.701 
	96.733,158.701 96.733,169.99 101.139,169.99 101.139,158.701 103.139,158.701 103.139,171.771 "/>
<polygon fill="#231F20" points="106.585,171.771 106.585,158.701 108.567,158.701 108.567,164.905 113.45,158.701 115.893,158.701 
	110.862,164.868 116.352,171.771 113.836,171.771 108.567,164.942 108.567,171.771 "/>
<g>
	<defs>
		<rect id="SVGID_1_" width="238" height="205.426"/>
	</defs>
	<clipPath id="SVGID_2_">
		<use xlink:href="#SVGID_1_"  overflow="visible"/>
	</clipPath>
	<path clip-path="url(#SVGID_2_)" fill="#231F20" d="M126.553,165.419c0,2.148-0.017,3.78-1.266,5.066
		c-0.9,0.918-2.074,1.396-3.45,1.396c-1.358,0-2.534-0.478-3.433-1.396c-1.248-1.267-1.267-3.047-1.267-4.994v-0.861
		c0-2.147,0.166-3.543,1.267-4.645c0.898-0.899,2.092-1.395,3.433-1.395c1.358,0,2.55,0.495,3.45,1.395
		c1.01,1.028,1.266,2.479,1.266,4.332V165.419z M123.782,161.179c-0.514-0.532-1.193-0.809-1.945-0.809
		c-0.734,0-1.433,0.276-1.945,0.809c-0.734,0.771-0.753,2.056-0.753,3.727v1.12c0,1.34,0.055,2.569,0.753,3.267
		c0.531,0.532,1.192,0.808,1.945,0.808c0.771,0,1.45-0.275,1.945-0.808c0.771-0.808,0.771-1.965,0.771-4.185
		C124.553,163.125,124.517,161.949,123.782,161.179"/>
	<path clip-path="url(#SVGID_2_)" fill="#231F20" d="M136.206,171.771v-11.289h-3.763v4.13c0,5.488-1.321,7.159-3.946,7.159h-0.826
		v-1.78h0.349c1.45,0,2.496-0.918,2.496-5.655v-5.634h7.674v13.069H136.206z"/>
	<path clip-path="url(#SVGID_2_)" fill="#231F20" d="M149.146,171.771l-0.918-2.625h-5.158l-0.918,2.625h-2.093l4.791-13.069h1.597
		l4.773,13.069H149.146z M145.694,161.656l-2.056,5.801h4.057L145.694,161.656z"/>
	<path clip-path="url(#SVGID_2_)" fill="#231F20" d="M84.722,176.947v11.289h1.542v4.718h-1.946v-2.938h-7.93v2.938h-1.927v-4.718
		h1.138c1.138-1.763,1.597-4.332,1.597-7.435v-3.854H84.722z M79.105,181.646c0,2.496-0.312,4.754-1.285,6.59h4.919v-9.509h-3.634
		V181.646z"/>
	<polygon clip-path="url(#SVGID_2_)" fill="#231F20" points="96.247,190.017 96.247,180.526 90.391,190.017 88.592,190.017 
		88.592,176.947 90.575,176.947 90.575,186.419 96.412,176.947 98.229,176.947 98.229,190.017 	"/>
	<path clip-path="url(#SVGID_2_)" fill="#231F20" d="M110.616,176.947v11.289h1.542v4.718h-1.946v-2.938h-7.93v2.938h-1.927v-4.718
		h1.138c1.138-1.763,1.597-4.332,1.597-7.435v-3.854H110.616z M104.999,181.646c0,2.496-0.312,4.754-1.285,6.59h4.919v-9.509h-3.634
		V181.646z"/>
	<polygon clip-path="url(#SVGID_2_)" fill="#231F20" points="112.706,190.017 118.046,183.114 113.164,176.947 115.587,176.947 
		120.231,183.151 120.231,176.947 122.232,176.947 122.232,183.151 126.857,176.947 129.263,176.947 124.416,183.114 
		129.74,190.017 127.262,190.017 122.232,183.188 122.232,190.017 120.231,190.017 120.231,183.188 115.202,190.017 	"/>
	<polygon clip-path="url(#SVGID_2_)" fill="#231F20" points="131.369,190.017 131.369,176.947 139.739,176.947 139.739,178.728 
		133.352,178.728 133.352,182.546 138.785,182.546 138.785,184.308 133.352,184.308 133.352,188.236 139.739,188.236 
		139.739,190.017 	"/>
	<polygon clip-path="url(#SVGID_2_)" fill="#231F20" points="142.435,190.017 142.435,176.947 150.806,176.947 150.806,178.728 
		144.417,178.728 144.417,182.546 149.851,182.546 149.851,184.308 144.417,184.308 144.417,188.236 150.806,188.236 
		150.806,190.017 	"/>
	<path clip-path="url(#SVGID_2_)" fill="#231F20" d="M158.787,190.017h-5.286v-13.069h5.085c2.386,0,3.946,1.395,3.946,3.524
		c0,1.321-0.605,2.275-1.763,2.844c1.285,0.606,1.965,1.542,1.965,3.03C162.734,188.604,161.229,190.017,158.787,190.017
		 M158.42,178.728h-2.938v3.744h2.938c1.322,0,2.13-0.698,2.13-1.872C160.55,179.425,159.742,178.728,158.42,178.728
		 M158.586,184.253h-3.104v3.982h3.104c1.321,0,2.146-0.771,2.146-2.001C160.732,185.023,159.907,184.253,158.586,184.253"/>
	<path clip-path="url(#SVGID_2_)" fill="#FFFFFF" d="M109.15,76.65c0.663-0.584,1.331-1.159,1.994-1.733
		c0.099,4.844,0.433,9.798,0.449,10.002l10.622,0.068c-0.172-1.853-0.537-10.3-0.397-14.575c0.132-0.12,0.263-0.255,0.388-0.412
		c3.487-4.52,5.993-9.652,7.579-15.134c0.997-3.439-4.218-5.449-5.22-1.988c-1.18,4.066-2.845,7.846-5.127,11.343
		c-0.708-0.453-1.539-0.751-2.442-0.825c-2.396-0.192-4.547,1.227-5.387,3.346c-0.126,0.105-0.251,0.214-0.366,0.35
		c-0.058,0.063-0.125,0.126-0.182,0.193c-0.011-2.876-4.61-3.857-5.492-0.678c-0.663,2.396-0.746,4.881-1.091,7.329
		C104.097,76.655,106.91,78.624,109.15,76.65"/>
	<path clip-path="url(#SVGID_2_)" fill="#FFFFFF" d="M106.541,60.688v0.052c0,0.663,0.537,1.2,1.205,1.2
		c0.647,0,1.175-0.516,1.196-1.158c0.699,1.388,2.03,2.428,3.684,2.672c2.163,0.324,4.209-0.814,5.137-2.667
		c0.027,0.643,0.554,1.153,1.202,1.153c0.662,0,1.2-0.537,1.2-1.2v-0.047c0.434,0,0.783-0.355,0.783-0.788v-3.138
		c0-0.433-0.35-0.783-0.783-0.783v-0.052c0-0.454-0.256-0.845-0.632-1.049c-0.85-2.599-3.299-4.478-6.181-4.478
		c-2.881,0-5.324,1.879-6.181,4.478c-0.37,0.204-0.625,0.595-0.625,1.049v0.052c-0.434,0-0.788,0.35-0.788,0.783v3.138
		C105.757,60.337,106.107,60.688,106.541,60.688 M113.351,51.604c2.229,0,4.14,1.383,4.923,3.341
		c-0.313,0.214-0.517,0.574-0.517,0.986v0.418c-0.699-1.383-2.03-2.417-3.68-2.662c-2.161-0.324-4.202,0.809-5.131,2.662v-0.418
		c0-0.412-0.209-0.772-0.522-0.986C109.208,52.987,111.118,51.604,113.351,51.604"/>
	<rect x="86.928" y="86.798" clip-path="url(#SVGID_2_)" fill="#FFFFFF" width="63.288" height="19.142"/>
	<rect x="92.137" y="83.102" clip-path="url(#SVGID_2_)" fill="#FFFFFF" width="14.721" height="2.646"/>
	<rect x="129.012" y="83.102" clip-path="url(#SVGID_2_)" fill="#FFFFFF" width="14.722" height="2.646"/>
</g>
</svg>
