<?xml version="1.0" encoding="utf-8"?>
<!-- Generator: Adobe Illustrator 16.0.1, SVG Export Plug-In . SVG Version: 6.00 Build 0)  -->
<!DOCTYPE svg PUBLIC "-//W3C//DTD SVG 1.1//EN" "http://www.w3.org/Graphics/SVG/1.1/DTD/svg11.dtd">
<svg version="1.1" id="Слой_1" xmlns="http://www.w3.org/2000/svg" xmlns:xlink="http://www.w3.org/1999/xlink" x="0px" y="0px"
	 width="55px" height="55px" viewBox="0 0 55 55" enable-background="new 0 0 55 55" xml:space="preserve">
<rect x="8.054" y="8.054" transform="matrix(-0.7071 -0.7071 0.7071 -0.7071 27.4993 66.3901)" fill="#33B88D" width="38.891" height="38.891"/>
<g>
	<defs>
		<rect id="SVGID_1_" x="18.969" y="13.893" width="15.176" height="27.788"/>
	</defs>
	<clipPath id="SVGID_2_">
		<use xlink:href="#SVGID_1_"  overflow="visible"/>
	</clipPath>
	<path clip-path="url(#SVGID_2_)" fill="#FFFFFF" d="M33.425,13.863l-3.604-0.005c-4.047,0-6.664,2.684-6.664,6.838v3.153h-3.624
		c-0.311,0-0.565,0.253-0.565,0.566v4.569c0,0.313,0.254,0.566,0.565,0.566h3.624v11.527c0,0.312,0.254,0.565,0.567,0.565h4.726
		c0.313,0,0.566-0.254,0.566-0.565V29.55h4.236c0.313,0,0.566-0.254,0.566-0.566l0.002-4.569c0-0.15-0.061-0.294-0.166-0.401
		c-0.106-0.106-0.25-0.165-0.401-0.165h-4.237v-2.673c0-1.285,0.307-1.937,1.979-1.937l2.428-0.001c0.313,0,0.565-0.254,0.565-0.566
		v-4.241C33.99,14.117,33.738,13.864,33.425,13.863"/>
</g>
</svg>
