<?xml version="1.0" encoding="utf-8"?>
<!-- Generator: Adobe Illustrator 16.0.1, SVG Export Plug-In . SVG Version: 6.00 Build 0)  -->
<!DOCTYPE svg PUBLIC "-//W3C//DTD SVG 1.1//EN" "http://www.w3.org/Graphics/SVG/1.1/DTD/svg11.dtd">
<svg version="1.1" id="Слой_1" xmlns="http://www.w3.org/2000/svg" xmlns:xlink="http://www.w3.org/1999/xlink" x="0px" y="0px"
	 width="55px" height="55px" viewBox="0 0 55 55" enable-background="new 0 0 55 55" xml:space="preserve">
<rect x="8.055" y="8.054" transform="matrix(-0.7071 -0.7071 0.7071 -0.7071 27.501 66.3908)" fill="#FFFFFF" width="38.891" height="38.891"/>
<g>
	<defs>
		<rect id="SVGID_1_" x="-8.416" y="-4" width="71.529" height="61.739"/>
	</defs>
	<clipPath id="SVGID_2_">
		<use xlink:href="#SVGID_1_"  overflow="visible"/>
	</clipPath>
	<path clip-path="url(#SVGID_2_)" d="M32.487,22.539c-0.394,0-0.713-0.321-0.713-0.713v-1.427c0-0.393,0.319-0.713,0.713-0.713
		h1.427c0.389,0,0.709,0.32,0.709,0.713v1.427c0,0.392-0.32,0.713-0.709,0.713H32.487z"/>
	<path clip-path="url(#SVGID_2_)" d="M27.498,24.097c-0.515,0-0.995,0.15-1.405,0.4c0.129-0.038,0.261-0.066,0.403-0.066
		c0.762,0,1.378,0.615,1.378,1.377c0,0.759-0.616,1.377-1.378,1.377c-0.761,0-1.377-0.615-1.377-1.377
		c0-0.143,0.028-0.275,0.066-0.404c-0.25,0.411-0.4,0.891-0.4,1.406c0,1.503,1.214,2.717,2.717,2.717
		c1.499,0,2.718-1.214,2.718-2.717C30.219,25.311,29,24.097,27.498,24.097"/>
	<path clip-path="url(#SVGID_2_)" d="M27.498,22.539c2.363,0,4.276,1.913,4.276,4.271c0,2.362-1.913,4.275-4.276,4.275
		c-2.358,0-4.271-1.913-4.271-4.275C23.227,24.452,25.14,22.539,27.498,22.539 M27.498,21.112c-3.141,0-5.698,2.557-5.698,5.698
		c0,3.145,2.557,5.702,5.698,5.702c3.146,0,5.702-2.557,5.702-5.702C33.2,23.668,30.643,21.112,27.498,21.112"/>
	<path clip-path="url(#SVGID_2_)" d="M33.287,17.55H21.709c-1.917,0-3.472,1.555-3.472,3.471v11.578
		c0,1.921,1.555,3.476,3.472,3.476h11.577c1.921,0,3.476-1.555,3.476-3.476V21.021C36.762,19.104,35.208,17.55,33.287,17.55
		 M35.335,23.96h-4.658c0.683,0.759,1.097,1.754,1.097,2.849c0,2.363-1.913,4.275-4.276,4.275c-2.358,0-4.271-1.912-4.271-4.275
		c0-1.095,0.413-2.09,1.092-2.849h-4.654v-2.94c0-1.126,0.918-2.044,2.045-2.044h11.577c1.131,0,2.049,0.918,2.049,2.044V23.96z"/>
</g>
</svg>
