<?xml version="1.0" encoding="utf-8"?>
<!-- Generator: Adobe Illustrator 16.0.1, SVG Export Plug-In . SVG Version: 6.00 Build 0)  -->
<!DOCTYPE svg PUBLIC "-//W3C//DTD SVG 1.1//EN" "http://www.w3.org/Graphics/SVG/1.1/DTD/svg11.dtd">
<svg version="1.1" id="Слой_1" xmlns="http://www.w3.org/2000/svg" xmlns:xlink="http://www.w3.org/1999/xlink" x="0px" y="0px"
	 width="343.333px" height="296.343px" viewBox="0 0 343.333 296.343" enable-background="new 0 0 343.333 296.343"
	 xml:space="preserve">
<g>
	<defs>
		<rect id="SVGID_1_" x="0" y="1.076" width="343.333" height="296.343"/>
	</defs>
	<clipPath id="SVGID_2_">
		<use xlink:href="#SVGID_1_"  overflow="visible"/>
	</clipPath>
	<path clip-path="url(#SVGID_2_)" fill="#231F20" d="M163.923,13.662c1.146,0,2.063,0.779,2.063,1.753v64.689
		c0,0.975-0.917,1.754-2.063,1.754h-5.845c-1.146,0-2.178-0.779-2.178-1.754V25.45c0-0.974-0.229-0.974-0.573,0l-12.721,37.703
		c-0.344,0.974-1.605,1.656-2.751,1.656h-4.241c-1.146,0-2.292-0.682-2.636-1.656l-12.721-37.508c-0.344-0.974-0.573-0.974-0.573,0
		v54.459c0,0.975-0.917,1.754-2.063,1.754h-5.96c-1.146,0-2.063-0.779-2.063-1.754V15.415c0-0.974,0.917-1.753,2.063-1.753h12.378
		c1.146,0,2.636,0.779,2.98,1.656l10.2,29.714c0.344,0.974,0.802,0.974,1.146,0l10.2-29.714c0.344-0.877,1.719-1.656,2.98-1.656
		H163.923z"/>
	<path clip-path="url(#SVGID_2_)" fill="#231F20" d="M119.004,179.709c0,1.025,0.821,1.846,1.846,1.846h21.236
		c1.025,0,1.846,0.924,1.846,1.95v5.231c0,1.025-0.821,1.847-1.846,1.847h-30.263c-1.026,0-1.846-0.821-1.846-1.847v-68.116
		c0-1.026,0.82-1.847,1.846-1.847h5.335c1.025,0,1.846,0.821,1.846,1.847V179.709z"/>
	<path clip-path="url(#SVGID_2_)" fill="#231F20" d="M178.813,188.736c-0.205,1.025-1.129,1.846-2.154,1.846h-14.362
		c-1.026,0-2.052-0.82-2.155-1.846l-11.284-68.116c-0.103-1.026,0.513-1.846,1.539-1.846h5.437c1.026,0,2.051,0.82,2.154,1.846
		l3.898,23.287c0.103,1.026,1.129,1.846,2.154,1.846h10.875c1.025,0,1.949-0.82,2.154-1.846l3.795-23.287
		c0.205-1.026,1.129-1.846,2.154-1.846h5.438c1.025,0,1.744,0.82,1.539,1.846L178.813,188.736z M165.477,154.678
		c-1.026,0-1.744,0.821-1.539,1.847l3.796,23.287c0.205,0.924,0.923,1.847,1.743,1.847c0.718,0,1.539-0.923,1.643-1.847
		l3.896-23.287c0.104-1.025-0.615-1.847-1.641-1.847H165.477z"/>
	<path clip-path="url(#SVGID_2_)" fill="#231F20" d="M234.926,127.904c0.717,0.821,1.23,2.257,1.23,3.283v17.131
		c0,1.026-0.615,2.462-1.334,3.18l-1.846,1.847c-0.719,0.718-0.719,1.949,0,2.667l1.846,1.846c0.719,0.72,1.334,2.155,1.334,3.181
		v17.132c0,1.026-0.514,2.462-1.23,3.18l-7.182,7.899c-0.719,0.718-2.051,1.334-3.076,1.334h-22.877
		c-1.025,0-1.848-0.821-1.848-1.847V120.62c0-1.025,0.822-1.846,1.848-1.846h22.568c1.025,0,2.666,0.615,3.385,1.333
		L234.926,127.904z M227.129,134.366c0-1.025-0.615-2.461-1.334-3.179l-2.154-2.155c-0.717-0.718-2.154-1.333-3.18-1.333h-9.643
		c-1.025,0-1.846,0.923-1.846,1.949v18.67c0,1.026,0.82,1.846,1.846,1.846h9.643c1.025,0,2.463-0.615,3.18-1.333l2.154-2.257
		c0.719-0.718,1.334-2.154,1.334-3.18V134.366z M227.129,165.859c0-1.025-0.615-2.462-1.334-3.18l-2.258-2.257
		c-0.717-0.718-2.152-1.231-3.178-1.231h-9.541c-1.025,0-1.846,0.821-1.846,1.847v18.671c0,1.024,0.82,1.949,1.846,1.949h9.541
		c1.025,0,2.461-0.616,3.178-1.334l2.258-2.154c0.719-0.718,1.334-2.155,1.334-3.18V165.859z"/>
	<path clip-path="url(#SVGID_2_)" fill="#231F20" d="M235.793,71.628c0,0.974-0.688,2.338-1.49,3.02l-7.105,5.943
		c-0.803,0.682-2.408,1.266-3.553,1.266h-15.932c-1.146,0-2.75-0.584-3.553-1.266l-7.221-6.04c-0.803-0.682-0.803-1.754,0-2.436
		l4.242-3.507c0.801-0.682,2.176-0.682,2.979,0l4.127,3.507c0.801,0.682,2.406,1.267,3.551,1.267h7.68
		c1.146,0,2.752-0.585,3.553-1.267l1.146-0.974c0.803-0.682,1.49-2.046,1.49-3.02v-3.702c0-0.974-0.688-2.339-1.49-3.02
		L198.201,37.53c-0.803-0.682-1.49-2.046-1.49-3.02V23.793c0-0.876,0.688-2.241,1.49-2.922l7.219-6.041
		c0.803-0.682,2.408-1.169,3.555-1.169h15.93c1.146,0,2.752,0.487,3.553,1.169l7.221,6.041c0.803,0.681,0.803,1.753,0,2.435
		l-4.24,3.508c-0.803,0.681-2.178,0.681-2.98,0l-4.125-3.508c-0.918-0.682-2.521-1.169-3.668-1.169H213.1
		c-1.146,0-2.75,0.487-3.553,1.169l-1.146,1.072c-0.916,0.682-1.49,2.046-1.49,3.02v3.605c0,0.974,0.574,2.338,1.49,3.02
		l25.902,23.868c0.803,0.682,1.49,2.144,1.49,3.118V71.628z"/>
	<path clip-path="url(#SVGID_2_)" fill="#231F20" d="M138.571,91.741c-0.218-0.218-0.653-0.404-0.964-0.404h-2.893
		c-0.311,0-0.591,0.248-0.591,0.559v5.693c0,0.311,0.28,0.56,0.591,0.56h2.893c0.311,0,0.746-0.187,0.964-0.405l0.684-0.684
		c0.218-0.218,0.374-0.653,0.374-0.964v-2.737c0-0.312-0.187-0.747-0.405-0.965L138.571,91.741z"/>
	<path clip-path="url(#SVGID_2_)" fill="#231F20" d="M169.396,91.337c-0.249,0-0.467,0.28-0.529,0.56l-1.151,7.061
		c-0.062,0.311,0.156,0.56,0.467,0.56h2.395c0.311,0,0.528-0.249,0.497-0.56l-1.181-7.061
		C169.863,91.617,169.614,91.337,169.396,91.337"/>
	<path clip-path="url(#SVGID_2_)" fill="#231F20" d="M109.526,115.965h126.497V84.139H109.526V115.965z M117.762,106.641
		l0.653,0.653c0.217,0.218,0.653,0.404,0.964,0.404h1.773c0.311,0,0.747-0.155,0.964-0.373l1.151-1.151
		c0.218-0.187,0.56-0.187,0.778,0l1.151,1.151c0.218,0.218,0.218,0.56,0,0.778L123.267,110c-0.249,0.218-0.684,0.404-0.995,0.404
		h-3.826c-0.311,0-0.778-0.155-0.995-0.373l-2.395-2.177c-0.249-0.187-0.436-0.622-0.436-0.933V92.084
		c0-0.312,0.187-0.747,0.436-0.934l2.364-2.146c0.248-0.218,0.684-0.373,0.995-0.373h3.857c0.311,0,0.746,0.186,0.995,0.404
		l1.929,1.897c0.218,0.218,0.218,0.592,0,0.809l-1.151,1.12c-0.218,0.218-0.56,0.218-0.778,0l-1.151-1.12
		c-0.217-0.217-0.653-0.404-0.964-0.404h-1.773c-0.311,0-0.747,0.187-0.964,0.404l-0.653,0.623
		c-0.218,0.217-0.405,0.653-0.405,0.964v12.349C117.356,105.987,117.543,106.423,117.762,106.641 M142.396,97.589
		c0,0.311-0.187,0.747-0.404,0.964l-0.591,0.56c-0.218,0.218-0.218,0.56,0,0.778l0.591,0.591c0.217,0.218,0.404,0.653,0.404,0.964
		v8.398c0,0.312-0.28,0.56-0.591,0.56h-1.617c-0.311,0-0.56-0.248-0.56-0.56v-6.967c0-0.311-0.187-0.715-0.405-0.933l-0.653-0.685
		l-0.404-0.404h-0.56h-2.893c-0.311,0-0.591,0.28-0.591,0.591v8.398c0,0.312-0.249,0.56-0.56,0.56h-1.586
		c-0.311,0-0.591-0.248-0.591-0.56V89.191c0-0.311,0.28-0.56,0.591-0.56h6.905c0.311,0,0.747,0.186,0.933,0.404l2.178,2.364
		c0.217,0.249,0.404,0.685,0.404,0.996V97.589z M157.606,90.746c0,0.311-0.28,0.529-0.591,0.529h-4.168
		c-0.342,0-0.591,0.249-0.591,0.56v5.785c0,0.311,0.249,0.56,0.591,0.56h4.168c0.311,0,0.591,0.249,0.591,0.56v1.555
		c0,0.311-0.28,0.56-0.591,0.56h-4.168c-0.342,0-0.591,0.249-0.591,0.529v5.817c0,0.28,0.249,0.528,0.591,0.528h4.168
		c0.311,0,0.591,0.249,0.591,0.56v1.555c0,0.312-0.28,0.56-0.591,0.56h-6.936c-0.311,0-0.56-0.248-0.56-0.56V89.191
		c0-0.311,0.249-0.56,0.56-0.56h6.936c0.311,0,0.591,0.249,0.591,0.56V90.746z M175.15,110.404h-1.648
		c-0.311,0-0.592-0.248-0.654-0.56l-1.15-7.06c-0.063-0.311-0.342-0.56-0.652-0.56h-3.298c-0.31,0-0.622,0.249-0.653,0.56
		l-1.181,7.06c-0.032,0.312-0.343,0.56-0.654,0.56h-1.649c-0.31,0-0.497-0.248-0.466-0.56l3.422-20.653
		c0.031-0.311,0.342-0.56,0.653-0.56h4.354c0.313,0,0.592,0.249,0.654,0.56l3.391,20.653
		C175.678,110.156,175.461,110.404,175.15,110.404 M190.018,90.777c0,0.311-0.248,0.56-0.559,0.56h-2.986
		c-0.311,0-0.561,0.249-0.561,0.56v17.947c0,0.312-0.248,0.56-0.561,0.56h-1.617c-0.311,0-0.559-0.248-0.559-0.56V91.897
		c0-0.311-0.25-0.56-0.561-0.56h-2.986c-0.311,0-0.559-0.249-0.559-0.56v-1.586c0-0.311,0.248-0.56,0.559-0.56h9.83
		c0.311,0,0.559,0.249,0.559,0.56V90.777z M198.572,109.844c0,0.312-0.248,0.56-0.561,0.56h-1.617c-0.311,0-0.559-0.248-0.559-0.56
		V89.191c0-0.311,0.248-0.56,0.559-0.56h1.617c0.313,0,0.561,0.249,0.561,0.56V109.844z M213.564,109.844
		c-0.031,0.312-0.342,0.56-0.652,0.56h-4.355c-0.311,0-0.623-0.279-0.652-0.591l-3.422-20.622c-0.031-0.311,0.186-0.56,0.496-0.56
		h1.619c0.311,0,0.621,0.249,0.684,0.56l2.955,17.947c0.031,0.281,0.279,0.529,0.498,0.529c0.217,0,0.467-0.248,0.498-0.529
		l2.953-17.947c0.064-0.311,0.373-0.56,0.686-0.56h1.617c0.311,0,0.529,0.249,0.498,0.56L213.564,109.844z M230.734,90.746
		c0,0.311-0.279,0.529-0.592,0.529h-4.168c-0.342,0-0.59,0.249-0.59,0.56v5.785c0,0.311,0.248,0.56,0.59,0.56h4.168
		c0.313,0,0.592,0.249,0.592,0.56v1.555c0,0.311-0.279,0.56-0.592,0.56h-4.168c-0.342,0-0.59,0.249-0.59,0.529v5.817
		c0,0.28,0.248,0.528,0.59,0.528h4.168c0.313,0,0.592,0.249,0.592,0.56v1.555c0,0.312-0.279,0.56-0.592,0.56h-6.936
		c-0.311,0-0.559-0.248-0.559-0.56V89.191c0-0.311,0.248-0.56,0.559-0.56h6.936c0.313,0,0.592,0.249,0.592,0.56V90.746z"/>
	<rect x="179.188" y="28.037" clip-path="url(#SVGID_2_)" fill="#231F20" width="3.059" height="58.798"/>
	<path clip-path="url(#SVGID_2_)" fill="#231F20" d="M60.94,269.58c-0.039,0.312-0.312,0.546-0.623,0.585h-2.144
		c-0.35-0.039-0.662-0.195-0.662-0.585v-9.548c0-0.391-0.156-0.43-0.351-0.077l-5.612,9.625c-0.195,0.312-0.701,0.585-1.091,0.585
		h-2.533c-0.389,0-0.546-0.273-0.351-0.585l7.288-12.471c0.194-0.312,0.194-0.857,0-1.208l-7.288-12.393
		c-0.195-0.351-0.038-0.624,0.351-0.624h2.571c0.391,0,0.858,0.273,1.053,0.624l5.612,9.587c0.195,0.313,0.351,0.273,0.351-0.117
		v-9.353c0-0.391,0-0.702,0.74-0.702h2.066c0.35,0,0.623,0.272,0.623,0.702v9.353c0,0.391,0.156,0.43,0.351,0.117l5.612-9.587
		c0.195-0.351,0.701-0.624,1.09-0.624h2.534c0.389,0,0.546,0.273,0.35,0.624l-7.248,12.393c-0.195,0.351-0.195,0.896,0,1.208
		l7.287,12.471c0.196,0.312,0.039,0.585-0.35,0.585h-2.573c-0.389,0-0.857-0.273-1.051-0.585l-5.651-9.625
		c-0.195-0.353-0.351-0.313-0.351,0.077V269.58z M82.915,243.587c0.118-0.391,0.507-0.702,0.897-0.702h3.702
		c0.39,0,0.74,0.351,0.74,0.702v25.877c0,0.389-0.35,0.701-0.74,0.701h-1.987c-0.39,0-0.701-0.313-0.701-0.701v-18.941
		c0-0.389-0.079-0.389-0.196-0.038l-5.027,19.019c-0.117,0.389-0.507,0.662-0.897,0.662h-3.467c-0.39,0-0.742-0.313-0.742-0.701
		v-25.877c0-0.352,0.352-0.702,0.742-0.702h1.987c0.39,0,0.701,0.351,0.701,0.702l-0.155,19.135c0,0.194,0.155,0.194,0.155,0.078
		L82.915,243.587z M107.075,246.354c0.273,0.312,0.467,0.857,0.467,1.247v6.508c0,0.39-0.233,0.936-0.506,1.208l-0.702,0.701
		c-0.272,0.273-0.272,0.741,0,1.015l0.702,0.7c0.273,0.273,0.506,0.819,0.506,1.208v6.509c0,0.39-0.194,0.936-0.467,1.208
		l-2.728,3.001c-0.272,0.273-0.779,0.507-1.169,0.507h-8.69c-0.39,0-0.703-0.313-0.703-0.701v-25.877
		c0-0.391,0.313-0.702,0.703-0.702h8.573c0.39,0,1.014,0.234,1.286,0.507L107.075,246.354z M104.114,248.809
		c0-0.39-0.235-0.936-0.507-1.208l-0.819-0.818c-0.273-0.272-0.818-0.507-1.208-0.507h-3.664c-0.389,0-0.701,0.351-0.701,0.74v7.093
		c0,0.39,0.312,0.701,0.701,0.701h3.664c0.39,0,0.935-0.232,1.208-0.506l0.819-0.858c0.272-0.271,0.507-0.817,0.507-1.208V248.809z
		 M104.114,260.772c0-0.389-0.235-0.935-0.507-1.209l-0.858-0.856c-0.272-0.273-0.818-0.467-1.208-0.467h-3.625
		c-0.389,0-0.701,0.312-0.701,0.7v7.094c0,0.39,0.312,0.739,0.701,0.739h3.625c0.39,0,0.936-0.232,1.208-0.507l0.858-0.817
		c0.272-0.272,0.507-0.818,0.507-1.208V260.772z M121.413,243.587c0.118-0.391,0.507-0.702,0.897-0.702h3.702
		c0.39,0,0.74,0.351,0.74,0.702v25.877c0,0.389-0.35,0.701-0.74,0.701h-1.987c-0.39,0-0.701-0.313-0.701-0.701v-18.941
		c0-0.389-0.079-0.389-0.196-0.038l-5.027,19.019c-0.117,0.389-0.507,0.662-0.897,0.662h-3.467c-0.39,0-0.742-0.313-0.742-0.701
		v-25.877c0-0.352,0.352-0.702,0.742-0.702h1.987c0.39,0,0.701,0.351,0.701,0.702l-0.155,19.135c0,0.194,0.155,0.194,0.155,0.078
		L121.413,243.587z M143.194,269.464c0,0.389-0.312,0.701-0.702,0.701h-1.987c-0.429,0-0.741-0.313-0.741-0.701v-25.877
		c0-0.391,0.312-0.702,0.741-0.702h1.987c0.39,0,0.702,0.312,0.702,0.702v9.392c0,0.391,0.156,0.43,0.35,0.078l5.613-9.548
		c0.194-0.351,0.701-0.624,1.09-0.624h2.534c0.389,0,0.545,0.273,0.35,0.624l-7.248,12.393c-0.195,0.312-0.195,0.857,0,1.208
		l7.287,12.432c0.196,0.351,0.039,0.624-0.35,0.624h-2.573c-0.389,0-0.857-0.273-1.051-0.624l-5.652-9.625
		c-0.194-0.313-0.35-0.274-0.35,0.116V269.464z M170.041,246.354c0.274,0.312,0.468,0.857,0.468,1.247v6.508
		c0,0.39-0.233,0.936-0.506,1.208l-2.417,2.416c-0.272,0.273-0.818,0.469-1.208,0.469h-5.495c-0.39,0-0.701,0.351-0.701,0.739
		v10.523c0,0.389-0.312,0.701-0.701,0.701h-2.027c-0.389,0-0.702-0.313-0.702-0.701v-25.877c0-0.391,0.313-0.702,0.702-0.702h8.691
		c0.389,0,0.896,0.234,1.169,0.507L170.041,246.354z M167.08,248.809c0-0.39-0.234-0.936-0.506-1.208l-0.819-0.818
		c-0.273-0.272-0.818-0.507-1.208-0.507h-3.664c-0.39,0-0.701,0.312-0.701,0.701v7.132c0,0.39,0.311,0.701,0.701,0.701h3.664
		c0.39,0,0.935-0.232,1.208-0.506l0.819-0.858c0.272-0.271,0.506-0.817,0.506-1.208V248.809z M175.885,270.165
		c-0.389,0-0.701-0.313-0.701-0.701v-25.877c0-0.391,0.313-0.702,0.701-0.702h8.691c0.389,0,0.74,0.312,0.74,0.702v1.948
		c0,0.39-0.352,0.662-0.74,0.662h-5.223c-0.43,0-0.74,0.313-0.74,0.701v7.249c0,0.391,0.311,0.702,0.74,0.702h5.223
		c0.389,0,0.74,0.312,0.74,0.701v1.948c0,0.39-0.352,0.702-0.74,0.702h-5.223c-0.43,0-0.74,0.312-0.74,0.661v7.288
		c0,0.352,0.311,0.662,0.74,0.662h5.223c0.389,0,0.74,0.313,0.74,0.702v1.949c0,0.389-0.352,0.701-0.74,0.701H175.885z
		 M200.084,269.463c-0.078,0.39-0.43,0.702-0.818,0.702h-5.457c-0.389,0-0.779-0.313-0.818-0.702l-4.285-25.877
		c-0.039-0.39,0.193-0.701,0.584-0.701h2.064c0.391,0,0.779,0.312,0.818,0.701l1.482,8.847c0.039,0.39,0.428,0.701,0.818,0.701
		h4.131c0.389,0,0.74-0.312,0.818-0.701l1.441-8.847c0.078-0.39,0.428-0.701,0.818-0.701h2.064c0.391,0,0.664,0.312,0.586,0.701
		L200.084,269.463z M195.018,256.524c-0.391,0-0.662,0.313-0.584,0.701l1.441,8.847c0.078,0.352,0.352,0.701,0.662,0.701
		c0.273,0,0.584-0.35,0.623-0.701l1.482-8.847c0.039-0.389-0.234-0.701-0.625-0.701H195.018z M206.316,243.587
		c0-0.391,0.311-0.702,0.701-0.702h12.314c0.389,0,0.703,0.312,0.703,0.702v1.987c0,0.39-0.314,0.701-0.703,0.701h-3.742
		c-0.389,0-0.701,0.312-0.701,0.701v22.487c0,0.389-0.311,0.701-0.701,0.701h-2.025c-0.391,0-0.703-0.313-0.703-0.701v-22.487
		c0-0.39-0.311-0.701-0.701-0.701h-3.74c-0.391,0-0.701-0.312-0.701-0.701V243.587z M232.035,243.587
		c0.115-0.391,0.506-0.702,0.895-0.702h3.703c0.389,0,0.74,0.351,0.74,0.702v25.877c0,0.389-0.352,0.701-0.74,0.701h-1.988
		c-0.389,0-0.701-0.313-0.701-0.701v-18.941c0-0.389-0.078-0.389-0.195-0.038l-5.027,19.019c-0.117,0.389-0.506,0.662-0.896,0.662
		h-3.467c-0.391,0-0.742-0.313-0.742-0.701v-25.877c0-0.352,0.352-0.702,0.742-0.702h1.986c0.391,0,0.701,0.351,0.701,0.702
		l-0.154,19.135c0,0.194,0.154,0.194,0.154,0.078L232.035,243.587z M256.193,246.354c0.273,0.312,0.467,0.857,0.467,1.247v6.508
		c0,0.39-0.232,0.936-0.506,1.208l-0.701,0.701c-0.273,0.273-0.273,0.741,0,1.015l0.701,0.7c0.273,0.273,0.506,0.819,0.506,1.208
		v6.509c0,0.39-0.193,0.936-0.467,1.208l-2.729,3.001c-0.271,0.273-0.779,0.507-1.168,0.507h-8.691
		c-0.389,0-0.701-0.313-0.701-0.701v-25.877c0-0.391,0.313-0.702,0.701-0.702h8.574c0.389,0,1.014,0.234,1.285,0.507
		L256.193,246.354z M253.232,248.809c0-0.39-0.234-0.936-0.508-1.208l-0.818-0.818c-0.273-0.272-0.818-0.507-1.207-0.507h-3.664
		c-0.391,0-0.701,0.351-0.701,0.74v7.093c0,0.39,0.311,0.701,0.701,0.701h3.664c0.389,0,0.934-0.232,1.207-0.506l0.818-0.858
		c0.273-0.271,0.508-0.817,0.508-1.208V248.809z M253.232,260.772c0-0.389-0.234-0.935-0.508-1.209l-0.857-0.856
		c-0.271-0.273-0.818-0.467-1.207-0.467h-3.625c-0.391,0-0.701,0.312-0.701,0.7v7.094c0,0.39,0.311,0.739,0.701,0.739h3.625
		c0.389,0,0.936-0.232,1.207-0.507l0.857-0.817c0.273-0.272,0.508-0.818,0.508-1.208V260.772z M265.582,269.464
		c0,0.389-0.311,0.701-0.701,0.701h-2.025c-0.391,0-0.703-0.313-0.703-0.701v-25.877c0-0.391,0.313-0.702,0.703-0.702h2.025
		c0.391,0,0.701,0.312,0.701,0.702v10.561c0,0.391,0.313,0.702,0.701,0.702h5.262c0.391,0,0.701-0.312,0.701-0.702v-10.561
		c0-0.391,0.313-0.702,0.701-0.702h2.027c0.391,0,0.701,0.312,0.701,0.702v25.877c0,0.389-0.311,0.701-0.701,0.701h-2.027
		c-0.389,0-0.701-0.313-0.701-0.701v-10.602c0-0.35-0.311-0.661-0.701-0.661h-5.262c-0.389,0-0.701,0.312-0.701,0.661V269.464z
		 M296.367,265.762c0,0.389-0.234,0.934-0.547,1.208l-2.961,2.688c-0.313,0.273-0.74,0.507-0.975,0.507h-1.131h-4.832
		c-0.389,0-0.975-0.233-1.246-0.507l-3.002-2.688c-0.271-0.274-0.506-0.819-0.506-1.208V247.25c0-0.391,0.234-0.936,0.506-1.208
		l3.002-2.689c0.271-0.272,0.857-0.468,1.246-0.468h5.65c0.43,0,0.975,0.195,1.287,0.468l2.961,2.689
		c0.313,0.272,0.547,0.817,0.547,1.208V265.762z M284.598,264.163c0,0.39,0.234,0.936,0.506,1.209l0.779,0.855
		c0.273,0.274,0.818,0.507,1.209,0.507h3.313c0.389,0,0.936-0.232,1.207-0.507l0.818-0.817c0.273-0.272,0.508-0.818,0.508-1.208
		v-15.354c0-0.39-0.234-0.935-0.508-1.208l-0.818-0.819c-0.271-0.311-0.779-0.506-1.168-0.506h-3.313
		c-0.391,0-0.936,0.195-1.209,0.468l-0.818,0.857c-0.271,0.273-0.506,0.818-0.506,1.208V264.163z"/>
	<rect x="66.402" y="226.545" clip-path="url(#SVGID_2_)" fill="#231F20" width="213" height="3"/>
	<rect x="66.402" y="282.711" clip-path="url(#SVGID_2_)" fill="#231F20" width="101.25" height="3"/>
	<rect x="178.152" y="282.711" clip-path="url(#SVGID_2_)" fill="#231F20" width="101.25" height="3"/>
</g>
</svg>
