<?xml version="1.0" encoding="utf-8"?>
<!-- Generator: Adobe Illustrator 16.0.1, SVG Export Plug-In . SVG Version: 6.00 Build 0)  -->
<!DOCTYPE svg PUBLIC "-//W3C//DTD SVG 1.1//EN" "http://www.w3.org/Graphics/SVG/1.1/DTD/svg11.dtd">
<svg version="1.1" id="Слой_1" xmlns="http://www.w3.org/2000/svg" xmlns:xlink="http://www.w3.org/1999/xlink" x="0px" y="0px"
	 width="238px" height="205.426px" viewBox="0 0 238 205.426" enable-background="new 0 0 238 205.426" xml:space="preserve">
<rect x="68.142" y="42.544" transform="matrix(-0.7071 -0.7071 0.7071 -0.7071 135.3912 239.4668)" fill="#33B88D" width="98.298" height="98.298"/>
<g>
	<defs>
		<rect id="SVGID_1_" width="238" height="205.426"/>
	</defs>
	<clipPath id="SVGID_2_">
		<use xlink:href="#SVGID_1_"  overflow="visible"/>
	</clipPath>
	<path clip-path="url(#SVGID_2_)" fill="#231F20" d="M60.568,181.103v-1.634c-3.836-0.165-5.397-2.074-5.397-5.488
		c0-3.378,1.707-5.14,5.397-5.324v-1.266h1.982v1.266c3.689,0.185,5.396,1.946,5.396,5.324c0,3.414-1.559,5.323-5.396,5.488v1.634
		H60.568z M60.568,170.363c-2.607,0.093-3.414,1.359-3.414,3.708c0,2.313,0.862,3.617,3.414,3.728V170.363z M62.55,177.799
		c2.552-0.11,3.414-1.414,3.414-3.728c0-2.349-0.808-3.615-3.414-3.708V177.799z"/>
	<path clip-path="url(#SVGID_2_)" fill="#231F20" d="M79.507,174.659c0,2.148-0.018,3.78-1.266,5.066
		c-0.9,0.918-2.074,1.396-3.451,1.396c-1.359,0-2.533-0.478-3.433-1.396c-1.248-1.267-1.267-3.047-1.267-4.994v-0.861
		c0-2.147,0.167-3.543,1.267-4.645c0.9-0.899,2.093-1.395,3.433-1.395c1.358,0,2.551,0.495,3.451,1.395
		c1.01,1.028,1.266,2.479,1.266,4.332V174.659z M76.736,170.419c-0.514-0.532-1.193-0.808-1.946-0.808
		c-0.734,0-1.432,0.275-1.946,0.808c-0.734,0.771-0.753,2.056-0.753,3.727v1.12c0,1.34,0.056,2.569,0.753,3.267
		c0.533,0.532,1.194,0.808,1.946,0.808c0.771,0,1.45-0.275,1.946-0.808c0.771-0.808,0.771-1.964,0.771-4.185
		C77.507,172.365,77.47,171.189,76.736,170.419"/>
	<polygon clip-path="url(#SVGID_2_)" fill="#231F20" points="86.498,169.722 86.498,181.011 84.516,181.011 84.516,169.722 
		80.917,169.722 80.917,167.941 90.096,167.941 90.096,169.722 	"/>
	<path clip-path="url(#SVGID_2_)" fill="#231F20" d="M100.924,174.659c0,2.148-0.018,3.78-1.266,5.066
		c-0.9,0.918-2.074,1.396-3.451,1.396c-1.359,0-2.533-0.478-3.433-1.396c-1.248-1.267-1.267-3.047-1.267-4.994v-0.861
		c0-2.147,0.167-3.543,1.267-4.645c0.9-0.899,2.093-1.395,3.433-1.395c1.358,0,2.551,0.495,3.451,1.395
		c1.01,1.028,1.266,2.479,1.266,4.332V174.659z M98.153,170.419c-0.514-0.532-1.193-0.808-1.946-0.808
		c-0.734,0-1.432,0.275-1.946,0.808c-0.734,0.771-0.753,2.056-0.753,3.727v1.12c0,1.34,0.056,2.569,0.753,3.267
		c0.533,0.532,1.194,0.808,1.946,0.808c0.771,0,1.45-0.275,1.946-0.808c0.771-0.808,0.771-1.964,0.771-4.185
		C98.924,172.365,98.887,171.189,98.153,170.419"/>
	<path clip-path="url(#SVGID_2_)" fill="#231F20" d="M112.484,181.121c-1.358,0-2.533-0.496-3.433-1.396
		c-1.284-1.284-1.266-2.734-1.266-5.25c0-2.514-0.018-3.964,1.266-5.25c0.9-0.898,2.075-1.394,3.433-1.394
		c2.405,0,4.204,1.413,4.663,4.019h-2.019c-0.312-1.32-1.194-2.238-2.644-2.238c-0.771,0-1.468,0.294-1.927,0.789
		c-0.642,0.698-0.79,1.449-0.79,4.074s0.148,3.378,0.79,4.076c0.459,0.496,1.156,0.789,1.927,0.789c1.45,0,2.35-0.917,2.662-2.24
		h2.001C116.707,179.707,114.852,181.121,112.484,181.121"/>
	<path clip-path="url(#SVGID_2_)" fill="#231F20" d="M126.616,181.01h-5.03v-11.289h-2.956v-1.779h4.957v5.14h3.029
		c2.478,0,4.13,1.615,4.13,3.965S129.075,181.01,126.616,181.01 M126.45,174.861h-2.863v4.369h2.863
		c1.414,0,2.313-0.826,2.313-2.185C128.764,175.706,127.864,174.861,126.45,174.861"/>
	<polygon clip-path="url(#SVGID_2_)" fill="#231F20" points="133.129,181.011 133.129,167.941 141.499,167.941 141.499,169.722 
		135.111,169.722 135.111,173.54 140.545,173.54 140.545,175.302 135.111,175.302 135.111,179.23 141.499,179.23 141.499,181.011 	
		"/>
	<polygon clip-path="url(#SVGID_2_)" fill="#231F20" points="153.723,181.011 153.723,172.273 150.712,178.643 149.244,178.643 
		146.178,172.273 146.178,181.011 144.195,181.011 144.195,167.941 146.16,167.941 149.978,176.073 153.74,167.941 155.724,167.941 
		155.724,181.011 	"/>
	<polygon clip-path="url(#SVGID_2_)" fill="#231F20" points="159.17,181.011 159.17,167.941 161.153,167.941 161.153,174.146 
		166.036,167.941 168.478,167.941 163.447,174.108 168.936,181.011 166.421,181.011 161.153,174.183 161.153,181.011 	"/>
	<path clip-path="url(#SVGID_2_)" fill="#231F20" d="M178.093,181.011l-0.918-2.625h-5.158l-0.918,2.625h-2.093l4.791-13.069h1.598
		l4.772,13.069H178.093z M174.642,170.896l-2.056,5.801h4.057L174.642,170.896z"/>
	<path clip-path="url(#SVGID_2_)" fill="#FFFFFF" d="M122.227,85.82c-6.691,0-12.131,5.418-12.131,12.104
		c0,6.708,5.44,12.125,12.131,12.125c6.686,0,12.104-5.418,12.104-12.125C134.33,91.238,128.912,85.82,122.227,85.82
		 M129.801,103.743c-1.1,0.742-2.389,1.272-3.874,1.397c1.101-0.677,2.054-1.42,2.839-2.265c0.803-0.802,1.437-1.712,1.858-2.709
		c0.445-0.991,0.656-2.075,0.699-3.24c0.065-1.138-0.081-2.346-0.232-3.619c0.828,1.186,1.354,2.481,1.565,3.792
		c0.212,1.29,0.108,2.601-0.422,3.766C131.769,102.031,130.879,103.022,129.801,103.743"/>
	<path clip-path="url(#SVGID_2_)" fill="#FFFFFF" d="M145.335,69.858h-14.011l-1.165-3.511c0-1.186-1.371-2.14-3.067-2.14h-12.971
		c-1.696,0-3.072,0.954-3.072,2.14l-1.165,3.511H96.469v-2.855h-8.192v2.855H87.03c-2.671,0-4.849,2.162-4.849,4.85v34.518
		c0,2.688,2.178,4.851,4.849,4.851h23.087c0.845,0.634,1.739,1.201,2.688,1.712c0,0,4.719,2.519,9.378,2.519
		c4.655,0,9.46-2.519,9.46-2.519c0.954-0.511,1.843-1.078,2.688-1.712h7.661c7.13,0,8.191-2.162,8.191-4.851V74.708
		C150.184,72.02,148.001,69.858,145.335,69.858 M93.993,107.15c0,1.442-1.165,2.606-2.606,2.606c-1.415,0-2.579-1.164-2.579-2.606
		V87.89c0-1.436,1.164-2.579,2.579-2.579c1.441,0,2.606,1.165,2.606,2.579V107.15z M122.205,115.257
		c-9.46,0-17.165-7.705-17.165-17.143c0-9.46,7.705-17.143,17.165-17.143c9.438,0,17.143,7.683,17.143,17.143
		C139.348,107.552,131.643,115.257,122.205,115.257"/>
</g>
</svg>
