<?xml version="1.0" encoding="utf-8"?>
<!-- Generator: Adobe Illustrator 16.0.1, SVG Export Plug-In . SVG Version: 6.00 Build 0)  -->
<!DOCTYPE svg PUBLIC "-//W3C//DTD SVG 1.1//EN" "http://www.w3.org/Graphics/SVG/1.1/DTD/svg11.dtd">
<svg version="1.1" id="Слой_1" xmlns="http://www.w3.org/2000/svg" xmlns:xlink="http://www.w3.org/1999/xlink" x="0px" y="0px"
	 width="238px" height="205.426px" viewBox="0 0 238 205.426" enable-background="new 0 0 238 205.426" xml:space="preserve">
<rect x="69.55" y="41.844" transform="matrix(-0.7071 -0.7071 0.7071 -0.7071 138.2901 239.2677)" fill="#FFFFFF" width="98.298" height="98.298"/>
<g>
	<defs>
		<rect id="SVGID_1_" width="238" height="205.426"/>
	</defs>
	<clipPath id="SVGID_2_">
		<use xlink:href="#SVGID_1_"  overflow="visible"/>
	</clipPath>
	<path clip-path="url(#SVGID_2_)" d="M140.361,65.44c0.417-0.441,0.533-1.081,0.295-1.629c-0.23-0.555-0.778-0.907-1.376-0.907
		h-11.414l1.738-3.726c1.655,0.525,3.436-0.144,4.135-1.649c0.699-1.5,0.072-3.293-1.392-4.23l0.367-0.793
		c0.124-0.252,0.016-0.548-0.236-0.662c-0.251-0.124-0.547-0.015-0.663,0.238l-0.374,0.799c-1.658-0.526-3.437,0.144-4.136,1.65
		c-0.698,1.506-0.071,3.293,1.391,4.23l-1.932,4.135H98.116c-0.597,0-1.145,0.36-1.376,0.915c-0.236,0.548-0.121,1.188,0.297,1.621
		l20.295,21.205v17.674h-5.64c-0.721,0-1.312,0.59-1.312,1.311c0,0.728,0.591,1.319,1.312,1.319h14.014
		c0.727,0,1.31-0.592,1.31-1.319c0-0.721-0.583-1.311-1.31-1.311h-5.642V86.645L140.361,65.44z M125.367,65.901l-1.946,4.165
		h-15.614l10.896,11.377l10.893-11.377h-5.064l1.938-4.165h9.303l-17.069,17.833l-17.077-17.833H125.367z"/>
	<polygon clip-path="url(#SVGID_2_)" fill="#231F20" points="110.836,128.763 108.673,128.763 103.787,113.954 106.78,113.954 
		109.754,123.604 112.729,113.954 115.745,113.954 	"/>
	<rect x="117.534" y="113.955" clip-path="url(#SVGID_2_)" fill="#231F20" width="2.892" height="14.808"/>
	<path clip-path="url(#SVGID_2_)" fill="#231F20" d="M129.619,123.188h-2.85v5.573h-2.892v-14.807h5.741
		c3.057,0,4.887,2.1,4.887,4.617C134.506,121.088,132.676,123.188,129.619,123.188 M129.473,116.533h-2.703v4.056h2.703
		c1.311,0,2.143-0.811,2.143-2.017C131.615,117.365,130.783,116.533,129.473,116.533"/>
	<rect x="97.173" y="109.769" clip-path="url(#SVGID_2_)" fill="#231F20" width="43.051" height="1.285"/>
	<polygon clip-path="url(#SVGID_2_)" fill="#231F20" points="55.12,180.312 53.578,180.312 49.283,167.242 51.337,167.242 
		54.349,176.749 57.358,167.242 59.452,167.242 	"/>
	<rect x="61.248" y="167.242" clip-path="url(#SVGID_2_)" fill="#231F20" width="1.982" height="13.068"/>
	<path clip-path="url(#SVGID_2_)" fill="#231F20" d="M71.599,175.171h-2.974v5.141h-1.982v-13.069h4.956
		c2.552,0,4.185,1.688,4.185,3.965S74.151,175.171,71.599,175.171 M71.489,169.022h-2.864v4.351h2.864
		c1.376,0,2.313-0.789,2.313-2.166S72.865,169.022,71.489,169.022"/>
	<path clip-path="url(#SVGID_2_)" fill="#231F20" d="M87.877,180.312H82.59v-13.069h5.085c2.386,0,3.946,1.395,3.946,3.524
		c0,1.321-0.605,2.275-1.762,2.844c1.285,0.606,1.964,1.542,1.964,3.03C91.823,178.898,90.318,180.312,87.877,180.312
		 M87.509,169.022h-2.937v3.744h2.937c1.322,0,2.13-0.698,2.13-1.872C89.639,169.72,88.831,169.022,87.509,169.022 M87.675,174.548
		h-3.103v3.983h3.103c1.321,0,2.147-0.771,2.147-2.002C89.822,175.318,88.996,174.548,87.675,174.548"/>
	<polygon clip-path="url(#SVGID_2_)" fill="#231F20" points="94.757,180.312 94.757,167.242 103.128,167.242 103.128,169.022 
		96.739,169.022 96.739,172.841 102.173,172.841 102.173,174.603 96.739,174.603 96.739,178.531 103.128,178.531 103.128,180.312 	
		"/>
	<path clip-path="url(#SVGID_2_)" fill="#231F20" d="M112.303,180.312v-5.121c-0.753,0.146-2.221,0.422-3.506,0.422
		c-1.725,0-3.396-0.9-3.396-3.212v-5.158h2.001v4.681c0,1.505,0.936,1.909,2.001,1.909c0.862,0,2.221-0.221,2.9-0.367v-6.223h1.982
		v13.069H112.303z"/>
	<polygon clip-path="url(#SVGID_2_)" fill="#231F20" points="117.696,180.312 117.696,167.242 126.067,167.242 126.067,169.022 
		119.679,169.022 119.679,172.841 125.112,172.841 125.112,174.603 119.679,174.603 119.679,178.531 126.067,178.531 
		126.067,180.312 	"/>
	<path clip-path="url(#SVGID_2_)" fill="#231F20" d="M133.719,175.171h-2.974v5.141h-1.982v-13.069h4.956
		c2.479,0,4.185,1.615,4.185,3.965S136.197,175.171,133.719,175.171 M133.59,169.022h-2.845v4.369h2.845
		c1.433,0,2.332-0.846,2.332-2.185C135.922,169.849,135.022,169.022,133.59,169.022"/>
	<polygon clip-path="url(#SVGID_2_)" fill="#231F20" points="147.96,180.312 147.96,170.821 142.105,180.312 140.306,180.312 
		140.306,167.242 142.288,167.242 142.288,176.714 148.125,167.242 149.942,167.242 149.942,180.312 	"/>
	<polygon clip-path="url(#SVGID_2_)" fill="#231F20" points="160.622,180.312 160.622,174.603 155.336,174.603 155.336,180.312 
		153.354,180.312 153.354,167.242 155.336,167.242 155.336,172.841 160.622,172.841 160.622,167.242 162.623,167.242 
		162.623,180.312 	"/>
	<polygon clip-path="url(#SVGID_2_)" fill="#231F20" points="166.071,180.312 166.071,167.242 168.054,167.242 168.054,173.446 
		172.937,167.242 175.378,167.242 170.348,173.409 175.837,180.312 173.322,180.312 168.054,173.483 168.054,180.312 	"/>
	<polygon clip-path="url(#SVGID_2_)" fill="#231F20" points="185.122,180.312 185.122,170.821 179.266,180.312 177.467,180.312 
		177.467,167.242 179.449,167.242 179.449,176.714 185.287,167.242 187.104,167.242 187.104,180.312 	"/>
</g>
</svg>
