<?xml version="1.0" encoding="utf-8"?>
<!-- Generator: Adobe Illustrator 16.0.1, SVG Export Plug-In . SVG Version: 6.00 Build 0)  -->
<!DOCTYPE svg PUBLIC "-//W3C//DTD SVG 1.1//EN" "http://www.w3.org/Graphics/SVG/1.1/DTD/svg11.dtd">
<svg version="1.1" id="Слой_1" xmlns="http://www.w3.org/2000/svg" xmlns:xlink="http://www.w3.org/1999/xlink" x="0px" y="0px"
	 width="55px" height="55px" viewBox="0 0 55 55" enable-background="new 0 0 55 55" xml:space="preserve">
<rect x="8.055" y="8.054" transform="matrix(-0.7071 -0.7071 0.7071 -0.7071 27.5002 66.3905)" fill="#33B88D" width="38.891" height="38.891"/>
<g>
	<defs>
		<rect id="SVGID_1_" x="12.056" y="19.5" width="28.938" height="16.574"/>
	</defs>
	<clipPath id="SVGID_2_">
		<use xlink:href="#SVGID_1_"  overflow="visible"/>
	</clipPath>
	<path clip-path="url(#SVGID_2_)" fill="#FFFFFF" d="M37.621,26.377c0.41-0.529,0.735-0.955,0.977-1.275
		c1.731-2.302,2.48-3.773,2.251-4.414l-0.091-0.151c-0.06-0.089-0.215-0.172-0.465-0.247c-0.25-0.075-0.57-0.086-0.961-0.038
		l-4.323,0.031c-0.101-0.01-0.2-0.008-0.3,0.007c-0.1,0.016-0.165,0.03-0.195,0.045c-0.03,0.016-0.056,0.028-0.074,0.037
		l-0.061,0.045c-0.05,0.031-0.104,0.083-0.165,0.159c-0.06,0.074-0.111,0.162-0.15,0.262c-0.471,1.211-1.005,2.338-1.607,3.378
		c-0.369,0.62-0.71,1.159-1.02,1.614c-0.312,0.455-0.571,0.791-0.78,1.005c-0.21,0.215-0.401,0.389-0.571,0.518
		c-0.17,0.131-0.3,0.186-0.39,0.165c-0.091-0.019-0.175-0.039-0.256-0.06c-0.14-0.089-0.252-0.212-0.337-0.367
		c-0.085-0.155-0.143-0.35-0.173-0.586c-0.029-0.235-0.05-0.437-0.052-0.609c-0.007-0.17-0.004-0.409,0.006-0.72
		c0.011-0.309,0.017-0.519,0.017-0.63c0-0.38,0.006-0.793,0.021-1.238c0.017-0.446,0.028-0.799,0.039-1.058
		c0.009-0.261,0.015-0.536,0.015-0.828c0-0.289-0.018-0.516-0.054-0.682c-0.033-0.164-0.087-0.324-0.156-0.48
		c-0.07-0.155-0.174-0.275-0.308-0.361c-0.136-0.084-0.303-0.152-0.504-0.202c-0.531-0.12-1.206-0.184-2.026-0.196
		c-1.862-0.019-3.058,0.101-3.589,0.361c-0.21,0.11-0.399,0.261-0.57,0.45c-0.181,0.222-0.205,0.342-0.076,0.361
		c0.601,0.089,1.026,0.306,1.277,0.646l0.09,0.18c0.071,0.131,0.14,0.361,0.21,0.691c0.069,0.33,0.115,0.694,0.136,1.095
		c0.05,0.731,0.05,1.355,0,1.877c-0.05,0.521-0.097,0.925-0.143,1.215c-0.045,0.291-0.113,0.526-0.202,0.706
		c-0.091,0.181-0.151,0.291-0.181,0.33c-0.031,0.041-0.055,0.066-0.075,0.076c-0.131,0.049-0.265,0.074-0.406,0.074
		c-0.139,0-0.309-0.069-0.51-0.21c-0.201-0.139-0.408-0.332-0.623-0.578c-0.215-0.244-0.458-0.587-0.728-1.029
		c-0.271-0.439-0.551-0.96-0.841-1.561l-0.239-0.435c-0.15-0.28-0.356-0.688-0.617-1.224c-0.26-0.535-0.49-1.052-0.689-1.554
		c-0.081-0.21-0.201-0.368-0.361-0.48l-0.075-0.044c-0.05-0.04-0.131-0.083-0.241-0.128c-0.11-0.045-0.225-0.078-0.345-0.098
		l-4.113,0.03c-0.42,0-0.705,0.096-0.856,0.285l-0.06,0.091c-0.03,0.05-0.045,0.131-0.045,0.239c0,0.112,0.031,0.246,0.091,0.407
		c0.6,1.411,1.252,2.772,1.958,4.082c0.706,1.312,1.32,2.368,1.839,3.169c0.521,0.801,1.052,1.556,1.593,2.266
		c0.54,0.71,0.898,1.167,1.073,1.366c0.175,0.201,0.312,0.352,0.412,0.45l0.376,0.361c0.24,0.24,0.592,0.527,1.057,0.863
		c0.466,0.335,0.981,0.666,1.548,0.989c0.564,0.327,1.223,0.591,1.973,0.797c0.751,0.205,1.481,0.288,2.193,0.248h1.725
		c0.351-0.029,0.614-0.14,0.797-0.331l0.059-0.073c0.039-0.061,0.078-0.152,0.112-0.279c0.036-0.124,0.054-0.262,0.054-0.411
		c-0.01-0.43,0.022-0.819,0.098-1.164c0.073-0.346,0.159-0.604,0.255-0.781c0.096-0.175,0.203-0.322,0.321-0.441
		c0.12-0.122,0.206-0.193,0.257-0.22c0.051-0.023,0.091-0.042,0.119-0.052c0.24-0.08,0.523-0.003,0.849,0.232
		c0.326,0.235,0.631,0.525,0.916,0.871s0.628,0.732,1.027,1.164c0.402,0.43,0.751,0.75,1.053,0.961l0.3,0.18
		c0.2,0.12,0.459,0.229,0.78,0.33c0.319,0.1,0.602,0.126,0.842,0.076l3.842-0.062c0.38,0,0.677-0.062,0.886-0.188
		c0.21-0.122,0.336-0.262,0.375-0.412c0.041-0.149,0.044-0.319,0.008-0.51c-0.034-0.189-0.068-0.322-0.104-0.397
		c-0.036-0.076-0.068-0.137-0.097-0.187c-0.502-0.902-1.457-2.008-2.869-3.318l-0.06-0.062h-0.015
		c-0.641-0.608-1.046-1.021-1.216-1.23c-0.311-0.4-0.38-0.805-0.21-1.216C36.392,28.034,36.841,27.379,37.621,26.377"/>
</g>
</svg>
