<?xml version="1.0" encoding="utf-8"?>
<!-- Generator: Adobe Illustrator 16.0.1, SVG Export Plug-In . SVG Version: 6.00 Build 0)  -->
<!DOCTYPE svg PUBLIC "-//W3C//DTD SVG 1.1//EN" "http://www.w3.org/Graphics/SVG/1.1/DTD/svg11.dtd">
<svg version="1.1" id="Слой_1" xmlns="http://www.w3.org/2000/svg" xmlns:xlink="http://www.w3.org/1999/xlink" x="0px" y="0px"
	 width="238px" height="205.426px" viewBox="0 0 238 205.426" enable-background="new 0 0 238 205.426" xml:space="preserve">
<rect x="69.851" y="32.853" transform="matrix(-0.7071 -0.7071 0.7071 -0.7071 145.1617 224.1314)" fill="#FFFFFF" width="98.298" height="98.298"/>
<polygon fill="#231F20" points="75.414,171.32 80.756,164.418 75.873,158.251 78.296,158.251 82.94,164.455 82.94,158.251 
	84.94,158.251 84.94,164.455 89.566,158.251 91.972,158.251 87.125,164.418 92.448,171.32 89.971,171.32 84.94,164.492 
	84.94,171.32 82.94,171.32 82.94,164.492 77.91,171.32 "/>
<polygon fill="#231F20" points="94.078,171.32 94.078,158.251 102.448,158.251 102.448,160.031 96.06,160.031 96.06,163.85 
	101.494,163.85 101.494,165.611 96.06,165.611 96.06,169.54 102.448,169.54 102.448,171.32 "/>
<polygon fill="#231F20" points="112.414,171.32 112.414,165.611 107.127,165.611 107.127,171.32 105.144,171.32 105.144,158.251 
	107.127,158.251 107.127,163.85 112.414,163.85 112.414,158.251 114.415,158.251 114.415,171.32 "/>
<g>
	<defs>
		<rect id="SVGID_1_" width="238" height="205.426"/>
	</defs>
	<clipPath id="SVGID_2_">
		<use xlink:href="#SVGID_1_"  overflow="visible"/>
	</clipPath>
	<path clip-path="url(#SVGID_2_)" fill="#231F20" d="M122.028,171.431c-1.358,0-2.533-0.496-3.433-1.396
		c-1.284-1.284-1.266-2.734-1.266-5.25c0-2.514-0.018-3.964,1.266-5.25c0.9-0.898,2.075-1.394,3.433-1.394
		c2.405,0,4.204,1.413,4.663,4.019h-2.02c-0.312-1.32-1.193-2.238-2.644-2.238c-0.771,0-1.468,0.294-1.927,0.789
		c-0.643,0.698-0.79,1.449-0.79,4.074s0.147,3.378,0.79,4.076c0.459,0.496,1.155,0.789,1.927,0.789c1.45,0,2.35-0.917,2.662-2.24
		h2.001C126.251,170.017,124.396,171.431,122.028,171.431"/>
	<polygon clip-path="url(#SVGID_2_)" fill="#231F20" points="129.386,171.32 129.386,158.251 131.369,158.251 131.369,164.455 
		136.252,158.251 138.693,158.251 133.663,164.418 139.151,171.32 136.637,171.32 131.369,164.492 131.369,171.32 	"/>
	<path clip-path="url(#SVGID_2_)" fill="#231F20" d="M148.309,171.32l-0.918-2.625h-5.158l-0.918,2.625h-2.093l4.791-13.069h1.598
		l4.772,13.069H148.309z M144.857,161.206l-2.056,5.801h4.057L144.857,161.206z"/>
	<path clip-path="url(#SVGID_2_)" fill="#231F20" d="M153.702,171.32h-2.35l2.846-5.507c-1.542-0.532-2.516-1.836-2.516-3.598
		c0-2.423,1.689-3.965,4.167-3.965h4.975v13.069h-2.001v-5.14h-2.588L153.702,171.32z M158.823,160.013h-2.845
		c-1.432,0-2.313,0.826-2.313,2.185c0,1.339,0.882,2.203,2.313,2.203h2.845V160.013z"/>
	<path clip-path="url(#SVGID_2_)" fill="#231F20" d="M58.56,189.677c-1.358,0-2.533-0.496-3.433-1.396
		c-1.284-1.284-1.266-2.734-1.266-5.25c0-2.514-0.018-3.964,1.266-5.25c0.9-0.898,2.075-1.394,3.433-1.394
		c2.405,0,4.204,1.413,4.663,4.019h-2.019c-0.312-1.32-1.194-2.238-2.644-2.238c-0.771,0-1.468,0.294-1.927,0.789
		c-0.642,0.698-0.79,1.449-0.79,4.074s0.148,3.378,0.79,4.076c0.459,0.496,1.156,0.789,1.927,0.789c1.45,0,2.35-0.917,2.662-2.24
		h2.001C62.783,188.263,60.928,189.677,58.56,189.677"/>
	<path clip-path="url(#SVGID_2_)" fill="#231F20" d="M73.021,189.566l-0.918-2.625h-5.158l-0.918,2.625h-2.093l4.791-13.069h1.598
		l4.772,13.069H73.021z M69.57,179.452l-2.056,5.801h4.057L69.57,179.452z"/>
	<polygon clip-path="url(#SVGID_2_)" fill="#231F20" points="86.492,189.566 86.492,180.829 83.481,187.198 82.013,187.198 
		78.947,180.829 78.947,189.566 76.965,189.566 76.965,176.497 78.929,176.497 82.747,184.629 86.51,176.497 88.493,176.497 
		88.493,189.566 	"/>
	<path clip-path="url(#SVGID_2_)" fill="#231F20" d="M100.824,183.215c0,2.148-0.018,3.78-1.266,5.066
		c-0.9,0.918-2.074,1.396-3.451,1.396c-1.359,0-2.533-0.478-3.433-1.396c-1.248-1.267-1.267-3.047-1.267-4.994v-0.861
		c0-2.147,0.167-3.543,1.267-4.645c0.9-0.899,2.093-1.395,3.433-1.395c1.358,0,2.551,0.495,3.451,1.395
		c1.01,1.028,1.266,2.479,1.266,4.332V183.215z M98.053,178.975c-0.514-0.532-1.193-0.809-1.946-0.809
		c-0.734,0-1.432,0.276-1.946,0.809c-0.734,0.771-0.753,2.056-0.753,3.727v1.12c0,1.34,0.056,2.569,0.753,3.267
		c0.533,0.532,1.194,0.808,1.946,0.808c0.771,0,1.45-0.275,1.946-0.808c0.771-0.808,0.771-1.965,0.771-4.185
		C98.824,180.921,98.787,179.745,98.053,178.975"/>
	<path clip-path="url(#SVGID_2_)" fill="#231F20" d="M112.697,183.215c0,2.148-0.018,3.78-1.266,5.066
		c-0.9,0.918-2.074,1.396-3.451,1.396c-1.359,0-2.533-0.478-3.433-1.396c-1.248-1.267-1.267-3.047-1.267-4.994v-0.861
		c0-2.147,0.167-3.543,1.267-4.645c0.9-0.899,2.093-1.395,3.433-1.395c1.358,0,2.551,0.495,3.451,1.395
		c1.01,1.028,1.266,2.479,1.266,4.332V183.215z M109.926,178.975c-0.514-0.532-1.193-0.809-1.946-0.809
		c-0.734,0-1.432,0.276-1.946,0.809c-0.734,0.771-0.753,2.056-0.753,3.727v1.12c0,1.34,0.056,2.569,0.753,3.267
		c0.533,0.532,1.194,0.808,1.946,0.808c0.771,0,1.45-0.275,1.946-0.808c0.771-0.808,0.771-1.965,0.771-4.185
		C110.697,180.921,110.66,179.745,109.926,178.975"/>
	<path clip-path="url(#SVGID_2_)" fill="#231F20" d="M120.716,189.565h-5.085v-13.068h8.407v1.78h-6.425v3.359h3.103
		c2.533,0,4.13,1.615,4.13,3.965S123.268,189.565,120.716,189.565 M120.587,183.417h-2.974v4.369h2.974
		c1.432,0,2.276-0.826,2.276-2.185C122.863,184.262,122.019,183.417,120.587,183.417"/>
	<path clip-path="url(#SVGID_2_)" fill="#231F20" d="M136.59,183.215c0,2.148-0.018,3.78-1.266,5.066
		c-0.9,0.918-2.074,1.396-3.451,1.396c-1.358,0-2.533-0.478-3.433-1.396c-1.248-1.267-1.268-3.047-1.268-4.994v-0.861
		c0-2.147,0.167-3.543,1.268-4.645c0.899-0.899,2.093-1.395,3.433-1.395c1.358,0,2.551,0.495,3.451,1.395
		c1.01,1.028,1.266,2.479,1.266,4.332V183.215z M133.819,178.975c-0.514-0.532-1.193-0.809-1.946-0.809
		c-0.733,0-1.432,0.276-1.945,0.809c-0.734,0.771-0.754,2.056-0.754,3.727v1.12c0,1.34,0.057,2.569,0.754,3.267
		c0.532,0.532,1.193,0.808,1.945,0.808c0.771,0,1.45-0.275,1.946-0.808c0.771-0.808,0.771-1.965,0.771-4.185
		C134.59,180.921,134.554,179.745,133.819,178.975"/>
	<path clip-path="url(#SVGID_2_)" fill="#231F20" d="M144.48,184.427h-2.974v5.14h-1.982v-13.069h4.956
		c2.478,0,4.185,1.615,4.185,3.965S146.958,184.427,144.48,184.427 M144.353,178.277h-2.846v4.369h2.846
		c1.432,0,2.331-0.845,2.331-2.185C146.684,179.104,145.784,178.277,144.353,178.277"/>
	<path clip-path="url(#SVGID_2_)" fill="#231F20" d="M160.007,183.215c0,2.148-0.019,3.78-1.267,5.066
		c-0.899,0.918-2.074,1.396-3.451,1.396c-1.358,0-2.532-0.478-3.433-1.396c-1.248-1.267-1.267-3.047-1.267-4.994v-0.861
		c0-2.147,0.167-3.543,1.267-4.645c0.9-0.899,2.093-1.395,3.433-1.395c1.358,0,2.552,0.495,3.451,1.395
		c1.01,1.028,1.267,2.479,1.267,4.332V183.215z M157.235,178.975c-0.514-0.532-1.193-0.809-1.946-0.809
		c-0.733,0-1.432,0.276-1.945,0.809c-0.734,0.771-0.753,2.056-0.753,3.727v1.12c0,1.34,0.056,2.569,0.753,3.267
		c0.532,0.532,1.193,0.808,1.945,0.808c0.771,0,1.45-0.275,1.946-0.808c0.771-0.808,0.771-1.965,0.771-4.185
		C158.007,180.921,157.97,179.745,157.235,178.975"/>
	<polygon clip-path="url(#SVGID_2_)" fill="#231F20" points="170.21,189.566 170.21,183.857 164.923,183.857 164.923,189.566 
		162.94,189.566 162.94,176.497 164.923,176.497 164.923,182.096 170.21,182.096 170.21,176.497 172.211,176.497 172.211,189.566 	
		"/>
	<path clip-path="url(#SVGID_2_)" fill="#231F20" d="M183.129,189.566l-0.918-2.625h-5.158l-0.918,2.625h-2.093l4.791-13.069h1.598
		l4.772,13.069H183.129z M179.678,179.452l-2.056,5.801h4.057L179.678,179.452z"/>
	<path clip-path="url(#SVGID_2_)" d="M99.024,58.033c0,2.882-2.336,5.218-5.218,5.218c-2.883,0-5.219-2.336-5.219-5.218
		c0-2.882,2.336-5.218,5.219-5.218C96.688,52.815,99.024,55.151,99.024,58.033"/>
	<path clip-path="url(#SVGID_2_)" d="M146.057,63.251c0,2.882-2.336,5.218-5.218,5.218c-2.883,0-5.22-2.336-5.22-5.218
		s2.337-5.218,5.22-5.218C143.721,58.034,146.057,60.37,146.057,63.251"/>
	<path clip-path="url(#SVGID_2_)" d="M148.646,75.535c-0.122-1.004-0.753-1.874-1.677-2.289l-6.63-3.01l-5.648-2.86
		c-0.202-0.165-0.42-0.309-0.663-0.415l-4.619-1.985c-0.175-0.074-0.361-0.132-0.552-0.17l-8.531-1.783
		c-1.56-0.329-3.095,0.674-3.418,2.234c-0.323,1.567,0.674,3.096,2.234,3.419l8.256,1.725l2.268,0.971l-3.027,4.019l-16.154-5.913
		c-1.709-0.626-3.604,0.249-4.236,1.964c-0.509,1.395-0.011,2.898,1.114,3.753l-2.823,1.034l-1.928-7.208l1.063-0.228
		c0.976-0.212,1.772-0.913,2.112-1.848l3.191-8.881c0.535-1.502-0.245-3.153-1.741-3.694c-1.497-0.542-3.154,0.238-3.695,1.741
		l-2.585,7.177l-1.179,0.435l-0.43,0.091c-0.367,0.079-0.701,0.228-0.997,0.429l-4.243,1.545c-1.284,0.473-1.995,1.906-1.582,3.212
		l5.787,18.421l0.069-0.042l0.605,6.396l-5.813,11.864c-0.801,1.635-0.127,3.614,1.513,4.417c0.467,0.228,0.961,0.334,1.45,0.334
		c1.22,0,2.393-0.68,2.967-1.848l6.221-12.703c0.266-0.547,0.383-1.153,0.325-1.763l-0.988-10.421c0-0.015-0.006-0.031-0.011-0.047
		l1.609-0.961l-0.005-0.016l4.942-1.811l4.921,4.306c0.627,0.547,1.401,0.818,2.17,0.818c0.919,0,1.832-0.382,2.485-1.125
		c1.199-1.376,1.062-3.456-0.309-4.656l-0.005-0.006l5.032,1.843c0.208,0.073,0.42,0.121,0.627,0.154l0.038,0.053
		c-0.038,0.292-0.055,0.584-0.012,0.886l1.529,11.169l-0.765,11.27c-0.123,1.816,1.253,3.392,3.067,3.514
		c0.08,0.007,0.154,0.007,0.229,0.007c1.72,0,3.174-1.333,3.291-3.074l0.786-11.604c0.016-0.223,0.01-0.446-0.022-0.669
		l-1.242-9.078l2.984-3.891l3.412-4.576l3.689,1.672l0.776,6.508c0.174,1.471,1.422,2.548,2.866,2.548
		c0.112,0,0.228-0.005,0.34-0.02c1.587-0.186,2.718-1.625,2.526-3.207L148.646,75.535z"/>
</g>
</svg>
