<?xml version="1.0" encoding="utf-8"?>
<!-- Generator: Adobe Illustrator 16.0.1, SVG Export Plug-In . SVG Version: 6.00 Build 0)  -->
<!DOCTYPE svg PUBLIC "-//W3C//DTD SVG 1.1//EN" "http://www.w3.org/Graphics/SVG/1.1/DTD/svg11.dtd">
<svg version="1.1" id="Слой_1" xmlns="http://www.w3.org/2000/svg" xmlns:xlink="http://www.w3.org/1999/xlink" x="0px" y="0px"
	 width="345.179px" height="182.246px" viewBox="0 0 345.179 182.246" enable-background="new 0 0 345.179 182.246"
	 xml:space="preserve">
<path fill="#FF4D00" d="M122.5,33.694c-7.271-0.183-12.673-0.498-18.702,5.981c0.07,1.009-2.441,3.417-1.205,3.581l2.525,4.926
	l18.816-13.765L122.5,33.694L122.5,33.694z"/>
<path fill="#FF4D00" d="M103.171,13.449l-14.529,5.084l-4.209,6.482c2.395,1.297,1.516,3.601,3.994,4.994
	c0.529,0.609,6.264-4.184,6.975-3.366l8.48-12.377L103.171,13.449L103.171,13.449z"/>
<path fill="#FF4D00" d="M68.638,0.027c-4.832,7.129-8.07,13.771-7.904,23.171l9.926-3.025L68.521,3.339
	c0.319-0.56,0.553-1.55,1.187-3.339L68.638,0.027L68.638,0.027z"/>
<path fill="#FF4D00" d="M127.01,67.11c-4.88-4.852-9.911-9.909-17.302-9.003c-0.982,0.658-1.151,1.424-2.176,2.962l-0.201,7.719
	l19.723,0.592C127.761,68.935,128.395,66.947,127.01,67.11L127.01,67.11z"/>
<path fill="#FF4D00" d="M45.751,13.616c-0.627-0.722-1.157-1.331-2.161-2.485c-5.674-5.543-3.2,3.738-5.1,6.29
	c0.18,5.109,0.927,9.977,3.297,12.702c3.115-0.822,5.608-4.678,8.895-6.661L45.751,13.616L45.751,13.616z"/>
<path fill="#FF4D00" d="M31.282,36.158L15.492,29.39l8.307,15.947c0.53,0.412,1.728,1.061,3.019,0.558l4.97-9.388L31.282,36.158
	L31.282,36.158z"/>
<path fill="#FF4D00" d="M62.323,114.49l-11.42-2.966l-1.529,18.133c0.476,1.276,2.703-0.731,4.123-1.516l9.355-13.042L62.323,114.49
	L62.323,114.49z"/>
<path fill="#FF4D00" d="M19.222,66.572c-0.488-0.562-1.15-0.525-2.428-0.936L0,72.405l17.469,4.402l2.425-9.131
	C19.811,67.58,19.504,67.228,19.222,66.572L19.222,66.572z"/>
<polygon fill="#FF4D00" points="36.854,102.255 29.857,94.008 18.611,110.287 35.973,105.978 37.546,102.555 36.854,102.255 "/>
<path fill="#FFFF00" d="M113.642,37.649c-2.234,0.874-5.85,1.453-8.092,4.106c0.391,0.449,0.574,1.19,1.324,1.523L113.642,37.649
	L113.642,37.649z"/>
<path fill="#FFFF00" d="M97.414,18.453c-4.38,0.428-7.692,3.309-10.026,7.646L97.414,18.453L97.414,18.453z"/>
<path fill="#FFFF00" d="M120.242,63.731l-8.51-2.767c-0.761,1.112,0.184,2.431,0.011,3.988c2.979,1.438,5.871-1.528,8.889-0.773
	L120.242,63.731L120.242,63.731z"/>
<path fill="#FFFF00" d="M66.854,9.602l-3.496,7.938c0.307,0.353,0.451,1.016,1.227,1.608c1.352-0.134,1.459-1.269,2.537-1.784
	l0.191-8.16L66.854,9.602L66.854,9.602z"/>
<path fill="#FFFF00" d="M44.161,16.49l-0.793-0.184c-3.209,1.973-1.142,5.609-0.814,8.703c1.158,1.133,2.557-0.703,3.572-1.754
	L44.161,16.49L44.161,16.49z"/>
<path fill="#FFFF00" d="M25.84,37.848l-4.396-1.611c0.361,1.376,1.223,4.652,3.264,5.974c1.737,0.011,1.737-1.679,1.969-3.4
	C26.37,38.457,26.286,38.361,25.84,37.848L25.84,37.848z"/>
<path fill="#FFFF00" d="M56.198,114.44c-0.633,0.1-2.711-0.402-3.081,1.158c1.282,1.476-2.677,9.069-1.45,10.48l5.928-10.994
	L56.198,114.44L56.198,114.44z"/>
<path fill="#FFFF00" d="M15.755,68.347L9.63,70.742c-0.508,2.132,3.548,1.365,5.206,3.471c2.196-0.389,1.201-3.521,1.503-5.923
	L15.755,68.347L15.755,68.347z"/>
<path fill="#FFFF00" d="M32.713,102.758c-0.14-0.16-1.197-0.648-1.973-1.043c-0.507-1.08-0.911-1.545-1.232-3.405l-4.512,7.497
	l8.414-2.246L32.713,102.758L32.713,102.758z"/>
<path fill="#00441C" d="M73.069,164.171c0.098-0.225,0.164-0.379,0.196-0.464c0.032-0.098,0.171-0.344,0.417-0.738l0.148-0.295
	l0.221-0.358c0.425-0.914,0.735-1.497,0.934-1.751c0.179-0.225,0.359-0.646,0.539-1.266c0.099-0.337,0.336-0.78,0.713-1.328
	c0.359-0.76,0.646-1.266,0.859-1.519c0.064-0.112,0.154-0.231,0.27-0.359c0.114-0.14,0.229-0.379,0.344-0.717
	c0.049-0.14,0.221-0.379,0.516-0.717c0-0.027,0.073-0.161,0.221-0.4c0.065-0.127,0.164-0.288,0.295-0.485
	c0.213-0.295,0.482-0.696,0.811-1.202l0.318-0.38c0.115-0.183,0.229-0.344,0.344-0.485c0.099-0.126,0.229-0.302,0.393-0.526
	c0.148-0.226,0.246-0.365,0.295-0.422c0.18-0.239,0.277-0.38,0.295-0.422c0.098-0.141,0.229-0.288,0.393-0.443
	c0.164-0.211,0.336-0.316,0.516-0.316c0.736,0,1.105,0.408,1.105,1.224c0,0.112,0,0.218,0,0.316
	c-0.033,0.365-0.049,0.576-0.049,0.633c0,0.014,0.007,0.126,0.023,0.337c-0.017,0.353-0.023,0.689-0.023,1.012
	c-0.033,0.113-0.148,0.359-0.344,0.738c-0.099,0.521-0.182,0.887-0.246,1.098c-0.049,0.099-0.313,0.725-0.785,1.877l-0.173,0.442
	c-0.164,0.465-0.27,0.725-0.319,0.78c-0.016,0.043-0.131,0.148-0.344,0.317c-0.082,0.099-0.146,0.4-0.195,0.906
	c-0.066,0.239-0.264,0.479-0.59,0.717c-0.049,0.057-0.098,0.232-0.146,0.527c-0.018,0.142-0.222,0.479-0.615,1.013l-0.221,0.253
	l-0.318,0.549l-0.344,0.379l-0.295,0.485l-0.172,0.274l-0.295,0.506l-0.221,0.19l-0.516,0.759l-0.59,0.823l-0.294,0.506
	l-0.222,0.253l-0.098,0.169c-0.279,0.253-0.426,0.408-0.441,0.464c0,0.028,0,0.189,0,0.485c0,0.057-0.164,0.358-0.492,0.906
	l-0.172,0.316l-0.761,1.455l-0.294,0.696l-0.172,0.296l-0.123,0.273l-0.27,0.38l-0.148,0.316L72.8,172.46l-0.319,1.139l-0.368,1.013
	l-0.197,0.696c-0.213,0.604-0.318,1.139-0.318,1.603c0,0.184,0.064,0.358,0.196,0.527c0.261,0.337,0.392,0.548,0.393,0.633
	c0,0.154-0.336,0.471-1.007,0.949c-0.344,0.253-0.557,0.407-0.639,0.464c-0.082,0.042-0.294,0.091-0.638,0.147
	c-0.36,0.253-0.663,0.38-0.909,0.38c-0.098,0-0.221-0.015-0.367-0.042c-0.492-0.113-0.746-0.162-0.762-0.147
	c-0.589-0.058-0.975-0.155-1.154-0.296c-0.195-0.169-0.294-0.337-0.294-0.506c0-0.043,0.04-0.218,0.122-0.527l0.049-0.253
	l0.492-1.562c0.081-0.337,0.154-0.583,0.221-0.737c0.049-0.127,0.203-0.331,0.467-0.612c0.098-0.098,0.146-0.196,0.146-0.295
	c0-0.014,0-0.027,0-0.042c-0.049-0.253-0.073-0.394-0.073-0.422c0-0.07,0.081-0.323,0.245-0.76l0.099-0.337l0.196-0.38l0.344-0.738
	l0.123-0.19l0.221-0.379l0.197-0.295l0.221-0.738c0.13-0.323,0.195-0.514,0.195-0.569c0-0.085-0.204-0.218-0.613-0.401
	c-0.196-0.098-0.4-0.288-0.613-0.569l-0.172-0.232l-0.393-0.569l-0.271-0.4l-0.172-0.527l-0.367-0.464l-0.221-0.611l-0.172-0.232
	l-0.1-0.231l-0.195-0.359l-0.147-0.358l-0.222-0.38l-0.146-0.78c-0.197-0.309-0.344-0.695-0.442-1.16
	c-0.426-1.251-0.638-1.904-0.638-1.961v-0.253c0-0.085-0.091-0.302-0.271-0.654c-0.049-0.084-0.091-0.302-0.123-0.653l-0.122-0.358
	l-0.05-0.316l-0.049-0.253l-0.123-0.696l-0.049-0.253l-0.049-0.844c-0.033-0.296-0.05-0.465-0.05-0.507s0-0.084,0-0.126
	c0.017-0.085,0.024-0.147,0.025-0.19c0-0.056-0.099-0.175-0.295-0.358c-0.066-0.084-0.115-0.491-0.147-1.223
	c0-0.169-0.05-0.584-0.147-1.244c0-0.028,0-0.042,0-0.043c0-0.407,0.221-0.864,0.663-1.371c0.262-0.309,0.54-0.463,0.835-0.464
	c0.049,0,0.098,0,0.146,0c0.164,0.028,0.262,0.043,0.295,0.043c0.049,0,0.254-0.077,0.614-0.232l0.589-0.189
	c0.277-0.154,0.498-0.232,0.663-0.232c0.212,0,0.54,0.197,0.981,0.591c0.312,0.239,0.5,0.407,0.565,0.506
	c0.032,0.084,0.058,0.232,0.073,0.443l0.049,0.4l-0.072,1.603l0.049,0.907l-0.049,1.35c0,0.084,0.023,0.239,0.072,0.464
	c0.066,0.296,0.131,0.942,0.197,1.94l0.146,0.612l0.05,0.484l0.099,0.38l0.073,0.569l0.271,0.675l0.023,0.232l0.099,0.38
	l0.024,0.273l0.197,0.591l0.098,0.548c0.196,0.549,0.303,0.915,0.319,1.098c0.032,0.407,0.081,0.661,0.147,0.759
	c0.016,0.028,0.139,0.162,0.367,0.401c0.312,0.534,0.5,0.801,0.565,0.801c0.05,0,0.319-0.322,0.811-0.97
	C72.651,164.86,72.905,164.396,73.069,164.171L73.069,164.171z"/>
<path fill-rule="evenodd" clip-rule="evenodd" fill="#00441C" d="M80.999,174.991c-0.408,0.267-0.678,0.471-0.81,0.611
	c-0.13,0.127-0.237,0.204-0.319,0.232c-0.016,0-0.253,0.028-0.712,0.084c-0.425-0.056-0.712-0.315-0.859-0.78l-0.245-0.358
	c0,0,0.017-0.021,0.049-0.063c0.049-0.057,0.131-0.218,0.246-0.485l0.613-0.422l0.441-0.358c0.328-0.169,0.533-0.295,0.615-0.38
	c0.082-0.069,0.154-0.188,0.22-0.358c0.147-0.084,0.271-0.217,0.368-0.4c0.033-0.042,0.141-0.148,0.32-0.316
	c0.049-0.056,0.639-0.379,1.768-0.971l0.417-0.464l0.319-0.189c0.196-0.225,0.335-0.372,0.417-0.443
	c0.245-0.211,0.581-0.491,1.007-0.844c0.131-0.056,0.221-0.091,0.27-0.105c0.197-0.069,0.311-0.133,0.344-0.189
	c0.017-0.014,0.106-0.147,0.271-0.4l0.294-0.274l0.123-0.147l0.541-0.4l0.27-0.254l0.344-0.253l0.27-0.253
	c0.246-0.141,0.492-0.345,0.737-0.611c0.229-0.211,0.507-0.45,0.835-0.718c0.539-0.394,0.859-0.604,0.957-0.633
	c0.147-0.056,0.352-0.083,0.614-0.084c0.13,0,0.359,0.035,0.688,0.105c0.343,0.07,0.548,0.134,0.614,0.189
	c0.08,0.028,0.121,0.085,0.122,0.169c0,0.028-0.164,0.311-0.491,0.844c-0.017,0.042-0.024,0.085-0.024,0.127
	c0,0.099,0.05,0.147,0.147,0.147c0.064,0,0.253-0.085,0.564-0.253c0.54-0.226,1.17-0.38,1.891-0.465
	c0.246,0.015,0.408,0.036,0.491,0.063c0.179,0.028,0.367,0.05,0.564,0.063c0.099,0,0.368,0.112,0.81,0.338l0.271,0.189l0.196,0.085
	c0.327,0.268,0.588,0.563,0.786,0.886c0.245,0.379,0.368,0.829,0.368,1.35c0.065,0.365,0.098,0.563,0.098,0.59
	c0,0.015-0.016,0.254-0.049,0.718c-0.017,0.099-0.188,0.563-0.516,1.392l-0.098,0.358l-0.123,0.211l-0.172,0.358l-0.344,0.507
	c-0.033,0.281-0.401,0.928-1.104,1.94l-1.228,0.864c-0.082,0.057-0.385,0.345-0.909,0.865c-0.229,0.211-0.523,0.436-0.884,0.675
	l-0.441,0.38c-0.441,0.295-0.721,0.463-0.835,0.506l-0.368,0.189c-0.344,0.085-0.582,0.169-0.712,0.253
	c-0.263,0.197-0.598,0.338-1.007,0.422c-0.295,0.071-0.475,0.105-0.541,0.105c-0.016,0-0.18-0.014-0.49-0.042h-0.024
	c-0.05,0-0.123,0.021-0.222,0.063c-0.164,0.07-0.287,0.105-0.367,0.105H87.31c-1.211-0.028-1.98-0.267-2.308-0.717
	c-0.05-0.057-0.287-0.162-0.712-0.316c-0.328-0.141-0.623-0.604-0.885-1.393c-0.098-0.28-0.146-0.505-0.146-0.675
	c0-0.533,0.057-1.032,0.172-1.497v-0.316c0.131-0.31,0.195-0.548,0.196-0.718c0-0.153-0.058-0.23-0.172-0.231
	c-0.165,0-0.435,0.099-0.811,0.295c-0.36,0.197-0.68,0.415-0.957,0.654c-0.132,0.126-0.238,0.268-0.319,0.422
	C81.286,174.71,81.163,174.851,80.999,174.991L80.999,174.991z M92.392,169.19c-0.344,0-0.826,0.232-1.448,0.696
	c-0.147,0.113-0.45,0.506-0.908,1.181c-0.132,0.184-0.271,0.303-0.418,0.359c-0.048,0.015-0.286,0.057-0.712,0.126
	c-0.098,0.015-0.426,0.5-0.982,1.455c-0.229,0.521-0.352,0.844-0.367,0.971c-0.115,0.31-0.189,0.703-0.222,1.181
	c0.099,0.746,0.475,1.118,1.13,1.118l0.418,0.042c0.049,0,0.221-0.069,0.515-0.211c0.851-0.309,1.661-0.737,2.431-1.286
	c0.311-0.225,0.557-0.471,0.736-0.738l0.172-0.127l0.221-0.189c0.18-0.127,0.318-0.253,0.418-0.38
	c0.032-0.042,0.195-0.449,0.491-1.224c0.261-0.491,0.392-0.885,0.393-1.181c0-0.506-0.214-1.005-0.638-1.497
	c-0.115-0.141-0.393-0.218-0.836-0.232C92.589,169.212,92.458,169.19,92.392,169.19L92.392,169.19z"/>
<path fill="#00441C" d="M98.751,174.991c-0.409,0.267-0.68,0.471-0.811,0.611c-0.13,0.127-0.236,0.204-0.318,0.232
	c-0.016,0-0.254,0.028-0.713,0.084c-0.425-0.056-0.711-0.315-0.859-0.78l-0.245-0.358c0,0,0.017-0.021,0.05-0.063
	c0.049-0.057,0.131-0.218,0.244-0.485l0.614-0.422l0.442-0.358c0.327-0.169,0.532-0.295,0.613-0.38
	c0.066-0.069,0.123-0.126,0.172-0.168c0-0.112,0.091-0.218,0.27-0.316c0,0,0.051-0.091,0.148-0.274
	c0.213-0.253,0.729-0.668,1.547-1.245c0.195-0.337,0.467-0.667,0.811-0.991c0.229-0.253,0.474-0.513,0.736-0.78
	c0.18-0.168,0.424-0.464,0.736-0.886c0.016,0,0.105-0.084,0.27-0.253c0.18-0.183,0.393-0.436,0.639-0.759l0.59-0.676l0.344-0.506
	c0.229-0.28,0.4-0.491,0.515-0.633c0.065-0.069,0.253-0.161,0.565-0.273c0.719-0.365,1.309-0.548,1.768-0.549
	c0.523,0,0.785,0.303,0.785,0.907c0,0.126-0.106,0.379-0.318,0.759l-0.295,0.823l-0.271,0.653l-0.221,0.696l-0.294,0.844l-0.1,0.464
	l-0.146,0.4l-0.123,0.506l-0.295,0.612l0.025,0.506c-0.082,0.858-0.123,1.315-0.123,1.371c0,0.099,0.008,0.211,0.024,0.337
	c0.017,0.422,0.024,0.661,0.024,0.718c0.016,0.717,0.18,1.075,0.49,1.075c0.066,0,0.303-0.133,0.713-0.4
	c0.246-0.141,0.498-0.26,0.762-0.358c0.031,0,0.097-0.07,0.195-0.211c0.131-0.197,0.312-0.379,0.541-0.549
	c0.146-0.141,0.523-0.52,1.129-1.139l0.441-0.422l0.787-0.971l0.172-0.147l0.244-0.295c0.361-0.38,0.605-0.703,0.737-0.971
	c0.049-0.056,0.245-0.294,0.589-0.717l0.319-0.274c0.394-0.393,0.811-0.589,1.252-0.59c0.458,0,0.818,0.028,1.081,0.084
	c0.457,0.099,0.686,0.485,0.688,1.16c0,0.057-0.009,0.26-0.025,0.611c0,0.015,0.025,0.268,0.074,0.76v0.231l0.146,0.485
	c0,0.352,0.05,0.591,0.148,0.717c0.375,0.563,0.752,0.844,1.129,0.844c0.229,0,0.572-0.069,1.031-0.211
	c0.064-0.069,0.121-0.126,0.172-0.168c0-0.154,0.147-0.288,0.441-0.401c0.278-0.099,0.549-0.146,0.811-0.147
	c0.327,0,0.598,0.147,0.811,0.442c0.098,0.142,0.146,0.303,0.146,0.485c0,0.38-0.188,0.675-0.564,0.886l-0.27,0.338l-0.172-0.042
	c0,0-0.058,0.105-0.172,0.316c-0.033,0.07-0.107,0.141-0.221,0.211c-0.197,0.112-0.328,0.183-0.393,0.211
	c-0.623,0.295-0.975,0.478-1.057,0.548l-0.639,0.296c-0.572,0.31-1.227,0.464-1.963,0.464c-1.589,0-2.66-0.929-3.217-2.784
	c-0.066-0.253-0.189-0.38-0.369-0.38c-0.098,0-0.229,0.141-0.393,0.422l-0.712,0.696l-0.368,0.464l-0.368,0.338
	c-0.278,0.352-0.508,0.604-0.688,0.759c-0.377,0.31-0.687,0.584-0.933,0.822c-0.229,0.211-0.705,0.569-1.424,1.075l-0.492,0.359
	l-0.195,0.063c-0.59,0.295-1.081,0.442-1.474,0.442c-0.394,0-0.843-0.119-1.351-0.358l-0.467-0.189l-0.318-0.338
	c-0.246-0.238-0.385-0.386-0.418-0.442c-0.066-0.169-0.221-0.802-0.467-1.898l-0.049-0.633l-0.098-0.675v-0.127l-0.049-0.442
	c-0.033-0.394-0.066-0.618-0.099-0.676c-0.049-0.056-0.122-0.083-0.222-0.084c-0.18,0-0.459,0.211-0.834,0.633
	c-0.099,0.099-0.328,0.295-0.688,0.591c-0.147,0.112-0.254,0.253-0.319,0.422C99.054,174.695,98.931,174.837,98.751,174.991
	L98.751,174.991z"/>
<path fill="#00441C" d="M119.179,174.991c-0.409,0.267-0.68,0.471-0.811,0.611c-0.131,0.127-0.237,0.204-0.319,0.232
	c-0.017,0-0.253,0.028-0.712,0.084c-0.425-0.056-0.711-0.315-0.859-0.78l-0.246-0.358c0,0,0.018-0.021,0.05-0.063
	c0.05-0.057,0.131-0.218,0.245-0.485l0.614-0.422l0.442-0.358c0.327-0.169,0.532-0.295,0.613-0.38
	c0.066-0.069,0.123-0.126,0.172-0.168c0.082-0.043,0.172-0.148,0.27-0.316c0.115-0.197,0.214-0.345,0.295-0.443
	c0.147-0.141,0.843-0.646,2.087-1.519c0.605-0.563,1.056-1.068,1.351-1.519c0-0.014,0.098-0.112,0.295-0.295
	c0.212-0.211,0.359-0.415,0.441-0.612c0.065-0.168,0.18-0.33,0.344-0.484c0.064-0.057,0.098-0.126,0.098-0.211
	c0-0.015-0.057-0.26-0.171-0.738c-0.017-0.028-0.024-0.07-0.024-0.127c0-0.211,0.221-0.464,0.662-0.759
	c0.295-0.226,0.721-0.471,1.277-0.738c0.441-0.268,0.72-0.415,0.834-0.443c0.312-0.084,0.589-0.126,0.836-0.126
	c0.736,0,1.391,0.26,1.964,0.78l0.245,0.168l0.295,0.359l0.27,0.147l0.099,0.084c0.948,0.872,1.505,1.716,1.669,2.531
	c0.033,0.126,0.098,0.358,0.197,0.695c0.064,0.24,0.105,0.563,0.123,0.971v0.253c0,0.239-0.083,0.633-0.246,1.182
	c-0.164,0.548-0.361,1.075-0.59,1.581c-0.376,0.844-0.564,1.54-0.564,2.089c0,0.099,0.049,0.147,0.147,0.147
	c0.327,0,0.671-0.147,1.031-0.443c0.147-0.141,0.467-0.337,0.958-0.59c0.18-0.099,0.646-0.457,1.398-1.076
	c0.328-0.169,0.532-0.295,0.615-0.38c0.064-0.069,0.121-0.126,0.172-0.168c0.016-0.154,0.162-0.288,0.441-0.401
	c0.277-0.099,0.547-0.146,0.811-0.147c0.326,0,0.597,0.147,0.811,0.442c0.098,0.142,0.146,0.303,0.146,0.485
	c0,0.38-0.189,0.675-0.564,0.886l-0.271,0.338l-0.172-0.042c0,0-0.058,0.105-0.171,0.316c-0.033,0.07-0.107,0.141-0.222,0.211
	c-0.426,0.267-0.778,0.555-1.056,0.864c-0.033,0.028-0.205,0.127-0.516,0.295c-0.377,0.239-0.705,0.465-0.982,0.676l-0.221,0.147
	l-0.221,0.147l-0.663,0.38l-0.491,0.316l-0.785,0.295l-0.664,0.442l-0.244,0.106l-0.295,0.147l-0.418,0.126
	c-0.475,0.296-0.867,0.443-1.178,0.443c-0.018,0-0.141-0.021-0.369-0.063c-0.017,0-0.09-0.007-0.221-0.021
	c-0.917-0.069-1.375-0.365-1.375-0.886c0-0.225,0.074-0.548,0.221-0.97l0.099-0.338l0.122-0.295c0.033-0.141,0.14-0.337,0.32-0.591
	c0.08-0.126,0.17-0.456,0.27-0.991l0.221-0.569l0.197-0.738l0.195-0.569l0.123-0.717c0.115-0.576,0.172-1.048,0.172-1.413
	c0-0.169-0.041-0.373-0.123-0.612c-0.082-0.211-0.131-0.33-0.146-0.358c-0.115-0.365-0.263-0.618-0.442-0.759
	c-0.393-0.296-0.687-0.443-0.884-0.443c-0.049,0-0.205,0.1-0.467,0.295c-0.49,0.282-0.811,0.485-0.957,0.612
	c-0.115,0.099-0.688,0.668-1.719,1.708c-0.312,0.282-0.516,0.485-0.614,0.612c-0.131,0.141-0.393,0.281-0.785,0.421l-0.099,0.127
	l-0.318,0.358l-0.147,0.169c-0.901,0.591-1.392,0.936-1.474,1.033C119.505,174.632,119.358,174.837,119.179,174.991L119.179,174.991
	z"/>
<path fill="#00441C" d="M148.272,149.977c0.196-0.014,0.598-0.098,1.203-0.253l0.318-0.042c0.737-0.127,1.392-0.189,1.965-0.189
	c0.082,0,0.213,0.014,0.393,0.042c0.099-0.014,0.237-0.049,0.418-0.105l0.344-0.063l0.393-0.084l0.467-0.042l0.146-0.021
	l0.541,0.042l1.375-0.105c0.016,0,0.064,0,0.146,0c0.213-0.056,0.352-0.084,0.418-0.084l0.639,0.042l0.466-0.042
	c0.081,0,0.221,0.049,0.417,0.147c0.082,0.028,0.14,0.042,0.172,0.042c0,0,0.164-0.021,0.492-0.063h0.049
	c0.016,0,0.048,0.008,0.098,0.021c0.277,0.057,0.572,0.084,0.885,0.084c0.212,0.07,0.359,0.105,0.441,0.105
	c0.065,0,0.204-0.027,0.417-0.084l0.295-0.021c0.425,0.099,0.728,0.197,0.908,0.296c0.099,0.07,0.204,0.105,0.319,0.105
	c0.049,0,0.131-0.057,0.246-0.169c0.031-0.028,0.09-0.042,0.172-0.042c0.262,0,0.482,0.147,0.662,0.442
	c0.147,0.253,0.229,0.507,0.246,0.76c0.016,0.226,0.023,0.358,0.024,0.4c0,0.085-0.05,0.338-0.147,0.76
	c0.115,0.379,0.171,0.71,0.172,0.991c0,0.295-0.123,0.442-0.368,0.442c-0.033,0-0.245-0.021-0.638-0.063l-0.467-0.021l-0.344-0.063
	l-0.736,0.021l-0.442-0.064l-0.54-0.063l-0.639-0.169c-0.017,0-0.115,0.05-0.295,0.148c-0.115,0.07-0.213,0.104-0.295,0.104
	l-1.152-0.021c-0.328,0.071-0.492,0.148-0.492,0.232c0,0.057,0.098,0.169,0.295,0.338l0.197,0.211c0.375,0.253,0.58,0.4,0.613,0.443
	c0.016,0.014,0.064,0.141,0.146,0.379l0.197,0.443c0.212,0.492,0.318,0.801,0.318,0.928c0,0,0,0.015,0,0.042
	c-0.033,0.099-0.049,0.226-0.049,0.38c0,0.281-0.074,0.675-0.221,1.181l0.024,0.802l-0.271,0.78l-0.098,0.527l-0.147,0.485
	l-0.05,0.337l-0.049,0.254l-0.023,0.337l-0.074,0.338l-0.025,0.231c-0.131,0.31-0.204,0.549-0.221,0.717
	c-0.082,0.479-0.172,0.88-0.27,1.203c-0.018,0.268-0.041,0.471-0.074,0.611l-0.196,0.802c-0.099,0.407-0.278,0.879-0.54,1.413
	c0,0.422-0.074,1.055-0.221,1.897l-0.098,0.485l-0.05,0.527l-0.222,1.35c-0.064,0.675-0.098,1.055-0.098,1.14
	c-0.017,0.056-0.115,0.218-0.295,0.484c-0.032,0.057-0.049,0.105-0.049,0.147c0,0.015,0,0.029,0,0.043
	c0.049,0.352,0.074,0.563,0.074,0.632l-0.025,0.422v0.38l-0.122,0.844v0.569c-0.05,0.984-0.073,1.498-0.073,1.54
	c0,0.141,0.049,0.45,0.146,0.928c0.017,0.042,0.023,0.092,0.025,0.147c0,0.506-0.386,0.879-1.154,1.118
	c-0.312,0.309-0.574,0.463-0.785,0.464c-0.133,0-0.279-0.105-0.443-0.316c-0.262-0.323-0.4-0.568-0.417-0.738
	c0,0,0.058-0.225,0.173-0.675c0-0.027,0-0.049,0-0.063c0-0.042-0.074-0.161-0.222-0.358c-0.082-0.154-0.132-0.372-0.147-0.653
	c-0.082-0.296-0.123-0.604-0.123-0.929c0-0.168,0.041-0.484,0.123-0.948l-0.073-0.38l-0.024-0.169
	c-0.115-0.338-0.172-0.534-0.172-0.591c0-0.014,0.016-0.126,0.049-0.337c0-0.394,0.032-0.829,0.098-1.309
	c0.017-0.084,0.023-0.153,0.025-0.21c0-0.057-0.033-0.239-0.099-0.549l0.024-0.38l0.025-0.864l0.098-0.844v-0.338l0.049-0.548
	l0.024-0.591l0.073-0.611l0.05-0.971l0.196-1.054l0.049-0.992l0.049-0.4l0.05-0.549l0.099-0.421l0.072-1.371
	c0.082-0.394,0.123-0.618,0.124-0.675c0-0.043-0.017-0.19-0.05-0.443l0.172-0.358c0.213-0.562,0.318-0.878,0.319-0.949
	c0-0.014-0.049-0.133-0.147-0.358c-0.017-0.042-0.023-0.084-0.023-0.127c0-0.027,0.057-0.273,0.171-0.737l0.024-0.212
	c0.082-0.491,0.131-0.899,0.147-1.223c0.017-0.183,0.09-0.484,0.222-0.907l-0.099-0.611c0,0,0.024-0.099,0.073-0.295
	c0.049-0.141,0.074-0.323,0.074-0.549c0-0.407-0.369-0.611-1.105-0.611c-0.065,0-0.188,0.063-0.368,0.189
	c-0.099,0.057-0.181,0.085-0.245,0.085l-0.393-0.021c-0.279,0.07-0.5,0.112-0.664,0.127c-0.131,0.014-0.311,0.049-0.539,0.104
	c-0.557,0.169-1.073,0.269-1.547,0.296c-0.049,0-0.221,0.063-0.516,0.189c-0.164,0.07-0.295,0.12-0.393,0.147
	c-0.264,0.043-0.499,0.113-0.713,0.212l-0.393,0.063c-0.557,0.113-0.851,0.169-0.884,0.169c-0.36,0-0.539-0.169-0.54-0.507
	c0-0.14,0.18-0.568,0.54-1.286l-0.024-0.569c0-0.225,0.115-0.576,0.344-1.055c0.213-0.533,0.475-0.948,0.785-1.244
	C147.839,150.146,148.108,150.033,148.272,149.977L148.272,149.977z"/>
<path fill="#00441C" d="M162.095,174.991c-0.408,0.267-0.678,0.471-0.81,0.611c-0.13,0.127-0.237,0.204-0.319,0.232
	c-0.016,0-0.253,0.028-0.712,0.084c-0.425-0.056-0.711-0.315-0.859-0.78l-0.245-0.358c0,0,0.017-0.021,0.049-0.063
	c0.049-0.057,0.131-0.218,0.246-0.485l0.613-0.422l0.441-0.358c0.328-0.169,0.533-0.295,0.614-0.38
	c0.065-0.069,0.123-0.126,0.172-0.168c0.082-0.043,0.172-0.148,0.271-0.316c0.115-0.197,0.213-0.345,0.295-0.443
	c0.146-0.141,0.842-0.646,2.086-1.519c0.605-0.563,1.055-1.068,1.351-1.519c0-0.014,0.099-0.112,0.294-0.295
	c0.213-0.211,0.36-0.415,0.442-0.612c0.065-0.168,0.18-0.33,0.345-0.484c0.064-0.057,0.097-0.126,0.098-0.211
	c0-0.015-0.058-0.26-0.172-0.738c-0.018-0.028-0.025-0.07-0.025-0.127c0-0.211,0.222-0.464,0.664-0.759
	c0.295-0.226,0.719-0.471,1.276-0.738c0.442-0.268,0.72-0.415,0.835-0.443c0.311-0.084,0.588-0.126,0.834-0.126
	c0.736,0,1.392,0.26,1.965,0.78l0.245,0.168l0.295,0.359l0.271,0.147l0.098,0.084c0.949,0.872,1.506,1.716,1.67,2.531
	c0.031,0.126,0.098,0.358,0.195,0.695c0.066,0.24,0.107,0.563,0.123,0.971v0.253c0,0.239-0.082,0.633-0.245,1.182
	c-0.164,0.548-0.36,1.075-0.589,1.581c-0.377,0.844-0.564,1.54-0.564,2.089c0,0.099,0.049,0.147,0.146,0.147
	c0.327,0,0.671-0.147,1.031-0.443c0.147-0.141,0.467-0.337,0.958-0.59c0.179-0.099,0.646-0.457,1.399-1.076
	c0.326-0.169,0.531-0.295,0.613-0.38c0.065-0.069,0.123-0.126,0.172-0.168c0.017-0.154,0.164-0.288,0.441-0.401
	c0.279-0.099,0.549-0.146,0.811-0.147c0.327,0,0.598,0.147,0.811,0.442c0.098,0.142,0.147,0.303,0.147,0.485
	c0,0.38-0.188,0.675-0.565,0.886l-0.27,0.338l-0.172-0.042c0,0-0.057,0.105-0.172,0.316c-0.033,0.07-0.106,0.141-0.221,0.211
	c-0.426,0.267-0.777,0.555-1.056,0.864c-0.033,0.028-0.205,0.127-0.516,0.295c-0.377,0.239-0.704,0.465-0.981,0.676l-0.222,0.147
	l-0.221,0.147l-0.663,0.38l-0.491,0.316l-0.786,0.295l-0.662,0.442l-0.246,0.106l-0.295,0.147l-0.416,0.126
	c-0.476,0.296-0.869,0.443-1.18,0.443c-0.017,0-0.139-0.021-0.367-0.063c-0.018,0-0.092-0.007-0.222-0.021
	c-0.917-0.069-1.374-0.365-1.374-0.886c0-0.225,0.072-0.548,0.221-0.97l0.098-0.338l0.123-0.295
	c0.031-0.141,0.139-0.337,0.318-0.591c0.082-0.126,0.172-0.456,0.271-0.991l0.222-0.569l0.195-0.738l0.197-0.569l0.122-0.717
	c0.114-0.576,0.171-1.048,0.172-1.413c0-0.169-0.042-0.373-0.122-0.612c-0.082-0.211-0.132-0.33-0.148-0.358
	c-0.114-0.365-0.262-0.618-0.441-0.759c-0.393-0.296-0.688-0.443-0.884-0.443c-0.049,0-0.204,0.1-0.466,0.295
	c-0.492,0.282-0.811,0.485-0.958,0.612c-0.115,0.099-0.688,0.668-1.719,1.708c-0.312,0.282-0.516,0.485-0.614,0.612
	c-0.131,0.141-0.393,0.281-0.785,0.421l-0.098,0.127l-0.32,0.358l-0.146,0.169c-0.9,0.591-1.393,0.936-1.474,1.033
	C162.423,174.632,162.274,174.837,162.095,174.991L162.095,174.991z"/>
<path fill="#00441C" d="M178.472,174.991c-0.409,0.267-0.68,0.471-0.811,0.611c-0.13,0.127-0.236,0.204-0.318,0.232
	c-0.017,0-0.254,0.028-0.713,0.084c-0.425-0.056-0.711-0.315-0.859-0.78l-0.245-0.358c0,0,0.017-0.021,0.05-0.063
	c0.049-0.057,0.131-0.218,0.245-0.485l0.614-0.422l0.441-0.358c0.328-0.169,0.532-0.295,0.613-0.38
	c0.066-0.069,0.123-0.126,0.172-0.168c0-0.112,0.091-0.218,0.27-0.316l0.148-0.274c0.049-0.056,0.156-0.161,0.318-0.316
	c0.065-0.07,0.761-0.449,2.088-1.139c0.081-0.07,0.293-0.323,0.638-0.76c0.394-0.365,0.605-0.563,0.639-0.59
	c0.049-0.057,0.196-0.127,0.442-0.212c0.098-0.056,0.277-0.238,0.539-0.548l0.516-0.338l0.467-0.4l0.319-0.169
	c0.753-0.449,1.187-0.73,1.302-0.844l0.466-0.337l0.442-0.401l0.662-0.379c0.442-0.394,0.827-0.675,1.154-0.844
	c0.277-0.226,0.598-0.407,0.957-0.549l0.172-0.105l0.271-0.169l0.195-0.147c0.36-0.153,0.581-0.252,0.664-0.295
	c0.179-0.127,0.277-0.19,0.294-0.19l0.638-0.042c0.033-0.014,0.18-0.049,0.442-0.105c0.147-0.027,0.286-0.041,0.417-0.042
	c0.262,0,0.557,0.134,0.885,0.4c0.245,0.197,0.368,0.416,0.368,0.654c0,0.211-0.287,0.605-0.859,1.181l-0.172,0.19l-0.271,0.169
	l-0.196,0.147c-0.278,0.099-0.45,0.176-0.516,0.232c-0.032,0.027-0.132,0.176-0.294,0.442c-0.082,0.127-0.263,0.268-0.541,0.422
	l-0.318,0.316l-0.369,0.189c-0.18,0.211-0.441,0.415-0.785,0.612c-0.082,0.057-0.213,0.211-0.393,0.464l-0.418,0.295
	c-0.245,0.268-0.385,0.415-0.418,0.443c-0.016,0.014-0.188,0.105-0.515,0.273c-0.033,0.028-0.123,0.169-0.271,0.422
	c-0.049,0.057-0.205,0.176-0.467,0.358c-0.213,0.211-0.434,0.388-0.662,0.527c-0.229,0.142-0.441,0.353-0.639,0.633
	c-0.017,0.028-0.115,0.12-0.295,0.274l-0.27,0.274c-0.082,0.07-0.295,0.231-0.639,0.484l-0.417,0.443
	c-0.263,0.226-0.417,0.366-0.467,0.422c-0.032,0.028-0.155,0.232-0.368,0.611l-0.344,0.358c-0.082,0.169-0.123,0.269-0.123,0.296
	c0,0.07,0.049,0.105,0.147,0.105c0.312,0,0.679-0.176,1.104-0.527c0.147-0.112,0.312-0.218,0.492-0.316
	c0.162-0.084,0.375-0.225,0.638-0.422l0.319-0.189l0.368-0.38l0.491-0.316c0.621-0.521,1.146-0.886,1.57-1.097l0.148-0.084
	l0.098-0.064l0.59-0.695l0.172-0.127l0.294-0.253l0.712-0.464c0.344-0.28,0.59-0.463,0.736-0.548
	c0.115-0.057,0.312-0.092,0.59-0.105c0.441-0.043,0.688-0.063,0.736-0.063c0.344,0,0.59,0.105,0.736,0.316
	c0.066,0.099,0.139,0.499,0.222,1.202l0.122,0.548l-0.072,0.991c0.098,0.718,0.212,1.153,0.343,1.308
	c0.425,0.507,0.899,0.76,1.424,0.76c0.262,0,0.589-0.232,0.982-0.696l1.056-0.738c0.065-0.069,0.114-0.126,0.146-0.168
	c0.018-0.154,0.172-0.288,0.467-0.401c0.262-0.099,0.532-0.146,0.811-0.147c0.326,0,0.598,0.147,0.811,0.442
	c0.098,0.142,0.146,0.303,0.146,0.485c0,0.38-0.188,0.675-0.564,0.886l-0.27,0.338l-0.172-0.042c-0.018,0-0.074,0.105-0.172,0.316
	c-0.033,0.07-0.107,0.141-0.221,0.211c-0.491,0.323-0.844,0.604-1.057,0.844v0.021l-0.172,0.105
	c-0.115,0.07-0.287,0.211-0.516,0.422c-1.08,0.956-2.104,1.435-3.068,1.435c-0.721,0-1.293-0.092-1.719-0.274
	c-0.41-0.141-0.754-0.365-1.031-0.675c-0.639-0.534-0.967-1.293-0.982-2.278c-0.115-0.548-0.229-0.822-0.344-0.822
	c-0.082,0-0.294,0.176-0.639,0.527c-0.539,0.337-0.875,0.584-1.006,0.738c-0.131,0.141-0.426,0.331-0.884,0.569
	c-0.327,0.338-0.582,0.569-0.761,0.696c-0.197,0.141-0.451,0.352-0.762,0.633l-0.49,0.379l-0.492,0.38l-0.662,0.422l-0.663,0.442
	l-0.811,0.359c-0.196,0.099-0.36,0.189-0.491,0.274c-0.312,0.154-0.68,0.252-1.104,0.295c-0.196,0.042-0.304,0.063-0.319,0.063
	c-0.147,0-0.318-0.043-0.516-0.127c-0.146-0.07-0.426-0.183-0.835-0.337c-0.245-0.127-0.409-0.352-0.491-0.676l-0.098-0.211
	c-0.082-0.183-0.121-0.351-0.123-0.506c0-0.253,0.172-0.787,0.516-1.603l-0.024-0.105l0.122-0.063l0.123-0.147
	c0.295-0.239,0.442-0.407,0.442-0.506C178.496,175.181,178.487,175.09,178.472,174.991L178.472,174.991z"/>
<path fill="#00441C" d="M197.353,174.991c-0.409,0.267-0.68,0.471-0.811,0.611c-0.131,0.127-0.236,0.204-0.319,0.232
	c-0.017,0-0.253,0.028-0.712,0.084c-0.425-0.056-0.711-0.315-0.859-0.78l-0.246-0.358c0,0,0.018-0.021,0.05-0.063
	c0.049-0.057,0.131-0.218,0.245-0.485l0.614-0.422l0.442-0.358c0.327-0.169,0.532-0.295,0.613-0.38
	c0.098-0.211,0.246-0.372,0.441-0.484c0.197-0.352,0.541-0.703,1.031-1.055c0.377-0.239,0.622-0.436,0.736-0.591l0.492-0.591
	l0.466-0.78l0.099-0.126l0.221-0.401c0.18-0.238,0.344-0.52,0.491-0.844l0.27-0.442l0.172-0.506l0.099-0.169
	c0.163-0.604,0.67-1.04,1.522-1.308l0.368-0.232c0.408-0.196,0.654-0.295,0.736-0.295c0.18,0,0.318,0.099,0.418,0.295
	c0.113,0.184,0.171,0.429,0.172,0.738l0.023,0.548l-0.098,0.76c0.049,0.619,0.074,1.202,0.074,1.75c0,0.029-0.009,0.135-0.025,0.317
	l0.025,0.337v0.4l0.049,0.254c-0.033,0.268-0.049,0.421-0.049,0.464c0,0.07,0.031,0.387,0.098,0.949v0.759l0.049,1.202l-0.024,0.507
	l0.173,0.759c0.064,0.38,0.121,0.598,0.172,0.654c0.098,0.112,0.221,0.168,0.367,0.168c0.18,0,0.466-0.245,0.859-0.738l0.393-0.4
	l0.172-0.253l0.271-0.296l0.245-0.421l0.442-0.612l0.172-0.337l0.245-0.359l0.147-0.253c0.262-0.436,0.466-0.724,0.614-0.864
	l0.172-0.295l0.172-0.254l0.27-0.633c0.246-0.351,0.393-0.625,0.442-0.822l0.172-0.295l0.368-0.865l0.196-0.4l0.147-0.38
	l0.221-0.442l0.074-0.422l0.146-0.358c0.099-0.731,0.172-1.139,0.221-1.224c0.229-0.323,0.598-0.618,1.105-0.886
	c0.326-0.196,0.564-0.295,0.712-0.296c0.295,0,0.442,0.127,0.442,0.38c0,0.057-0.066,0.549-0.197,1.477l-0.195,0.591
	c-0.115,0.479-0.197,0.767-0.246,0.864c-0.033,0.07-0.156,0.254-0.368,0.549c-0.033,0.028-0.05,0.077-0.05,0.147v0.231
	c0.017,0.058-0.008,0.169-0.072,0.338c-0.148,0.31-0.222,0.479-0.222,0.506c-0.099,0.268-0.164,0.437-0.196,0.507
	c-0.131,0.239-0.221,0.437-0.27,0.591c-0.033,0.07-0.148,0.204-0.345,0.4c-0.114,0.127-0.237,0.492-0.368,1.097
	c-0.017,0.07-0.106,0.232-0.27,0.484l-0.197,0.338c-0.393,0.549-0.654,1.013-0.785,1.393l-0.27,0.421l-0.271,0.465l-0.196,0.273
	l-0.123,0.232c-0.295,0.268-0.45,0.415-0.467,0.443c0,0.015,0,0.119,0,0.316c-0.017,0.084-0.115,0.226-0.295,0.421l-0.073,0.105
	l-0.393,0.401l-0.589,0.864l-0.221,0.19l-0.197,0.189c-0.377,0.253-0.582,0.4-0.613,0.443c-0.018,0.014-0.213,0.246-0.59,0.695
	c-0.147,0.154-0.434,0.365-0.859,0.633c-0.229,0.141-0.613,0.21-1.154,0.211c-0.441,0-0.858-0.197-1.252-0.591l-0.318-0.253
	l-0.197-0.231l-0.098-0.127c-0.213-0.491-0.336-0.836-0.368-1.033l-0.073-0.253l-0.05-0.507c-0.049-0.225-0.073-0.357-0.073-0.4
	c0-0.042,0.024-0.196,0.073-0.464c0-0.014,0-0.035,0-0.063c0-0.042-0.065-0.161-0.196-0.358c-0.049-0.07-0.074-0.457-0.074-1.16
	l-0.098-0.358l-0.049-0.928c-0.049-0.281-0.074-0.442-0.074-0.485c0-0.014,0.016-0.112,0.049-0.296c0-0.014,0-0.034,0-0.063
	c0-0.141-0.09-0.21-0.27-0.211c-0.098,0-0.229,0.078-0.393,0.231l-0.418,0.296c-0.54,0.576-0.925,0.942-1.154,1.097
	c-0.195,0.154-0.376,0.345-0.539,0.569C197.63,174.71,197.516,174.837,197.353,174.991L197.353,174.991z"/>
<path fill-rule="evenodd" clip-rule="evenodd" fill="#00441C" d="M213.532,174.991c-0.409,0.253-0.68,0.45-0.811,0.59
	c-0.131,0.127-0.237,0.204-0.319,0.232c-0.376,0.07-0.612,0.099-0.712,0.084c-0.426-0.056-0.711-0.315-0.859-0.78l-0.245-0.337
	c0-0.015,0.017-0.035,0.049-0.063c0.05-0.057,0.132-0.225,0.245-0.507l0.614-0.4l0.442-0.358c0.328-0.169,0.532-0.295,0.613-0.38
	c0.082-0.069,0.156-0.188,0.221-0.358c0.147-0.098,0.271-0.231,0.369-0.4c0.245-0.31,0.695-0.675,1.35-1.097
	c0.032-0.268,0.057-0.45,0.074-0.549c0.031-0.267,0.048-0.442,0.049-0.527c0.016-0.352,0.131-0.85,0.344-1.497l0.344-0.633
	l0.344-0.928l0.172-0.232l0.318-0.611l0.541-0.696c0.621-0.829,1.252-1.44,1.891-1.835c0.113-0.084,0.277-0.295,0.49-0.633
	c0.033-0.027,0.115-0.077,0.246-0.147c0.065-0.027,0.139-0.07,0.221-0.126c0.393-0.281,0.793-0.457,1.203-0.527
	c0.114-0.028,0.294-0.07,0.541-0.127c0.08-0.027,0.244-0.041,0.49-0.042c0.246,0,0.467,0.042,0.663,0.127l0.442,0.168l0.122,0.063
	c0.589,0.268,0.948,0.745,1.081,1.434l0.146,0.38l0.025,0.211c0.016,0.184,0.023,0.303,0.023,0.358c0,0.113-0.049,0.254-0.146,0.422
	c-0.099,0.169-0.197,0.429-0.295,0.78c-0.033,0.099-0.147,0.331-0.344,0.696l-0.172,0.338l-0.663,0.906l-0.515,0.696l-0.271,0.274
	c-0.244,0.268-0.516,0.534-0.81,0.801c-0.245,0.226-0.499,0.493-0.761,0.802c-0.082,0.07-0.295,0.219-0.639,0.443
	c-0.229,0.253-0.475,0.485-0.736,0.696c-0.279,0.225-0.418,0.437-0.418,0.632c0,0.127,0.082,0.401,0.246,0.823
	c0.13,0.141,0.311,0.358,0.54,0.653c0.13,0.142,0.392,0.261,0.786,0.358c0.359,0.113,0.58,0.169,0.662,0.169
	c0.016,0,0.041,0,0.074,0c0.213-0.014,0.375-0.021,0.49-0.021c0.393-0.014,0.68-0.049,0.859-0.105l0.319-0.063
	c0.245-0.085,0.483-0.154,0.712-0.211c0.277-0.057,0.532-0.183,0.762-0.38c0.049-0.027,0.229-0.112,0.54-0.253
	c0.179-0.069,0.317-0.147,0.417-0.232c0.065-0.084,0.115-0.14,0.147-0.168c0.017-0.154,0.171-0.288,0.466-0.401
	c0.278-0.099,0.549-0.146,0.811-0.147c0.327,0,0.598,0.147,0.811,0.442c0.098,0.142,0.147,0.296,0.147,0.465
	c0,0.379-0.188,0.675-0.565,0.886l-0.27,0.337l-0.146-0.021c-0.018,0-0.083,0.105-0.197,0.316c-0.033,0.07-0.106,0.141-0.221,0.211
	c-0.181,0.099-0.377,0.246-0.59,0.442c-0.115,0.07-0.221,0.169-0.318,0.296l-0.295,0.211c-0.475,0.337-0.786,0.548-0.934,0.632
	c-0.098,0.071-0.458,0.239-1.08,0.507c-0.441,0.183-0.736,0.281-0.883,0.295c-0.279,0-0.459,0.007-0.541,0.021
	c-0.426,0.197-0.736,0.303-0.934,0.316c-0.081,0.014-0.475,0.035-1.178,0.063c-0.508-0.027-1.236-0.238-2.186-0.632
	c-0.278-0.112-0.581-0.352-0.908-0.718c-0.295-0.267-0.516-0.632-0.662-1.097c-0.181-0.633-0.442-0.949-0.787-0.949
	c-0.131,0-0.311,0.071-0.539,0.211C213.817,174.717,213.646,174.851,213.532,174.991L213.532,174.991z M220.308,166.238
	c-0.098,0-0.417,0.253-0.957,0.759c-0.277,0.268-0.467,0.507-0.564,0.718c-0.508,0.675-0.762,1.167-0.762,1.476
	c0,0.184,0.09,0.274,0.271,0.274c0.229,0,0.489-0.231,0.785-0.696c1.031-0.941,1.547-1.623,1.547-2.046
	C220.628,166.4,220.521,166.239,220.308,166.238L220.308,166.238z"/>
<path fill-rule="evenodd" clip-rule="evenodd" fill="#00441C" d="M225.882,174.991c-0.409,0.267-0.68,0.471-0.811,0.611
	c-0.131,0.127-0.236,0.204-0.318,0.232c-0.018,0-0.254,0.028-0.713,0.084c-0.424-0.056-0.711-0.315-0.859-0.78l-0.245-0.358
	c0,0,0.017-0.021,0.049-0.063c0.05-0.057,0.132-0.218,0.245-0.485l0.614-0.422l0.442-0.358c0.327-0.169,0.532-0.295,0.613-0.38
	l0.099-0.084c0.181-0.196,0.344-0.421,0.491-0.675c0.246-0.352,0.654-0.695,1.227-1.033c0.639-0.408,0.959-0.759,0.959-1.055
	c0-0.015-0.033-0.162-0.1-0.443l0.221-0.569c-0.065-0.31-0.098-0.478-0.098-0.506c0-0.112,0.09-0.731,0.271-1.856
	c0.099-0.07,0.147-0.119,0.147-0.147c-0.033-0.099-0.049-0.154-0.049-0.169c0-0.027,0.064-0.33,0.195-0.907l0.099-0.484l0.099-0.338
	l0.073-0.38l0.172-0.484l0.123-0.57l0.245-0.59l0.369-1.202l0.318-0.675l0.295-0.738l0.246-0.527l0.146-0.443l0.172-0.379
	c0.18-0.365,0.359-0.661,0.54-0.886c0.147-0.154,0.286-0.437,0.418-0.844c0.081-0.254,0.188-0.479,0.319-0.676
	c0.13-0.238,0.203-0.379,0.221-0.421c0.114-0.254,0.212-0.429,0.295-0.527l0.196-0.422l0.663-0.971
	c0.326-0.66,0.744-1.258,1.252-1.793l0.27-0.442l0.098-0.105c0.442-0.478,0.729-0.801,0.859-0.97l0.565-0.422
	c0.294-0.31,0.449-0.471,0.466-0.485c0.033-0.014,0.164-0.063,0.394-0.147c0.049-0.015,0.163-0.057,0.344-0.127
	c0.147-0.07,0.294-0.104,0.442-0.105c0,0.015,0.008,0.021,0.023,0.021l0.099-0.021l0.073,0.021l0.344,0.021l0.467,0.169
	c0.311,0.07,0.598,0.281,0.859,0.633c0.164,0.226,0.244,0.479,0.246,0.76l-0.025,0.632l0.049,0.633c0,0.057-0.049,0.211-0.146,0.464
	l0.024,0.633l-0.099,0.422c0,0.253-0.082,0.549-0.246,0.887c-0.18,0.717-0.27,1.195-0.27,1.434c0,0.028-0.041,0.112-0.123,0.253
	l0.025,0.295c-0.213,0.282-0.336,0.527-0.368,0.738c-0.017,0.113-0.05,0.232-0.099,0.359c-0.049,0.099-0.098,0.225-0.146,0.379
	c-0.181,0.254-0.304,0.569-0.369,0.949l-0.318,0.76l-0.074,0.316l-0.147,0.273c-0.229,0.521-0.368,0.83-0.417,0.929
	c-0.049,0.057-0.304,0.379-0.762,0.97l-0.27,0.78l-0.197,0.338l-0.195,0.379l-0.32,0.443l-0.245,0.422
	c-0.278,0.281-0.442,0.443-0.491,0.485c-0.017,0.028-0.057,0.162-0.123,0.4l-0.146,0.253l-0.123,0.254l-0.221,0.273l-0.319,0.464
	l-0.663,0.802l-0.417,0.591l-0.245,0.274c-0.377,0.632-0.623,1.005-0.737,1.117c-0.082,0.07-0.253,0.226-0.515,0.464
	c-0.197,0.155-0.295,0.358-0.295,0.612c0,0.492,0.113,1.012,0.344,1.561l0.098,0.4c0.131,0.169,0.245,0.353,0.344,0.549
	c0.475,0.745,1.006,1.195,1.596,1.35l0.295,0.127l0.295,0.084c0.212,0.057,0.375,0.084,0.49,0.084c0.605,0,1.285-0.147,2.038-0.442
	c0.409-0.112,0.695-0.239,0.86-0.38c0.408-0.38,0.744-0.64,1.006-0.78c0.147-0.069,0.262-0.147,0.344-0.232
	c0.064-0.069,0.122-0.126,0.172-0.168c0-0.154,0.147-0.288,0.441-0.401c0.262-0.099,0.532-0.146,0.811-0.147
	c0.326,0,0.597,0.147,0.811,0.442c0.098,0.142,0.146,0.303,0.146,0.485c0,0.38-0.188,0.675-0.564,0.886l-0.27,0.338l-0.172-0.042
	c0,0-0.059,0.105-0.172,0.316c-0.033,0.07-0.106,0.141-0.221,0.211c-0.442,0.31-0.941,0.71-1.498,1.202l-0.295,0.231l-0.196,0.169
	l-0.466,0.232c-0.737,0.492-1.393,0.801-1.965,0.928c-0.459,0.226-1.072,0.345-1.842,0.358h-0.172l-0.711-0.169l-0.762,0.021
	c-0.098,0-0.368-0.091-0.811-0.274l-0.172-0.063l-0.417-0.295l-0.368-0.189c-0.147-0.154-0.279-0.26-0.393-0.316
	c-0.099-0.07-0.279-0.273-0.541-0.612l-0.516-0.569l-0.098-0.358l-0.295-0.633l-0.123-0.485c-0.164-0.436-0.278-0.652-0.344-0.653
	c-0.114,0-0.277,0.099-0.49,0.295c-0.295,0.281-0.533,0.492-0.712,0.633C226.348,174.598,226.127,174.78,225.882,174.991
	L225.882,174.991z M234.868,161.472c0.098-0.169,0.172-0.288,0.221-0.358c0.098-0.127,0.196-0.338,0.295-0.633l0.098-0.19
	l0.295-1.054l0.393-0.78l0.098-0.338c0.05-0.183,0.074-0.421,0.074-0.717c0-0.239,0.032-0.415,0.098-0.527
	c0.099-0.196,0.148-0.345,0.148-0.443c0-0.056-0.033-0.083-0.099-0.084c-0.065,0-0.147,0.057-0.245,0.169
	c-0.182,0.225-0.394,0.421-0.639,0.59l-0.197,0.296c-0.294,0.253-0.523,0.548-0.688,0.886l-0.318,0.379
	c-0.508,0.858-0.762,1.329-0.762,1.413c0,0.071,0.008,0.197,0.025,0.38c0,0.028,0,0.05,0,0.063c0,0.07-0.074,0.231-0.221,0.485
	l-0.172,0.4l-0.246,0.358l-0.295,0.696c-0.295,0.492-0.45,0.767-0.467,0.823c-0.017,0.041-0.041,0.203-0.073,0.484
	c0,0.099-0.05,0.239-0.147,0.422c-0.18,0.323-0.303,0.647-0.368,0.97c-0.245,0.507-0.368,0.88-0.368,1.118
	c0,0.155,0.049,0.232,0.147,0.232c0.049,0,0.212-0.112,0.491-0.338c0.195-0.154,0.449-0.521,0.761-1.097l0.393-0.549l0.319-0.633
	l0.418-0.442l0.245-0.464c0.311-0.337,0.499-0.598,0.565-0.78C234.761,161.761,234.835,161.515,234.868,161.472L234.868,161.472z"/>
<path fill-rule="evenodd" clip-rule="evenodd" fill="#00441C" d="M274.348,151.369c0.393-0.239,0.752-0.521,1.08-0.844l0.736-0.295
	c0.344-0.226,0.564-0.338,0.662-0.338c0.164,0,0.369,0.162,0.615,0.485c0.049,0.07,0.098,0.479,0.146,1.223l-0.023,0.443
	l0.023,0.675l-0.023,0.231c0,0.311-0.059,0.711-0.172,1.203c-0.033,0.141-0.082,0.492-0.148,1.054
	c-0.049,0.282-0.146,0.633-0.295,1.055c-0.016,0.043-0.023,0.085-0.023,0.127s0.031,0.197,0.098,0.464c0,0.028,0,0.057,0,0.084
	c0,0.058-0.082,0.401-0.246,1.034l-0.121,0.949l-0.197,0.632l-0.049,0.527l-0.197,0.549l-0.123,0.844l-0.121,0.442l-0.074,0.38
	l-0.197,0.549l-0.049,0.211c-0.262,0.534-0.393,0.851-0.393,0.948c0,0.043,0.016,0.205,0.049,0.485c0,0.015,0,0.028,0,0.042
	c0,0.085-0.066,0.289-0.195,0.612l-0.1,0.802l-0.098,0.273l-0.146,0.633l-0.246,0.738l-0.074,0.358l-0.146,0.422l-0.172,0.802
	l-0.123,0.316c-0.098,0.437-0.295,0.858-0.59,1.266c-0.016,0.268-0.023,0.442-0.023,0.527c0,0.112-0.043,0.337-0.123,0.675
	c-0.018,0.365-0.123,0.829-0.32,1.392l-0.293,0.822c-0.23,0.535-0.369,0.999-0.418,1.393l-0.246,0.59
	c-0.033,0.535-0.123,0.922-0.27,1.16c-0.18,0.282-0.27,0.437-0.27,0.464v0.485l-0.074,0.274c-0.018,0.211-0.141,0.499-0.369,0.864
	c-0.016,0.057-0.057,0.211-0.123,0.465l-0.121,0.421l0.023,0.317c0,0.056-0.066,0.21-0.195,0.463
	c-0.133,0.394-0.295,0.64-0.492,0.739c-0.523,0.295-0.818,0.442-0.883,0.442c-0.213,0-0.418-0.105-0.615-0.316
	c-0.146-0.155-0.221-0.31-0.221-0.464c0-0.015,0-0.035,0-0.063c0.066-0.45,0.098-0.682,0.1-0.695
	c-0.115-0.269-0.172-0.408-0.172-0.423c0-0.056,0.049-0.295,0.146-0.717c0.262-0.563,0.393-0.871,0.393-0.928
	c0-0.027-0.049-0.196-0.146-0.506c0-0.015,0-0.035,0-0.063s0.049-0.33,0.146-0.907v-0.253c0.098-0.352,0.164-0.668,0.197-0.949
	c0.016-0.126,0.09-0.352,0.221-0.675l0.049-0.274l0.074-0.253l0.023-0.675l0.197-0.949l0.023-0.4l0.123-0.507l0.049-0.4l0.051-0.231
	l0.049-0.274l0.367-0.823l-0.023-0.422l0.098-0.421c0.113-0.534,0.195-0.858,0.246-0.971c0.146-0.295,0.221-0.449,0.221-0.464
	l-0.049-0.464l0.098-0.485c0.016-0.309,0.057-0.597,0.123-0.864c0.031-0.099,0.047-0.196,0.049-0.296
	c0-0.196-0.066-0.294-0.197-0.295l-0.613,0.211h-0.023c-0.115,0-0.215-0.007-0.295-0.021c-0.1-0.027-0.156-0.041-0.172-0.042
	c-0.066,0-0.223,0.063-0.467,0.19c-0.098,0.042-0.313,0.084-0.639,0.126c-0.721,0.155-1.154,0.232-1.301,0.232
	c-0.049,0-0.107,0-0.172,0c-0.41-0.028-0.656-0.042-0.736-0.043c-0.018,0-0.123,0.021-0.32,0.063l-0.344,0.042l-0.367,0.105
	l-0.811,0.127l-0.369,0.127c-0.377,0-0.605,0.021-0.688,0.063c-0.195,0.1-0.344,0.169-0.441,0.211
	c-0.131,0.028-0.295,0.05-0.49,0.063c-0.164,0.028-0.361,0.12-0.59,0.274c-0.066,0.042-0.623,0.162-1.67,0.358
	c-0.115,0.028-0.318,0.189-0.613,0.485c-0.049,0.042-0.262,0.183-0.639,0.422c-0.164,0.099-0.279,0.246-0.344,0.442
	c-0.033,0.071-0.082,0.514-0.146,1.329l-0.148,0.611l0.049,0.675l-0.074,0.506c0.018,0.619,0.066,1.083,0.148,1.393v0.295
	l0.098,0.401c0.115,0.506,0.295,0.759,0.541,0.759c0.064,0,0.188-0.063,0.367-0.189l0.369-0.169
	c0.277-0.365,0.465-0.548,0.564-0.549c0.377,0,0.564,0.105,0.564,0.316c0,0.057-0.041,0.127-0.123,0.211
	c-0.262,0.324-0.516,0.753-0.76,1.287c-0.049,0.084-0.172,0.239-0.369,0.464c-0.082,0.099-0.18,0.226-0.295,0.38
	c-0.098,0.099-0.213,0.288-0.344,0.569c-0.18,0.268-0.475,0.514-0.883,0.738l-0.295,0.337l-0.49,0.274
	c-0.23,0.155-0.428,0.226-0.59,0.211l-0.369-0.021l-0.441,0.021c-0.295,0-0.5-0.189-0.613-0.569l-0.246-0.569
	c0-0.449-0.018-0.752-0.049-0.907c-0.131-0.576-0.213-0.998-0.246-1.266l-0.023-0.211l-0.051-0.78l-0.023-0.295l-0.025-0.358
	l-0.023-0.232l0.023-0.907c-0.066-0.351-0.098-0.744-0.098-1.181V171.3c0.016-0.323,0.023-0.491,0.023-0.507l-0.221-0.463
	l-0.098-0.38l-0.318-0.485l-0.123-0.337c-0.361-0.407-0.541-0.837-0.541-1.287c0-0.506,0.287-1.033,0.859-1.582l0.221-0.315
	c0.148-0.169,0.238-0.281,0.271-0.338c0.016-0.042,0.09-0.338,0.221-0.886c0.213-0.688,0.318-1.062,0.318-1.118
	c0-0.027-0.023-0.119-0.072-0.274l0.195-0.886l-0.023-0.442l0.023-0.274l0.049-0.485l0.123-0.633l0.146-0.844l0.223-0.843
	l0.072-0.907l0.074-0.338l0.025-0.569l0.098-0.59c0.033-0.394,0.082-0.675,0.146-0.844c0.131-0.31,0.197-0.513,0.197-0.612
	c0,0-0.041-0.119-0.123-0.358c0-0.014,0-0.027,0-0.042c0-0.027,0.033-0.183,0.098-0.464v-0.422l0.123-0.485
	c0.016-0.196,0.041-0.357,0.074-0.485c0.016-0.084,0.023-0.133,0.023-0.147l-0.023-0.759c0-0.141,0.246-0.358,0.736-0.654
	c0.082-0.056,0.221-0.21,0.418-0.464c0.08-0.084,0.293-0.147,0.639-0.189c0.113-0.014,0.301-0.084,0.564-0.211
	c0.605-0.057,0.916-0.084,0.932-0.084c0.115,0,0.295,0.077,0.541,0.231c0.195,0.113,0.393,0.31,0.59,0.591
	c0.195,0.281,0.293,0.499,0.293,0.653c0,0.1-0.023,0.211-0.072,0.338c-0.066,0.211-0.148,0.513-0.246,0.907
	c-0.018,0.041-0.066,0.147-0.146,0.315c-0.115,0.24-0.172,0.549-0.172,0.929c0,0.015-0.059,0.26-0.172,0.738l-0.197,0.653
	l-0.146,0.865l-0.271,1.055l-0.072,0.906l-0.123,0.506l-0.025,0.422c-0.295,1.097-0.449,1.688-0.467,1.771c0,0.058,0,0.269,0,0.633
	l-0.049,0.274l-0.023,0.253l-0.295,0.802l-0.049,0.253c-0.082,0.324-0.123,0.556-0.123,0.696c0,0.337,0.164,0.506,0.49,0.506
	c0.262,0,0.5-0.014,0.713-0.042c0.246-0.027,0.547-0.049,0.908-0.063c0.426-0.141,0.686-0.217,0.785-0.231
	c0.066,0,0.336-0.007,0.811-0.021c0.803-0.084,1.234-0.127,1.301-0.127s0.254,0.029,0.564,0.085c0.018,0,0.033,0,0.051,0
	c0.031,0,0.219-0.035,0.564-0.105l0.367-0.042l0.564-0.063l0.516-0.042c0.213-0.014,0.369-0.027,0.467-0.043
	c0.131-0.014,0.205-0.02,0.221-0.021c0,0,0.008,0,0.025,0c0.131,0.015,0.336,0.021,0.613,0.021c0.246,0,0.467,0,0.664,0
	c0.18,0.016,0.686-0.021,1.521-0.105c0.508-0.027,0.785-0.048,0.834-0.063c0.115-0.014,0.246-0.027,0.395-0.042
	c0.098,0,0.188-0.043,0.27-0.127c0.08-0.07,0.188-0.4,0.318-0.991c0.033-0.154,0.131-0.379,0.295-0.675
	c0.033-0.07,0.057-0.449,0.074-1.14l0.072-0.358v-0.211l0.123-0.548l0.051-0.485l0.146-0.633l0.049-0.295l0.148-0.4l0.146-1.582
	l0.098-0.549l0.025-0.485c0.016-0.21,0.023-0.329,0.023-0.358c0-0.295-0.131-0.541-0.393-0.738
	c-0.049-0.042-0.074-0.098-0.074-0.168c0-0.043,0.074-0.204,0.221-0.485l0.148-0.274l0.197-0.253l0.344-0.464l0.195-0.253
	C273.938,151.819,274.15,151.538,274.348,151.369L274.348,151.369z"/>
<path fill-rule="evenodd" clip-rule="evenodd" fill="#00441C" d="M277.883,174.991c-0.408,0.267-0.68,0.471-0.811,0.611
	c-0.129,0.127-0.236,0.204-0.318,0.232c-0.016,0-0.254,0.028-0.713,0.084c-0.424-0.056-0.711-0.315-0.859-0.78l-0.244-0.358
	c0,0,0.016-0.021,0.049-0.063c0.049-0.057,0.131-0.218,0.244-0.485l0.615-0.422l0.441-0.358c0.328-0.169,0.533-0.295,0.613-0.38
	c0.082-0.069,0.156-0.188,0.221-0.358c0.148-0.084,0.271-0.217,0.369-0.4c0.033-0.042,0.141-0.148,0.318-0.316
	c0.051-0.056,0.639-0.379,1.768-0.971l0.418-0.464l0.318-0.189c0.197-0.225,0.336-0.372,0.418-0.443
	c0.246-0.211,0.582-0.491,1.008-0.844c0.129-0.056,0.221-0.091,0.27-0.105c0.197-0.069,0.311-0.133,0.344-0.189
	c0.016-0.014,0.105-0.147,0.27-0.4l0.295-0.274l0.123-0.147l0.541-0.4l0.27-0.254l0.344-0.253l0.27-0.253
	c0.246-0.141,0.49-0.345,0.736-0.611c0.229-0.211,0.508-0.45,0.836-0.718c0.539-0.394,0.859-0.604,0.957-0.633
	c0.146-0.056,0.352-0.083,0.613-0.084c0.131,0,0.359,0.035,0.688,0.105c0.344,0.07,0.549,0.134,0.613,0.189
	c0.082,0.028,0.123,0.085,0.123,0.169c0,0.028-0.164,0.311-0.49,0.844c-0.018,0.042-0.025,0.085-0.025,0.127
	c0,0.099,0.049,0.147,0.148,0.147c0.064,0,0.252-0.085,0.564-0.253c0.539-0.226,1.17-0.38,1.891-0.465
	c0.244,0.015,0.408,0.036,0.49,0.063c0.179,0.028,0.367,0.05,0.564,0.063c0.1,0,0.369,0.112,0.811,0.338l0.27,0.189l0.197,0.085
	c0.326,0.268,0.588,0.563,0.785,0.886c0.246,0.379,0.369,0.829,0.369,1.35c0.064,0.365,0.098,0.563,0.098,0.59
	c0,0.015-0.016,0.254-0.049,0.718c-0.018,0.099-0.189,0.563-0.516,1.392l-0.098,0.358l-0.123,0.211l-0.172,0.358l-0.344,0.507
	c-0.033,0.281-0.402,0.928-1.105,1.94l-1.226,0.864c-0.082,0.057-0.387,0.345-0.91,0.865c-0.229,0.211-0.523,0.436-0.883,0.675
	l-0.441,0.38c-0.443,0.295-0.721,0.463-0.836,0.506l-0.367,0.189c-0.344,0.085-0.582,0.169-0.713,0.253
	c-0.262,0.197-0.598,0.338-1.006,0.422c-0.295,0.071-0.477,0.105-0.541,0.105c-0.016,0-0.18-0.014-0.49-0.042h-0.025
	c-0.049,0-0.123,0.021-0.221,0.063c-0.164,0.07-0.287,0.105-0.367,0.105h-0.074c-1.213-0.028-1.982-0.267-2.309-0.717
	c-0.049-0.057-0.287-0.162-0.711-0.316c-0.328-0.141-0.623-0.604-0.885-1.393c-0.098-0.28-0.146-0.505-0.146-0.675
	c0-0.533,0.057-1.032,0.17-1.497v-0.316c0.131-0.31,0.197-0.548,0.197-0.718c0-0.153-0.057-0.23-0.172-0.231
	c-0.164,0-0.434,0.099-0.811,0.295c-0.359,0.197-0.68,0.415-0.957,0.654c-0.131,0.126-0.238,0.268-0.318,0.422
	C278.17,174.71,278.047,174.851,277.883,174.991L277.883,174.991z M289.275,169.19c-0.344,0-0.828,0.232-1.449,0.696
	c-0.146,0.113-0.449,0.506-0.908,1.181c-0.131,0.184-0.27,0.303-0.418,0.359c-0.049,0.015-0.285,0.057-0.711,0.126
	c-0.098,0.015-0.426,0.5-0.982,1.455c-0.229,0.521-0.352,0.844-0.367,0.971c-0.115,0.31-0.189,0.703-0.223,1.181
	c0.1,0.746,0.475,1.118,1.131,1.118l0.416,0.042c0.049,0,0.221-0.069,0.516-0.211c0.852-0.309,1.662-0.737,2.432-1.286
	c0.311-0.225,0.557-0.471,0.736-0.738l0.172-0.127l0.221-0.189c0.18-0.127,0.318-0.253,0.418-0.38
	c0.031-0.042,0.195-0.449,0.49-1.224c0.262-0.491,0.393-0.885,0.393-1.181c0-0.506-0.213-1.005-0.639-1.497
	c-0.115-0.141-0.393-0.218-0.834-0.232C289.471,169.212,289.34,169.19,289.275,169.19L289.275,169.19z"/>
<path fill="#00441C" d="M295.634,174.991c-0.41,0.267-0.68,0.471-0.811,0.611c-0.131,0.127-0.236,0.204-0.32,0.232
	c-0.016,0-0.252,0.028-0.711,0.084c-0.426-0.056-0.711-0.315-0.859-0.78l-0.246-0.358c0,0,0.018-0.021,0.049-0.063
	c0.051-0.057,0.133-0.218,0.246-0.485l0.613-0.422l0.443-0.358c0.326-0.169,0.531-0.295,0.613-0.38
	c0.066-0.069,0.123-0.126,0.172-0.168c0-0.112,0.09-0.218,0.27-0.316c0,0,0.049-0.091,0.148-0.274
	c0.213-0.253,0.727-0.668,1.547-1.245c0.195-0.337,0.465-0.667,0.809-0.991c0.23-0.253,0.475-0.513,0.736-0.78
	c0.18-0.168,0.426-0.464,0.738-0.886c0.016,0,0.105-0.084,0.27-0.253c0.18-0.183,0.393-0.436,0.639-0.759l0.588-0.676l0.344-0.506
	c0.229-0.28,0.402-0.491,0.516-0.633c0.066-0.069,0.254-0.161,0.566-0.273c0.719-0.365,1.309-0.548,1.768-0.549
	c0.523,0,0.785,0.303,0.785,0.907c0,0.126-0.107,0.379-0.32,0.759l-0.293,0.823l-0.271,0.653l-0.221,0.696l-0.295,0.844
	l-0.098,0.464l-0.146,0.4l-0.123,0.506l-0.295,0.612l0.023,0.506c-0.08,0.858-0.121,1.315-0.121,1.371
	c0,0.099,0.008,0.211,0.023,0.337c0.018,0.422,0.023,0.661,0.025,0.718c0.016,0.717,0.18,1.075,0.49,1.075
	c0.066,0,0.303-0.133,0.713-0.4c0.244-0.141,0.498-0.26,0.762-0.358c0.031,0,0.096-0.07,0.195-0.211
	c0.131-0.197,0.311-0.379,0.541-0.549c0.146-0.141,0.521-0.52,1.129-1.139l0.441-0.422l0.785-0.971l0.172-0.147l0.246-0.295
	c0.359-0.38,0.605-0.703,0.736-0.971c0.049-0.056,0.246-0.294,0.59-0.717l0.318-0.274c0.393-0.393,0.811-0.589,1.252-0.59
	c0.461,0,0.82,0.028,1.082,0.084c0.459,0.099,0.688,0.485,0.688,1.16c0,0.057-0.008,0.26-0.023,0.611
	c0,0.015,0.023,0.268,0.074,0.76v0.231l0.146,0.485c0,0.352,0.049,0.591,0.148,0.717c0.375,0.563,0.752,0.844,1.129,0.844
	c0.229,0,0.572-0.069,1.031-0.211c0.064-0.069,0.121-0.126,0.172-0.168c0-0.154,0.146-0.288,0.441-0.401
	c0.277-0.099,0.547-0.146,0.811-0.147c0.326,0,0.596,0.147,0.811,0.442c0.098,0.142,0.146,0.303,0.146,0.485
	c0,0.38-0.189,0.675-0.564,0.886l-0.27,0.338l-0.172-0.042c0,0-0.059,0.105-0.172,0.316c-0.033,0.07-0.107,0.141-0.221,0.211
	c-0.197,0.112-0.328,0.183-0.395,0.211c-0.621,0.295-0.973,0.478-1.055,0.548l-0.639,0.296c-0.572,0.31-1.227,0.464-1.965,0.464
	c-1.59,0-2.662-0.929-3.217-2.784c-0.066-0.253-0.189-0.38-0.369-0.38c-0.098,0-0.229,0.141-0.393,0.422l-0.713,0.696l-0.367,0.464
	l-0.369,0.338c-0.277,0.352-0.508,0.604-0.688,0.759c-0.377,0.31-0.688,0.584-0.932,0.822c-0.23,0.211-0.705,0.569-1.424,1.075
	l-0.492,0.359l-0.195,0.063c-0.59,0.295-1.082,0.442-1.475,0.442s-0.844-0.119-1.35-0.358l-0.467-0.189l-0.318-0.338
	c-0.246-0.238-0.385-0.386-0.418-0.442c-0.066-0.169-0.221-0.802-0.467-1.898l-0.049-0.633l-0.098-0.675v-0.127l-0.051-0.442
	c-0.031-0.394-0.064-0.618-0.098-0.676c-0.049-0.056-0.123-0.083-0.221-0.084c-0.18,0-0.459,0.211-0.834,0.633
	c-0.098,0.099-0.328,0.295-0.688,0.591c-0.148,0.112-0.254,0.253-0.32,0.422C295.935,174.695,295.814,174.837,295.634,174.991
	L295.634,174.991z"/>
<path fill="#00441C" d="M316.064,174.991c-0.41,0.267-0.68,0.471-0.811,0.611c-0.131,0.127-0.238,0.204-0.32,0.232
	c-0.016,0-0.252,0.028-0.711,0.084c-0.426-0.056-0.711-0.315-0.859-0.78l-0.246-0.358c0,0,0.018-0.021,0.049-0.063
	c0.049-0.057,0.131-0.218,0.246-0.485l0.613-0.422l0.441-0.358c0.328-0.169,0.533-0.295,0.615-0.38
	c0.064-0.069,0.123-0.126,0.172-0.168c0-0.112,0.09-0.218,0.27-0.316c0-0.014,0.049-0.105,0.146-0.274
	c0.1-0.141,0.787-0.598,2.063-1.371c0.1-0.07,0.164-0.112,0.197-0.127c0.113-0.084,0.27-0.183,0.467-0.295
	c0.049-0.027,0.154-0.154,0.318-0.38l0.123-0.126l0.123-0.127c0.393-0.323,0.654-0.526,0.785-0.611l0.221-0.147l0.295-0.148
	l0.27-0.4c0.295-0.295,0.5-0.485,0.615-0.569l0.172-0.169l0.244-0.126c0.246-0.239,0.541-0.479,0.885-0.718
	c0.131-0.084,0.262-0.218,0.393-0.4c0.098-0.099,0.441-0.372,1.031-0.822l0.246-0.254l0.295-0.231l0.049-0.063l0.441-0.337
	l0.393-0.38c0.295-0.211,0.475-0.33,0.541-0.358c0.277-0.169,0.662-0.254,1.154-0.254c0.457,0,0.932,0.148,1.424,0.443
	c0.277,0.184,0.465,0.338,0.564,0.464c0.113,0.239,0.17,0.599,0.172,1.076v0.548c0,0.184-0.033,0.373-0.1,0.569
	c-0.113,0.324-0.172,0.507-0.172,0.549l0.025,0.527l-0.098,0.295l-0.049,0.358l-0.223,0.907l-0.049,0.274l-0.123,0.422l-0.072,0.316
	l-0.443,1.097l-0.465,1.286l-0.148,0.295l-0.195,0.485c-0.279,0.422-0.451,0.894-0.516,1.413l-0.049,0.253
	c0,0.1,0.072,0.148,0.221,0.148c0.211,0,0.621-0.246,1.227-0.738l0.123-0.063l0.221-0.147l0.639-0.316
	c0.131-0.07,0.293-0.253,0.49-0.549l1.057-0.738c0.064-0.069,0.115-0.126,0.146-0.168c0.018-0.154,0.172-0.288,0.467-0.401
	c0.262-0.099,0.531-0.146,0.811-0.147c0.326,0,0.598,0.147,0.811,0.442c0.098,0.142,0.146,0.303,0.146,0.485
	c0,0.38-0.188,0.675-0.564,0.886l-0.27,0.338l-0.172-0.042c-0.018,0-0.074,0.105-0.172,0.316c-0.033,0.07-0.107,0.141-0.221,0.211
	c-0.441,0.267-0.803,0.555-1.08,0.864c-0.033,0.028-0.197,0.127-0.492,0.295c-0.049,0.028-0.172,0.105-0.367,0.232
	c-0.131,0.084-0.271,0.162-0.418,0.232c-0.426,0.281-0.885,0.527-1.375,0.737c-0.393,0.169-0.695,0.401-0.908,0.696
	c-0.049,0.057-0.279,0.219-0.688,0.485c-0.377,0.352-0.605,0.542-0.688,0.569c-0.049,0.015-0.205,0.042-0.467,0.085
	c-0.098,0.014-0.238,0.126-0.418,0.337c-0.359,0.352-0.736,0.563-1.129,0.633c-0.066,0.014-0.328,0.133-0.785,0.358
	c-0.18,0.085-0.369,0.127-0.564,0.127c-0.393,0-0.59-0.19-0.59-0.57c0-0.028,0-0.057,0-0.084c0.016-0.099,0.023-0.168,0.025-0.211
	c0-0.042-0.107-0.176-0.32-0.4c-0.016-0.028-0.033-0.104-0.049-0.232c-0.033-0.126-0.09-0.344-0.172-0.653
	c-0.066-0.253-0.115-0.576-0.146-0.971c0-0.027-0.043-0.231-0.123-0.611c-0.018-0.056-0.025-0.112-0.025-0.169
	c0-0.014,0.033-0.168,0.1-0.464c0-0.027,0-0.063,0-0.105c0-0.042-0.059-0.246-0.172-0.611c0-0.028,0-0.057,0-0.085
	c0-0.098,0.09-0.273,0.27-0.526c0.18-0.254,0.326-0.415,0.441-0.485c0.475-0.296,0.834-0.443,1.08-0.443
	c0.197,0,0.344,0.05,0.443,0.147c0.031,0.015,0.113,0.155,0.244,0.422c0.049,0.085,0.115,0.127,0.197,0.127
	c0.229,0,0.434-0.598,0.613-1.793l0.049-0.253l0.049-0.696l0.1-0.316l0.049-0.358l0.049-0.232l0.025-0.421l0.023-0.296l-0.023-0.274
	l0.072-0.421c0-0.112-0.072-0.218-0.221-0.317c-0.131-0.111-0.27-0.168-0.418-0.168c-0.131,0-0.41,0.134-0.834,0.4l-0.318,0.189
	l-0.467,0.401c-0.443,0.268-1.049,0.703-1.818,1.308c-0.164,0.127-0.303,0.226-0.416,0.295c-0.328,0.211-0.607,0.422-0.836,0.633
	l-0.539,0.422c-1.195,0.97-1.826,1.491-1.891,1.561C316.375,174.646,316.226,174.851,316.064,174.991L316.064,174.991z"/>
<path fill-rule="evenodd" clip-rule="evenodd" fill="#00441C" d="M331.433,174.991c-0.408,0.253-0.68,0.45-0.811,0.59
	c-0.131,0.127-0.236,0.204-0.318,0.232c-0.377,0.07-0.613,0.099-0.713,0.084c-0.426-0.056-0.711-0.315-0.859-0.78l-0.246-0.337
	c0-0.015,0.018-0.035,0.049-0.063c0.051-0.057,0.133-0.225,0.246-0.507l0.613-0.4l0.443-0.358c0.328-0.169,0.531-0.295,0.613-0.38
	c0.082-0.069,0.156-0.188,0.221-0.358c0.148-0.098,0.27-0.231,0.369-0.4c0.244-0.31,0.693-0.675,1.35-1.097
	c0.031-0.268,0.057-0.45,0.074-0.549c0.031-0.267,0.049-0.442,0.049-0.527c0.016-0.352,0.131-0.85,0.344-1.497l0.344-0.633
	l0.344-0.928l0.172-0.232l0.318-0.611l0.541-0.696c0.621-0.829,1.252-1.44,1.891-1.835c0.113-0.084,0.277-0.295,0.49-0.633
	c0.033-0.027,0.115-0.077,0.246-0.147c0.064-0.027,0.139-0.07,0.221-0.126c0.393-0.281,0.793-0.457,1.203-0.527
	c0.115-0.028,0.293-0.07,0.541-0.127c0.08-0.027,0.244-0.041,0.49-0.042c0.246,0,0.467,0.042,0.662,0.127l0.443,0.168l0.121,0.063
	c0.59,0.268,0.949,0.745,1.082,1.434l0.146,0.38l0.025,0.211c0.016,0.184,0.023,0.303,0.023,0.358c0,0.113-0.049,0.254-0.146,0.422
	c-0.098,0.169-0.197,0.429-0.295,0.78c-0.033,0.099-0.148,0.331-0.344,0.696l-0.172,0.338l-0.662,0.906l-0.516,0.696l-0.271,0.274
	c-0.244,0.268-0.516,0.534-0.811,0.801c-0.244,0.226-0.498,0.493-0.76,0.802c-0.082,0.07-0.295,0.219-0.639,0.443
	c-0.23,0.253-0.475,0.485-0.736,0.696c-0.279,0.225-0.418,0.437-0.418,0.632c0,0.127,0.082,0.401,0.246,0.823
	c0.131,0.141,0.311,0.358,0.539,0.653c0.131,0.142,0.393,0.261,0.787,0.358c0.359,0.113,0.58,0.169,0.662,0.169
	c0.016,0,0.041,0,0.074,0c0.213-0.014,0.375-0.021,0.49-0.021c0.393-0.014,0.68-0.049,0.859-0.105l0.32-0.063
	c0.244-0.085,0.482-0.154,0.711-0.211c0.277-0.057,0.531-0.183,0.762-0.38c0.049-0.027,0.229-0.112,0.539-0.253
	c0.18-0.069,0.318-0.147,0.418-0.232c0.064-0.084,0.115-0.14,0.146-0.168c0.018-0.154,0.172-0.288,0.467-0.401
	c0.279-0.099,0.549-0.146,0.811-0.147c0.326,0,0.598,0.147,0.811,0.442c0.098,0.142,0.146,0.296,0.146,0.465
	c0,0.379-0.188,0.675-0.564,0.886l-0.27,0.337l-0.146-0.021c-0.018,0-0.084,0.105-0.197,0.316c-0.033,0.07-0.107,0.141-0.221,0.211
	c-0.18,0.099-0.377,0.246-0.59,0.442c-0.115,0.07-0.221,0.169-0.318,0.296l-0.295,0.211c-0.475,0.337-0.785,0.548-0.934,0.632
	c-0.098,0.071-0.459,0.239-1.08,0.507c-0.441,0.183-0.736,0.281-0.883,0.295c-0.279,0-0.459,0.007-0.541,0.021
	c-0.426,0.197-0.736,0.303-0.934,0.316c-0.082,0.014-0.475,0.035-1.178,0.063c-0.508-0.027-1.236-0.238-2.186-0.632
	c-0.279-0.112-0.582-0.352-0.908-0.718c-0.295-0.267-0.516-0.632-0.662-1.097c-0.182-0.633-0.443-0.949-0.787-0.949
	c-0.131,0-0.311,0.071-0.539,0.211C331.718,174.717,331.546,174.851,331.433,174.991L331.433,174.991z M338.208,166.238
	c-0.098,0-0.416,0.253-0.957,0.759c-0.279,0.268-0.467,0.507-0.564,0.718c-0.508,0.675-0.762,1.167-0.762,1.476
	c0,0.184,0.09,0.274,0.271,0.274c0.229,0,0.49-0.231,0.785-0.696c1.031-0.941,1.547-1.623,1.547-2.046
	C338.529,166.4,338.421,166.239,338.208,166.238L338.208,166.238z"/>
<path fill="#FFFF00" d="M66.741,105.622c-11.984,1.999-24.035-1.974-34.283-15.653c-4.843-6.527-4.82-15.549-6.563-23.034
	c1.971-16.61,11.406-26.551,26.724-32.682c17.362-6.999,49.689,2.867,50.263,29.973c0.211,8.508-2.444,16.485-6.84,23.079
	l1.531,1.86c9.439-15.979,15.087-48.948-9.803-56.5c-15.455-4.642-42.229-8.292-53.513,9.003c-3.75,5.604-7.161,9.249-9.769,15.298
	c-4.131,8.733,0.898,29.394,5.93,36.138c8.913,11.849,22.874,17.07,36.28,15.743L66.741,105.622z"/>
<g>
	<path fill="#00441C" d="M267.748,88.883c-1.416-0.884-3.924-1.327-7.523-1.327h-3.453v16.816h3.275
		c3.895,0,6.639-0.737,8.232-2.212c1.594-1.534,2.391-3.748,2.391-6.64C270.67,92.335,269.695,90.123,267.748,88.883z"/>
	<polygon fill="#00441C" points="200.098,114.02 213.286,114.02 207.091,94.637 	"/>
	<path fill="#00441C" d="M285.848,113.79c5.904-4.82,9.23-11.364,9.23-19.42c0-8.257-3.17-15.315-9.966-19.932
		c-3.471-2.342-7.689-3.692-12.125-4.327c-2.174-0.254-5.809-0.412-10.727-0.412h-31.048v23.878l-9.039-23.878h-25.172
		l-18.959,46.563l-7.384-12.57l20.388-33.455H157.86l-4.119,6.835V69.7h-22.158v-0.001h-28.545V90.86L86.499,69.699H63.204v75.896
		h28.548v-22.159l17.739,22.159h22.092v-0.109h22.158v-12.366l7.811,12.472l4.559-0.021l-0.011,0.025h29.579l6.02-14.869h9.456
		l4.869,14.869h15.188h19.694h12.836v-6.798l2.822,7.111l36.445-0.084L285.848,113.79z M124.613,138.624h-11.772l-28.06-35.049
		v35.049H70.175V76.669h12.924l26.91,34.431V76.669h14.604V138.624z M261.553,114.374h-4.781v24.25h-15.957h-2.631h-17.107
		l-4.87-14.869h-19.207l-6.019,14.869h-8.038l0.018,0.029l-17.758-0.021l-18.322-29.747v30.004h-18.59V76.933h18.59v25.579
		l15.027-24.931h16.838l-16.11,26.436l16.483,28.089l22.572-55.437h15.667l20.826,55.006V76.669h24.076
		c4.543,0,7.818,0.118,9.826,0.354c3.717,0.532,6.756,1.594,9.117,3.188c4.604,3.127,6.904,7.848,6.904,14.16
		c0,7.494-3.807,13.188-11.418,17.083l14.693,27.428l-20.088,0.047L261.553,114.374z"/>
</g>
</svg>
