<?xml version="1.0" encoding="utf-8"?>
<!-- Generator: Adobe Illustrator 16.0.1, SVG Export Plug-In . SVG Version: 6.00 Build 0)  -->
<!DOCTYPE svg PUBLIC "-//W3C//DTD SVG 1.1//EN" "http://www.w3.org/Graphics/SVG/1.1/DTD/svg11.dtd">
<svg version="1.1" id="Layer_1" xmlns="http://www.w3.org/2000/svg" xmlns:xlink="http://www.w3.org/1999/xlink" x="0px" y="0px"
	 width="344.786px" height="64.025px" viewBox="0 0 344.786 64.025" enable-background="new 0 0 344.786 64.025"
	 xml:space="preserve">
<path fill-rule="evenodd" clip-rule="evenodd" d="M29.959,0.019v10.303c0,0-7.595-0.757-9.496,2.154
	c-1.04,1.59-0.423,6.248-0.514,9.593h10.071c-0.851,3.911-1.461,6.563-2.087,9.947h-8.042v32.009H5.938
	c0.003-9.868-0.002-21.381,0-31.884H0V22.069h5.872c0.301-7.363,0.415-14.66,4.072-18.375C14.056-0.482,17.977,0.019,29.959,0.019"
	/>
<path fill-rule="evenodd" clip-rule="evenodd" d="M136.954,6.043c5.086-0.09,7.793,1.764,10.379,4.12
	c2.194-0.188,5.047-1.415,6.727-2.268c0.545-0.298,1.089-0.596,1.634-0.895c-0.96,2.595-2.261,4.623-4.261,6.164
	c-0.443,0.343-0.885,0.805-1.441,1.022v0.032c2.85-0.03,5.199-1.315,7.432-2.013v0.032c-1.172,1.864-2.76,3.754-4.453,5.11
	c-0.682,0.542-1.366,1.085-2.049,1.628c0.037,3.017-0.045,5.896-0.609,8.431c-3.279,14.738-11.967,24.744-25.721,29.03
	c-4.939,1.539-12.92,2.171-18.58,0.766c-2.805-0.695-5.34-1.481-7.719-2.522c-1.322-0.577-2.545-1.203-3.715-1.915
	c-0.386-0.235-0.77-0.47-1.154-0.703c1.276,0.038,2.77,0.39,4.197,0.16c1.291-0.209,2.557-0.154,3.746-0.416
	c2.971-0.651,5.608-1.514,7.881-2.842c1.102-0.645,2.772-1.402,3.555-2.331c-1.475,0.025-2.812-0.316-3.907-0.703
	c-4.248-1.5-6.72-4.257-8.328-8.399c1.287,0.14,4.994,0.477,5.86-0.256c-1.619-0.089-3.178-1.027-4.291-1.724
	c-3.416-2.139-6.203-5.725-6.182-11.242c0.447,0.213,0.896,0.426,1.344,0.639c0.858,0.362,1.731,0.556,2.756,0.768
	c0.433,0.089,1.297,0.343,1.794,0.158h-0.064c-0.661-0.769-1.737-1.281-2.403-2.106c-2.191-2.726-4.246-6.919-2.945-11.913
	c0.329-1.268,0.852-2.385,1.408-3.417c0.021,0.011,0.043,0.021,0.064,0.032c0.256,0.534,0.824,0.926,1.186,1.374
	c1.119,1.387,2.5,2.635,3.908,3.735c4.795,3.75,9.112,6.055,16.047,7.761c1.76,0.433,3.793,0.764,5.895,0.767
	c-0.59-1.719-0.4-4.5,0.064-6.164c1.168-4.183,3.707-7.198,7.432-8.814c0.891-0.386,1.878-0.668,2.914-0.894
	C135.885,6.171,136.42,6.107,136.954,6.043"/>
<path d="M265.748,10.035l-20.899-0.021l-21.718,0.021c-5.433,0-11.533,3.625-11.533,8.943v26.474c0,5.316,6.101,8.559,11.533,8.559
	h22.129h20.488c5.434,0,9.837-3.242,9.837-8.559V18.979C275.585,13.66,271.182,10.035,265.748,10.035 M239.454,42.208l-0.126-20.161
	l14.03,10.168L239.454,42.208z"/>
<circle fill-rule="evenodd" clip-rule="evenodd" cx="341.786" cy="32.013" r="3"/>
<circle fill-rule="evenodd" clip-rule="evenodd" cx="333.786" cy="32.013" r="3"/>
</svg>
