<?xml version="1.0" standalone="no"?>
<!DOCTYPE svg PUBLIC "-//W3C//DTD SVG 1.1//EN" "http://www.w3.org/Graphics/SVG/1.1/DTD/svg11.dtd" >
<svg xmlns="http://www.w3.org/2000/svg" xmlns:xlink="http://www.w3.org/1999/xlink" version="1.1">
<metadata></metadata>
<defs>
<font id="novecento_slab_wideultralight" horiz-adv-x="1368" >
<font-face units-per-em="2048" ascent="1681" descent="-367" />
<missing-glyph horiz-adv-x="512" />
<glyph horiz-adv-x="0" />
<glyph horiz-adv-x="682" />
<glyph unicode=" "  horiz-adv-x="512" />
<glyph unicode="&#x09;" horiz-adv-x="512" />
<glyph unicode="&#xa0;" horiz-adv-x="512" />
<glyph unicode="!" horiz-adv-x="423" d="M143 47q0 28 19 47t51 19t51 -19t19 -47q0 -30 -19 -48.5t-51 -18.5q-33 0 -51.5 19t-18.5 48zM184 281v1153h56v-1153h-56z" />
<glyph unicode="&#x22;" horiz-adv-x="450" d="M98 1434h56l-4 -445h-48zM291 1434h55l-4 -445h-47z" />
<glyph unicode="#" d="M102 268l13 47h235l139 521h-229l12 47h230l71 264h52l-72 -264h424l72 264h51l-72 -264h238l-13 -47h-237l-139 -521h231l-12 -47h-234l-71 -268h-52l72 268h-424l-72 -268h-51l72 268h-234zM401 315h424l140 521h-424z" />
<glyph unicode="$" horiz-adv-x="954" d="M104 0v340h52v-64q0 -80 47 -137t120 -83.5t164 -26.5q142 0 224 68.5t82 191.5q0 60 -22.5 106t-49 72.5t-81.5 49.5t-86.5 31.5t-97.5 23.5q-18 4 -26 6q-35 8 -58 14t-59.5 19t-61 27.5t-53 37.5t-45.5 50.5t-28.5 67t-11.5 85.5q0 134 87 211.5t240 78.5v170h56v-172 q195 -15 270 -168h2v148h49v-352h-51v71q0 106 -89.5 178t-232.5 72q-130 0 -203 -62.5t-73 -172.5q0 -52 18 -92.5t44 -66t72 -46t84.5 -31.5t98.5 -24q141 -31 205 -64q158 -82 158 -264q0 -148 -94.5 -232t-257.5 -86v-159h-56v161q-102 9 -175.5 51t-108.5 105h-2v-133 h-50z" />
<glyph unicode="%" horiz-adv-x="1409" d="M74 803q0 364 243 364q244 0 244 -364q0 -365 -244 -365q-243 0 -243 365zM123 803q0 -316 194 -316q195 0 195 316q0 161 -48.5 238t-146.5 77q-194 0 -194 -315zM479 0l387 1147h60l-387 -1147h-60zM848 350q0 367 244 367q243 0 243 -367q0 -364 -243 -364 q-244 0 -244 364zM897 350q0 -315 195 -315q194 0 194 315q0 316 -194 316q-195 0 -195 -316z" />
<glyph unicode="&#x26;" horiz-adv-x="1193" d="M127 297q0 128 75.5 208.5t186.5 94.5v4q-94 12 -169 87.5t-75 193.5q0 57 20 105.5t63 89.5t119 65t179 24q149 0 249.5 -48t144.5 -134h2l2 160h49v-336h-51v53q0 40 -24 82.5t-70.5 81.5t-127 63.5t-180.5 24.5q-165 0 -242 -63t-77 -166q0 -113 83.5 -185.5 t241.5 -72.5h648v-54h-191v-198q0 -201 -112.5 -301.5t-323.5 -100.5q-204 0 -312 88t-108 234zM182 303q0 -126 93.5 -200t273.5 -74q379 0 379 348v198h-402q-155 0 -249.5 -70.5t-94.5 -201.5z" />
<glyph unicode="'" horiz-adv-x="258" d="M98 1434h56l-4 -445h-48z" />
<glyph unicode="(" horiz-adv-x="655" d="M123 602q0 430 115.5 683.5t365.5 344.5l27 -49q-147 -53 -245.5 -168.5t-153 -318.5t-54.5 -492t54.5 -492t153 -318.5t245.5 -168.5l-27 -49q-250 91 -365.5 344.5t-115.5 683.5z" />
<glyph unicode=")" horiz-adv-x="655" d="M25 -377q147 53 245.5 169t152.5 318.5t54 491.5t-54 491.5t-152.5 318.5t-245.5 169l26 49q250 -91 365.5 -344.5t115.5 -683.5t-115.5 -683.5t-365.5 -344.5z" />
<glyph unicode="*" horiz-adv-x="839" d="M86 1171l16 48l291 -89v304h53v-304l291 89l17 -48l-287 -92l174 -254l-43 -28l-178 250l-178 -250l-43 28l174 254z" />
<glyph unicode="+" d="M342 575v54h342v362h59v-362h342v-54h-342v-366h-59v366h-342z" />
<glyph unicode="," horiz-adv-x="380" d="M98 -188q51 20 84 74.5t33 95.5q-35 -9 -57.5 7.5t-22.5 49.5q0 29 18 47t52 18t52.5 -22.5t18.5 -63.5q0 -61 -40 -133.5t-109 -99.5z" />
<glyph unicode="-" horiz-adv-x="1142" d="M229 575v54h744v-54h-744z" />
<glyph unicode="." horiz-adv-x="380" d="M121 47q0 29 18.5 47.5t50.5 18.5t51 -19t19 -47q0 -30 -19 -48.5t-51 -18.5q-33 0 -51 19t-18 48z" />
<glyph unicode="/" horiz-adv-x="815" d="M10 0l733 1434h62l-733 -1434h-62z" />
<glyph unicode="0" horiz-adv-x="1040" d="M82 573q0 286 110.5 441t327.5 155q215 0 326.5 -155.5t111.5 -440.5t-111.5 -441.5t-326.5 -156.5q-216 0 -327 156t-111 442zM137 573q0 -260 95.5 -402t287.5 -142q193 0 288 141.5t95 402.5q0 260 -95 401.5t-288 141.5q-192 0 -287.5 -141.5t-95.5 -401.5z" />
<glyph unicode="1" horiz-adv-x="745" d="M90 856l289 291h53v-1094h223v-53h-516v53h238v862q0 36 2 79.5t3.5 67t0.5 23.5h-2q-1 0 -19.5 -20.5t-41 -45t-31.5 -32.5l-162 -168z" />
<glyph unicode="2" horiz-adv-x="937" d="M84 0v63l434 357q145 120 209 207.5t64 191.5q0 128 -84.5 212.5t-237.5 84.5q-85 0 -153 -29t-105.5 -73t-56.5 -89t-19 -83v-47h-51v352h49v-176h4q42 97 129 147.5t207 50.5q172 0 272.5 -98.5t100.5 -255.5q0 -109 -63 -202.5t-228 -229.5l-399 -328l2 -2h168h471 v221h55v-274h-768z" />
<glyph unicode="3" horiz-adv-x="970" d="M86 307l49 15q22 -139 120.5 -216t250.5 -77q155 0 238 83t83 201q0 132 -87.5 197t-245.5 65h-103v54h103q155 0 239 60.5t84 178.5q0 116 -81 182t-228 66q-77 0 -139 -21t-99 -51.5t-62 -69t-34.5 -70.5t-9.5 -58v-51h-51v352h49v-176h4q37 94 126.5 146t217.5 52 q92 0 163 -24t113.5 -66t64 -94.5t21.5 -112.5q0 -104 -63 -177.5t-166 -90.5v-6q106 -15 174 -87t68 -200q0 -149 -109.5 -242.5t-275.5 -93.5q-167 0 -281 91.5t-133 240.5z" />
<glyph unicode="4" horiz-adv-x="997" d="M59 334v59l609 754h71v-760h172v-53h-172v-281h148v-53h-350v53h147v281h-625zM121 389l2 -2h217h344v444v252h-2z" />
<glyph unicode="5" horiz-adv-x="980" d="M82 309l51 13q23 -136 122.5 -214.5t238.5 -78.5q153 0 249.5 89t96.5 242q0 151 -97 240.5t-262 89.5q-125 0 -205.5 -53t-109.5 -123l-47 14l100 619h606v-270h-55v217h-510l-45 -273q-6 -37 -12.5 -72.5t-11.5 -61t-9.5 -45t-7.5 -30.5l-2 -10l2 -2q34 52 121 97.5 t201 45.5q175 0 287 -105.5t112 -279.5q0 -173 -112.5 -278t-288.5 -105q-157 0 -270 90t-142 244z" />
<glyph unicode="6" horiz-adv-x="978" d="M86 377q0 180 127 346l328 424h67l-411 -531l4 -2q105 134 301 134q180 0 292.5 -106.5t112.5 -272.5q0 -171 -115.5 -282.5t-297.5 -111.5q-180 0 -294 110.5t-114 291.5zM141 367q0 -152 97.5 -245t257.5 -93q158 0 256.5 93t99.5 247q2 147 -95 236t-261 89 q-163 0 -259 -89t-96 -238z" />
<glyph unicode="7" horiz-adv-x="927" d="M86 877v270h795v-49l-619 -1098h-61l553 987q14 26 31 52.5t26.5 40t9.5 14.5l-2 2q-77 -2 -145 -2h-533v-217h-55z" />
<glyph unicode="8" horiz-adv-x="1011" d="M86 303q0 130 87.5 208.5t205.5 86.5v4q-23 2 -52 12.5t-62.5 33t-61 52t-46 74.5t-18.5 96q0 126 98 212.5t269 86.5t268.5 -86t97.5 -211q0 -52 -18.5 -97t-46 -75t-60.5 -52.5t-61.5 -33t-50.5 -12.5v-4q74 -5 138.5 -39t108.5 -101t44 -155q0 -149 -116 -238.5 t-304 -89.5t-304 89.5t-116 238.5zM141 305q0 -130 98 -203t267 -73q167 0 265.5 73.5t98.5 202.5q0 126 -97 196t-267 70t-267.5 -70t-97.5 -196zM193 868q0 -114 89 -179.5t224 -63.5q144 1 228.5 70t84.5 175q0 107 -83.5 176.5t-229.5 69.5q-147 0 -230 -70t-83 -178z " />
<glyph unicode="9" horiz-adv-x="991" d="M72 776q0 175 115 284t300 109q181 0 299.5 -106t118.5 -291q0 -113 -53.5 -220.5t-185.5 -264.5l-246 -287h-68l441 522l-2 2q-123 -135 -314 -135q-183 0 -294 107.5t-111 279.5zM127 774q0 -87 30 -152.5t81.5 -104t114 -57t134.5 -18.5q157 0 260 86t103 250 q0 86 -30 152.5t-82 106t-115.5 59.5t-135.5 20q-71 0 -134 -20t-114.5 -60t-81.5 -107.5t-30 -154.5z" />
<glyph unicode=":" horiz-adv-x="380" d="M121 47q0 29 18.5 47.5t50.5 18.5t51 -19t19 -47q0 -30 -19 -48.5t-51 -18.5q-33 0 -51 19t-18 48zM121 782q0 28 18.5 47t50.5 19t51 -19t19 -47q0 -30 -19 -48.5t-51 -18.5q-33 0 -51 19t-18 48z" />
<glyph unicode=";" horiz-adv-x="380" d="M98 -188q51 20 84 74.5t33 95.5q-35 -9 -57.5 7.5t-22.5 49.5q0 29 18 47t52 18t52.5 -22.5t18.5 -63.5q0 -61 -40 -133.5t-109 -99.5zM121 782q0 28 18.5 47t50.5 19t51 -19t19 -47q0 -30 -19 -48.5t-51 -18.5q-33 0 -51 19t-18 48z" />
<glyph unicode="&#x3c;" d="M150 571v66l923 475v-61l-870 -445v-4l870 -444v-62z" />
<glyph unicode="=" d="M342 420v53h743v-53h-743zM342 733v53h743v-53h-743z" />
<glyph unicode="&#x3e;" d="M264 96v62l871 444v4l-871 445v61l924 -475v-66z" />
<glyph unicode="?" horiz-adv-x="1132" d="M102 1087q42 186 171.5 280.5t328.5 94.5q120 0 211.5 -34t142 -90.5t75 -121t24.5 -135.5q0 -74 -27.5 -137.5t-70.5 -110t-108.5 -88.5t-128 -70t-142.5 -57v-337h-60v372q263 98 370 194t107 230q0 47 -11 91t-39 88.5t-72 77t-115 53t-162 20.5q-192 0 -297.5 -86.5 t-144.5 -247.5zM475 47q0 28 19 47t51 19t50.5 -19t18.5 -47q0 -30 -18.5 -48.5t-50.5 -18.5q-33 0 -51.5 19t-18.5 48z" />
<glyph unicode="@" horiz-adv-x="1597" d="M90 543q0 156 54 292.5t147.5 233.5t225 153t282.5 56q202 0 364 -95.5t253 -262.5t91 -373q0 -180 -70.5 -282.5t-193.5 -102.5q-75 0 -131 47.5t-63 132.5h-5q-33 -85 -107.5 -132.5t-170.5 -47.5q-134 0 -231 99t-97 261q0 161 89.5 267t238.5 106q70 0 125 -20.5 t84.5 -50.5t44 -52.5t18.5 -38.5h4v125h54v-467q0 -93 40 -135.5t107 -42.5q99 0 154 88.5t55 247.5q0 193 -84 347.5t-234 241.5t-337 87q-140 0 -261 -51t-207 -140.5t-135 -217t-49 -275.5q0 -195 77 -349t222.5 -242.5t337.5 -88.5q92 0 174 16.5t130.5 35.5t93.5 48 t56 39t24 23l40 -33q-53 -54 -126 -93t-147.5 -57t-133.5 -25.5t-109 -7.5q-157 0 -288.5 56.5t-219.5 155t-137 233.5t-49 291zM494 522q0 -144 75 -225.5t197 -81.5q124 0 194.5 79t81.5 202v61q0 128 -76 206.5t-200 78.5q-130 0 -201 -88t-71 -232z" />
<glyph unicode="A" horiz-adv-x="1525" d="M10 0v53h146l516 1219q41 99 45 106l-2 2h-88h-84v54h241l586 -1381h146v-53h-367v53h162l-176 418h-744l-176 -418h162v-53h-367zM414 522h698l-176 422q-45 106 -79.5 189t-51 125t-26.5 69t-13 34l-2 7h-2l-2 -8q-3 -7 -13 -34t-26.5 -69t-51 -126.5t-79.5 -192.5z " />
<glyph unicode="B" horiz-adv-x="1310" d="M86 0v53h164v1327h-164v54h614q196 0 310 -93t114 -247q0 -74 -22 -133.5t-59 -97t-79 -60t-90 -31.5v-6q43 -3 88.5 -15.5t96 -41.5t90 -70t65 -106t25.5 -144q0 -190 -125 -289.5t-346 -99.5h-682zM305 53h467q188 0 300 83t112 247q0 110 -60 192t-153.5 121 t-204.5 39h-461v-682zM305 788h410q159 0 256.5 77.5t97.5 224.5q0 134 -100 212t-277 78h-387v-592z" />
<glyph unicode="C" horiz-adv-x="1607" d="M90 721q0 168 58.5 308.5t159 234.5t236.5 146t290 52q187 0 340.5 -79t255.5 -220h2v271h51v-502h-53v133q0 15 -22.5 52t-72.5 87.5t-117 96t-169 77t-215 31.5q-144 0 -270 -47.5t-219 -134.5t-146.5 -217.5t-53.5 -288.5q0 -157 53.5 -289t145 -219t212.5 -135.5 t257 -48.5q218 0 386 98.5t255 271.5l51 -14q-88 -191 -272 -300.5t-420 -109.5q-148 0 -280 53t-230.5 148.5t-155.5 236.5t-57 308z" />
<glyph unicode="D" horiz-adv-x="1527" d="M86 0v53h164v1327h-164v54h588q345 0 554.5 -195t209.5 -528q0 -165 -55.5 -300t-154.5 -224.5t-235.5 -138t-298.5 -48.5h-608zM305 53h389q146 0 271 43t218 124t146 207.5t53 283.5q0 210 -91 362.5t-250 229.5t-367 77h-369v-1327z" />
<glyph unicode="E" horiz-adv-x="1286" d="M86 0v53h164v1327h-164v54h1065v-336h-53v282h-793v-592h688v-53h-688v-682h805v287h53v-340h-1077z" />
<glyph unicode="F" horiz-adv-x="1273" d="M86 0v53h164v1327h-164v54h1065v-336h-53v282h-793v-608h647v-53h-647v-666h205v-53h-424z" />
<glyph unicode="G" horiz-adv-x="1630" d="M90 719q0 220 99 391t266.5 261.5t373.5 90.5q186 0 344.5 -79.5t245.5 -219.5h2v271h52v-502h-54v133q0 15 -22.5 52t-72 87.5t-116 96t-168 77t-213.5 31.5q-142 0 -266.5 -47.5t-216.5 -134t-145.5 -216.5t-53.5 -288t53 -289.5t144.5 -219.5t215.5 -136.5t265 -48.5 q112 0 217.5 31.5t182 81.5t131 105t80.5 107v291h-469v53h522v-698h-53v82.5t0.5 65.5t0.5 49v36t0.5 23t0.5 14v4h-2q-22 -31 -51.5 -63t-85 -77t-118.5 -78t-154.5 -57t-190.5 -24q-208 0 -376.5 91t-268 262t-99.5 391z" />
<glyph unicode="H" horiz-adv-x="1550" d="M86 0v53h164v1327h-164v54h383v-54h-164v-592h940v592h-164v54h383v-54h-164v-1327h164v-53h-383v53h164v682h-940v-682h164v-53h-383z" />
<glyph unicode="I" horiz-adv-x="555" d="M86 0v53h164v1327h-164v54h383v-54h-164v-1327h164v-53h-383z" />
<glyph unicode="J" horiz-adv-x="931" d="M0 152l29 49q123 -172 319 -172q187 0 285 127.5t98 367.5v856h-328v54h385v-902q0 -268 -114 -412.5t-328 -144.5q-209 0 -346 177z" />
<glyph unicode="K" horiz-adv-x="1449" d="M86 0v53h164v1327h-164v54h383v-54h-164v-426v-90.5t-0.5 -79.5t-0.5 -66.5v-54t-0.5 -39t-0.5 -25.5v-9h2l3 3l10.5 10.5l19.5 19.5t33 34t48.5 49.5l69.5 69.5t91 92l505 512h-143v54h385v-54h-170l-510 -518l592 -809h170v-53h-373v53h138l-566 770l-303 -307v-463 h164v-53h-383z" />
<glyph unicode="L" horiz-adv-x="1243" d="M86 0v53h164v1327h-164v54h383v-54h-164v-1327h772v287h53v-340h-1044z" />
<glyph unicode="M" horiz-adv-x="1755" d="M86 0v53h164v1327h-164v54h221l570 -1018h2l569 1018h221v-54h-164v-1327h164v-53h-383v53h164v778q0 30 0.5 74.5t1 92.5t1 99t1 96.5t1 81.5t1.5 57v22h-2l-6 -14l-25 -50t-44.5 -87t-75.5 -140t-109 -195l-295 -516h-43l-293 514q-61 106 -110 195.5t-76 141t-45 87.5 t-24 50l-7 14h-2l1 -22q0 -21 0.5 -57t1 -81.5t1 -96.5t1 -99t1 -92.5t0.5 -74.5v-778h164v-53h-383z" />
<glyph unicode="N" horiz-adv-x="1568" d="M86 0v53h164v1327h-164v54h219l998 -1346h2l-1 10q0 9 -0.5 25.5t-1 38.5t-1.5 51t-1.5 59.5t-1 67.5t-0.5 72v968h-163v54h383v-54h-164v-1380h-54l-999 1350h-2l1 -9q0 -9 0.5 -25.5t1 -38t1 -50.5t1 -59.5t1 -67t0.5 -72.5v-975h164v-53h-383z" />
<glyph unicode="O" horiz-adv-x="1648" d="M90 719q0 165 57.5 305.5t156.5 235.5t233 148.5t286 53.5q203 0 370 -90.5t266.5 -261.5t99.5 -391q0 -165 -58 -305.5t-157.5 -236t-234 -149t-286.5 -53.5t-286 53.5t-233 149t-156.5 236t-57.5 305.5zM145 719q0 -158 53 -289t144.5 -218t215.5 -135t265 -48 t264.5 47.5t216 134.5t146 218.5t53.5 289.5t-53.5 289.5t-146 218.5t-216 134.5t-264.5 47.5t-265 -48t-215.5 -135t-144.5 -218t-53 -289z" />
<glyph unicode="P" horiz-adv-x="1196" d="M86 0v53h164v1327h-164v54h535q246 0 380 -102.5t134 -303.5q0 -200 -134.5 -302.5t-379.5 -102.5h-316v-570h164v-53h-383zM305 676h316q226 0 342 88t116 264q0 352 -458 352h-316v-704z" />
<glyph unicode="Q" horiz-adv-x="1648" d="M90 719q0 165 57.5 305.5t156.5 235.5t233 148.5t286 53.5q203 0 370 -90.5t266.5 -261.5t99.5 -391q0 -161 -55.5 -299t-150.5 -233t-224 -151t-275 -61v-245h-59v245q-146 5 -275 61t-224 151t-150.5 233t-55.5 299zM145 719q0 -158 53 -289t144.5 -218t215.5 -135 t265 -48t264.5 47.5t216 134.5t146 218.5t53.5 289.5t-53.5 289.5t-146 218.5t-216 134.5t-264.5 47.5t-265 -48t-215.5 -135t-144.5 -218t-53 -289z" />
<glyph unicode="R" horiz-adv-x="1298" d="M86 0v53h164v1327h-164v54h537q241 0 376.5 -105t135.5 -297q0 -163 -96 -252t-269 -112l342 -615h166v-53h-207l-362 662q-55 -3 -168 -3h-236v-606h164v-53h-383zM305 711h332q442 0 442 319q0 177 -121.5 263.5t-339.5 86.5h-313v-669z" />
<glyph unicode="S" horiz-adv-x="1189" d="M104 0v422h56v-82q0 -99 63.5 -171t164 -106t222.5 -34q195 0 306.5 91t111.5 249q0 53 -14 97.5t-34.5 75.5t-55.5 57.5t-66.5 42t-79 30t-80 22.5t-81.5 18q-35 7 -52 11q-56 12 -87 19.5t-85 24t-86 33.5t-72 46.5t-62.5 63.5t-38 83t-15.5 107q0 168 115.5 265 t320.5 97q94 0 173 -21.5t131.5 -57.5t86.5 -74t53 -80h2v205h52v-439h-54v92q0 131 -126 226.5t-324 95.5q-177 0 -276 -81t-99 -226q0 -49 13 -91t32.5 -71t52.5 -53.5t60.5 -39.5t71.5 -29t70.5 -20.5t70.5 -15.5q187 -39 247 -58q192 -60 255 -184q36 -71 36 -167 q0 -185 -126 -291.5t-349 -106.5q-159 0 -277 53.5t-171 141.5h-2v-170h-54z" />
<glyph unicode="T" horiz-adv-x="1353" d="M82 1098v336h1190v-336h-55v282h-512v-1327h184v-53h-424v53h184v1327h-512v-282h-55z" />
<glyph unicode="U" horiz-adv-x="1447" d="M20 1380v54h383v-54h-163v-815q0 -268 118 -402t365 -134q249 0 367 134t118 402v815h-164v54h383v-54h-163v-807q0 -598 -541 -598q-539 0 -539 598v807h-164z" />
<glyph unicode="V" horiz-adv-x="1529" d="M20 1380v54h359v-54h-164l332 -792q215 -514 217 -516h2q2 2 217 516l332 792h-164v54h358v-54h-137l-584 -1380h-47l-583 1380h-138z" />
<glyph unicode="W" horiz-adv-x="2070" d="M20 1380v54h359v-54h-162l197 -573q72 -209 131.5 -388.5t82.5 -250.5l23 -72h2q1 1 21.5 66t65.5 207.5t87 271.5l185 563h47l209 -641q32 -99 70 -218.5t58 -183.5t21 -65h2q1 1 23 70.5t77 234.5t117 347l217 632h-161v54h358v-54h-137l-471 -1380h-47l-252 770 q-21 66 -48 152.5t-42.5 139.5t-16.5 54h-2q-1 -1 -16.5 -54.5t-42 -140.5t-47.5 -153l-252 -768h-47l-471 1380h-138z" />
<glyph unicode="X" horiz-adv-x="1431" d="M20 0v53h130l530 703l-473 624h-152v54h381v-54h-164l299 -403q146 -195 148 -195h2q1 0 143 195l295 403h-164v54h381v-54h-151l-469 -632l526 -695h129v-53h-356v53h159l-329 441q-165 221 -168 221h-2q-3 0 -162 -213l-336 -449h160v-53h-357z" />
<glyph unicode="Y" horiz-adv-x="1390" d="M20 1380v54h365v-54h-160l252 -360q203 -289 217 -303h2q13 13 217 305l252 358h-159v54h364v-54h-137l-510 -721v-606h164v-53h-383v53h164v606l-510 721h-138z" />
<glyph unicode="Z" horiz-adv-x="1323" d="M92 0v49l864 1079q68 85 121 148.5t71 83.5l17 20l-2 2h-3q-3 0 -9 -0.5t-14.5 -0.5h-21.5t-28.5 -0.5t-37 -0.5h-45.5h-836v-282h-55v336h1118v-50l-885 -1105q-66 -83 -114 -141.5t-59 -72t-11 -14.5l2 -2l8 1q7 0 21 0.5t32 1t43 1t51 0.5h857v287h55v-340h-1139z" />
<glyph unicode="[" horiz-adv-x="655" d="M195 -426v2056h376v-53h-315v-1950h315v-53h-376z" />
<glyph unicode="\" horiz-adv-x="815" d="M10 1434h62l733 -1434h-62z" />
<glyph unicode="]" horiz-adv-x="655" d="M84 -373h315v1950h-315v53h377v-2056h-377v53z" />
<glyph unicode="^" d="M133 778l518 672h66l518 -672l-45 -30l-506 655l-506 -655z" />
<glyph unicode="_" horiz-adv-x="1284" d="M86 0h1112v-43h-1112v43z" />
<glyph unicode="`" horiz-adv-x="1024" d="M328 1827l55 20l203 -303h-62z" />
<glyph unicode="a" horiz-adv-x="1255" d="M10 0v53h119l352 813q95 219 97 226v2h-72h-66v53h213l473 -1094h119v-53h-307v53h129l-137 320h-604l-138 -320h129v-53h-307zM348 426h559l-151 350q-50 117 -81 195t-37 97l-7 19h-4l-7 -19q-6 -18 -38.5 -96t-83.5 -196z" />
<glyph unicode="b" horiz-adv-x="1105" d="M86 0v53h133v1041h-133v53h535q146 0 237.5 -79t91.5 -194q0 -215 -209 -262v-6q37 -3 75 -13.5t78 -34t70.5 -55.5t50 -82t19.5 -110q0 -142 -101 -226.5t-267 -84.5h-580zM274 53h394q135 0 223 68t88 186q0 123 -94 195.5t-230 72.5h-381v-522zM274 629h336 q70 0 132.5 23.5t107.5 80t45 135.5q0 97 -78 161.5t-205 64.5h-338v-465z" />
<glyph unicode="c" horiz-adv-x="1353" d="M90 571q0 172 82 310t221 213t307 75q152 0 277.5 -61.5t202.5 -171.5h2v211h49v-406h-51v103q0 13 -18 43t-58.5 69.5t-94 75t-136 60t-173.5 24.5q-155 0 -281 -68t-200 -193t-74 -284q0 -240 151 -391t384 -151q177 0 313.5 79.5t206.5 215.5l51 -15 q-75 -155 -225 -244.5t-346 -89.5q-169 0 -303.5 76t-210.5 212t-76 308z" />
<glyph unicode="d" horiz-adv-x="1286" d="M86 0v53h133v1041h-133v53h481q283 0 456 -156.5t173 -421.5q0 -174 -78.5 -304t-216.5 -197.5t-317 -67.5h-498zM274 53h308q160 0 285.5 58.5t199.5 176.5t74 281q0 245 -158.5 385t-417.5 140h-291v-1041z" />
<glyph unicode="e" horiz-adv-x="1095" d="M86 0v53h133v1041h-133v53h877v-275h-56v222h-633v-465h553v-54h-553v-522h644v226h55v-279h-887z" />
<glyph unicode="f" horiz-adv-x="1085" d="M86 0v53h133v1041h-133v53h877v-275h-56v222h-633v-482h521v-53h-521v-506h168v-53h-356z" />
<glyph unicode="g" horiz-adv-x="1380" d="M90 569q0 127 47.5 239t128.5 191t193 124.5t237 45.5q150 0 277.5 -62t197.5 -171h3v211h49v-402h-52v103q0 12 -18 40.5t-57.5 68t-92.5 75t-134.5 60t-172.5 24.5q-153 0 -278.5 -68t-199 -192.5t-73.5 -282.5t73 -283t197.5 -193t276.5 -68q90 0 175.5 25.5t147 66 t105 84.5t64.5 86v198h-381v54h434v-543h-53v64.5t0.5 51t0.5 38v28t0.5 17.5t0.5 11v3h-2q-20 -25 -42.5 -49.5t-68.5 -61t-96 -62.5t-124 -45.5t-153 -19.5q-169 0 -308.5 76t-220.5 212.5t-81 305.5z" />
<glyph unicode="h" horiz-adv-x="1304" d="M86 0v53h133v1041h-133v53h322v-53h-134v-465h756v465h-133v53h322v-53h-134v-1041h134v-53h-322v53h133v522h-756v-522h134v-53h-322z" />
<glyph unicode="i" horiz-adv-x="493" d="M86 0v53h133v1041h-133v53h322v-53h-134v-1041h134v-53h-322z" />
<glyph unicode="j" horiz-adv-x="792" d="M0 109l31 43q95 -123 256 -123q149 0 228 99.5t79 287.5v678h-268v53h323v-725q0 -215 -94 -331t-268 -116q-179 0 -287 134z" />
<glyph unicode="k" horiz-adv-x="1220" d="M86 0v53h133v1041h-133v53h322v-53h-134v-326v-71.5t-0.5 -63t-0.5 -53v-44t-0.5 -31.5t-0.5 -21v-7h2l193 191l434 426h-110v53h321v-53h-135l-418 -406l481 -635h140v-53h-312v53h103l-451 596l-246 -239v-357h134v-53h-322z" />
<glyph unicode="l" horiz-adv-x="1058" d="M86 0v53h133v1041h-133v53h322v-53h-134v-1041h617v226h55v-279h-860z" />
<glyph unicode="m" horiz-adv-x="1474" d="M86 0v53h133v1041h-133v53h203l325 -578q31 -57 62 -116t44.5 -85t14.5 -26h4q1 0 14.5 26t44 83.5t62.5 113.5l326 582h203v-53h-134v-1041h134v-53h-322v53h133v594l2 422h-2l-440 -786h-49l-439 788h-2v-17q0 -18 0.5 -46.5t1 -65t1 -77.5t1 -80t0.5 -76v-62v-594h134 v-53h-322z" />
<glyph unicode="n" horiz-adv-x="1312" d="M86 0v53h133v1041h-133v53h186l803 -1057h2v8q0 7 -0.5 21t-1 32t-1 41.5t-1 48t-0.5 54v57.5v740h-133v53l322 2v-53h-134v-1094h-51l-805 1063h-2v-7q0 -8 0.5 -21.5t1 -31.5t1 -41.5t1 -48.5t0.5 -55v-59v-746h134v-53h-322z" />
<glyph unicode="o" horiz-adv-x="1361" d="M90 571q0 170 79 307.5t213.5 214t297.5 76.5t298 -76.5t214.5 -214t79.5 -307.5q0 -169 -79.5 -306t-214.5 -213.5t-298 -76.5q-162 0 -297 76.5t-214 213.5t-79 306zM145 571q0 -158 71.5 -282.5t193 -192t270.5 -67.5q148 0 270.5 67.5t194.5 192.5t72 282 q0 158 -72.5 283.5t-194.5 193.5t-270 68q-149 0 -270.5 -68t-193 -193t-71.5 -284z" />
<glyph unicode="p" horiz-adv-x="1013" d="M86 0v53h133v1041h-133v53h442q207 0 315.5 -86t108.5 -240q0 -153 -108.5 -238t-315.5 -85h-254v-445h134v-53h-322zM274 551h256q179 0 273 71t94 199q0 129 -94 201t-273 72h-256v-543z" />
<glyph unicode="q" horiz-adv-x="1361" d="M90 571q0 170 79 307.5t213.5 214t297.5 76.5t298 -76.5t214.5 -214t79.5 -307.5q0 -164 -75.5 -298.5t-204 -212.5t-283.5 -85v-213h-56v213q-156 7 -284.5 85t-203.5 212.5t-75 298.5zM145 571q0 -158 71.5 -282.5t193 -192t270.5 -67.5q148 0 270.5 67.5t194.5 192.5 t72 282q0 158 -72.5 283.5t-194.5 193.5t-270 68q-149 0 -270.5 -68t-193 -193t-71.5 -284z" />
<glyph unicode="r" horiz-adv-x="1089" d="M86 0v53h133v1041h-133v53h444q201 0 311.5 -80t110.5 -233q0 -132 -80.5 -213.5t-218.5 -100.5l285 -467h131v-53h-162l-313 514q-61 -4 -141 -4h-179v-457h134v-53h-322zM274 563h254q369 0 369 266q0 265 -369 265h-254v-531z" />
<glyph unicode="s" horiz-adv-x="1015" d="M104 0v340h52v-64q0 -80 51 -137t131.5 -83.5t179.5 -26.5q158 0 247 68t89 192q0 59 -24.5 105.5t-50 72t-86 49t-84.5 29t-94 20.5q-17 4 -26 6q-47 10 -75 17t-73 21t-72.5 28.5t-60.5 38t-51 51t-31 66t-13 84.5q0 136 95.5 214t262.5 78q76 0 138 -15.5t103.5 -42.5 t68 -55.5t44.5 -62.5h2v154h50v-352h-52v71q0 107 -97.5 178.5t-258.5 71.5q-141 0 -221 -62.5t-80 -174.5q0 -44 12.5 -79t39.5 -60.5t54.5 -43.5t71 -32.5t76 -22.5t82.5 -18q160 -32 232 -66q173 -81 173 -264q0 -150 -103.5 -234t-287.5 -84q-128 0 -223.5 43.5 t-138.5 114.5h-2v-133h-50z" />
<glyph unicode="t" horiz-adv-x="1148" d="M82 872v275h985v-275h-55v222h-410v-1041h154v-53h-363v53h154v1041h-410v-222h-55z" />
<glyph unicode="u" horiz-adv-x="1200" d="M20 1094v53h322v-53h-133v-648q0 -208 95.5 -312.5t295.5 -104.5t295.5 104.5t95.5 312.5v648h-133v53h322v-53h-133v-641q0 -478 -449 -478q-444 0 -444 478v641h-134z" />
<glyph unicode="v" horiz-adv-x="1261" d="M20 1094v53h304v-53h-131l260 -602q61 -142 106 -248.5t58 -138.5t14 -33h2q1 1 14 33t58 138.5t106 248.5l260 602h-131v53h301v-53h-113l-473 -1094h-49l-473 1094h-113z" />
<glyph unicode="w" horiz-adv-x="1710" d="M20 1094v53h304v-53h-134l138 -392q53 -152 106.5 -309t78.5 -231.5t26 -75.5h2q1 1 143 440l147 441h48l149 -447q140 -433 141 -434h2q1 1 26 75.5t78.5 231.5t106.5 309l138 392h-134v53h304v-53h-113l-383 -1094h-49l-180 535q-31 90 -58 178t-39 130l-12 42h-2 q-1 -1 -13 -42.5t-39 -128t-57 -173.5l-180 -541h-49l-383 1094h-113z" />
<glyph unicode="x" horiz-adv-x="1204" d="M20 0v53h111l432 547l-389 494h-125v53h326v-53h-131l237 -301q24 -31 55 -72.5t48 -64.5t18 -23h2q1 0 131 170l223 291h-129v53h326v-53h-125l-393 -498l436 -543h111v-53h-305v53h125l-175 221q-74 93 -133.5 169t-77 99t-18.5 23h-2q-1 0 -18.5 -23t-77 -99.5 t-131.5 -168.5l-172 -221h127v-53h-306z" />
<glyph unicode="y" horiz-adv-x="1148" d="M20 1094v53h308v-53h-129l123 -174q71 -100 133 -185t89 -120t29 -37h2q18 18 254 344l123 172h-131v53h307v-53h-112l-414 -570v-471h133v-53h-321v53h133v471l-414 570h-113z" />
<glyph unicode="z" horiz-adv-x="1120" d="M92 0v49l668 807q69 84 121 144.5t66 76.5t14 17h-3h-131h-663v-222h-55v275h919v-49l-647 -789q-54 -65 -96.5 -115.5t-64 -76t-35.5 -41t-17 -19.5l-4 -4l2 -2q45 2 129 2h678v226h55v-279h-936z" />
<glyph unicode="{" horiz-adv-x="638" d="M86 575v54q29 6 41 13q94 52 94 276v303q0 115 24.5 197t70.5 127t103.5 65t131.5 20v-53q-61 0 -107.5 -15t-86 -51t-60.5 -104t-21 -166v-315q0 -73 -12 -131.5t-27 -90.5t-37 -56.5t-33 -32t-24 -13.5q11 -5 23.5 -13t33.5 -32t36.5 -57t27.5 -92t12 -132v-313 q0 -98 21 -166t60.5 -104t86 -51t107.5 -15v-53q-74 0 -131.5 20t-103.5 65.5t-70.5 127.5t-24.5 197v303q1 77 -11 134t-28 85t-37.5 44.5t-33.5 20t-22 4.5h-3z" />
<glyph unicode="|" horiz-adv-x="301" d="M123 -152v1739h55v-1739h-55z" />
<glyph unicode="}" horiz-adv-x="638" d="M88 -373q61 0 107.5 15t85.5 51t60 104t21 166v316q0 259 134 323q-11 5 -23.5 13t-34 32t-37 57t-27.5 92t-12 132v313q0 98 -21 166t-60 104t-85.5 51t-107.5 15v53q74 0 131.5 -20t103.5 -65t70.5 -127t24.5 -197v-303q-1 -77 11.5 -134.5t28 -85.5t37 -44.5t33.5 -20 t22 -4.5h3v-54q-28 -6 -38 -11q-97 -49 -97 -277v-303q0 -115 -24.5 -197t-70.5 -127.5t-103.5 -65.5t-131.5 -20v53z" />
<glyph unicode="~" d="M270 584q88 102 222 102q72 0 195.5 -46t199.5 -46q110 0 200 90l11 -53q-26 -33 -81.5 -62.5t-137.5 -29.5q-71 0 -196.5 46t-201.5 46q-46 0 -88 -18.5t-62 -36t-46 -44.5z" />
<glyph unicode="&#xa1;" horiz-adv-x="423" d="M143 1386q0 30 19 49t51 19q33 0 51.5 -19.5t18.5 -48.5q0 -28 -19 -46.5t-51 -18.5q-33 0 -51.5 18.5t-18.5 46.5zM186 0v1153h56v-1153h-56z" />
<glyph unicode="&#xa2;" horiz-adv-x="1181" d="M90 575q0 143 66 261.5t178.5 187t247.5 74.5v217h53v-217q125 -7 233.5 -65t149.5 -134l2 2v160h45v-340h-47v78q0 49 -53.5 106.5t-152 100.5t-208.5 43q-197 0 -328 -131t-131 -343q0 -210 131 -340.5t334 -130.5q141 0 254.5 67t169.5 187l45 -14q-60 -133 -180 -210 t-264 -83v-227h-51v227q-209 11 -351.5 159t-142.5 365z" />
<glyph unicode="&#xa3;" horiz-adv-x="1028" d="M86 0v53q49 9 81 31.5t48 58t21.5 72t5.5 86.5q0 67 -17 254h-139v53h133q-16 168 -16 221q0 175 93 257.5t243 82.5q229 0 315 -178l2 2l2 154h49v-322h-53v33q0 18 -6.5 45t-27 66t-52.5 71t-91 55t-134 23q-133 0 -209 -72.5t-76 -224.5q0 -49 16 -213h455v-53h-448 q16 -168 16 -248q0 -115 -24.5 -175t-73.5 -81l2 -2h12q12 0 33 0.5t49 1t64 1t74 1t82.5 0.5h86.5h336v-53h-852z" />
<glyph unicode="&#xa4;" horiz-adv-x="1298" d="M90 74l160 162q-125 144 -125 335q0 103 38.5 198.5t108.5 168.5l-149 147l37 37l153 -149q148 125 336 125q193 0 338 -123l152 147l35 -37l-148 -147q71 -72 110.5 -167t39.5 -200q0 -191 -125 -338l157 -159l-37 -37l-155 158q-74 -69 -169 -108.5t-198 -39.5 q-205 0 -366 148l-158 -158zM180 571q0 -128 62 -236.5t170 -171.5t237 -63q197 0 334 137.5t137 333.5t-137 334.5t-334 138.5q-129 0 -237 -63.5t-170 -172.5t-62 -237z" />
<glyph unicode="&#xa5;" horiz-adv-x="1083" d="M20 1094v53h310v-53h-135l262 -389l84 -125h2l86 127l260 387h-133v53h307v-53h-113l-276 -408h237v-53h-272l-70 -103v-41h342v-53h-342v-383h133v-53h-321v53h133v383h-324v53h324v41l-70 103h-254v53h220l-277 408h-113z" />
<glyph unicode="&#xa6;" horiz-adv-x="301" d="M123 -152v584h55v-584h-55zM123 1004v583h55v-583h-55z" />
<glyph unicode="&#xa7;" d="M207 778q0 93 66.5 151.5t177.5 78.5q-109 33 -166.5 86.5t-57.5 138.5q0 64 32 110t89 71t125 36.5t150 11.5q88 0 162 -13.5t119.5 -31.5t81 -43t50.5 -42t25 -34l2 2v134h47v-365h-49v82q0 47 -23.5 90.5t-72.5 81.5t-138.5 61t-208.5 23q-335 0 -335 -174 q0 -32 13 -59t31 -46t54 -36t64.5 -27t82 -21t86 -16.5t95.5 -15.5q54 -8 82 -13t75 -14t72 -16t61.5 -19.5t56 -25t43 -31t35 -39t19.5 -47.5t8 -59q0 -96 -60.5 -156t-158.5 -82q105 -32 160 -88t55 -154q0 -148 -121 -220.5t-331 -72.5q-149 0 -264.5 35.5t-170.5 100.5 l-2 -2v-109h-53v379h53v-143q0 -83 114 -145t318 -62q87 0 157.5 12.5t126.5 40t87 74.5t31 112q0 41 -12 72t-40 55t-62 40.5t-92 31t-115 24.5t-144 23q-54 8 -83.5 13t-82 16t-83 23t-69.5 32.5t-60.5 44.5t-36.5 58.5t-15 76.5zM262 776q0 -28 7.5 -51t25 -41t36 -32.5 t52 -26.5t60 -20t72.5 -16.5t78 -14t87 -13.5q113 -17 160 -26q122 18 194 70.5t72 137.5q0 34 -13 61.5t-32 47t-55.5 36.5t-67.5 27.5t-85.5 21t-91.5 16t-102 14.5q-92 14 -108 18q-55 -7 -102.5 -20.5t-91.5 -37.5t-69.5 -62.5t-25.5 -88.5z" />
<glyph unicode="&#xa8;" horiz-adv-x="1024" d="M264 1667q0 25 17 42t41 17q25 0 42 -17t17 -42t-17 -42t-42 -17q-24 0 -41 17t-17 42zM618 1667q0 25 17.5 42t42.5 17t42 -17t17 -42t-17 -42t-42 -17t-42.5 17t-17.5 42z" />
<glyph unicode="&#xa9;" horiz-adv-x="1669" d="M90 543q0 159 58.5 298t158.5 237t237 154t290 56t290 -56t237 -154t159 -237t59 -298q0 -212 -100 -383.5t-270.5 -267t-374.5 -95.5q-153 0 -290 56.5t-237 154t-158.5 237t-58.5 298.5zM145 545q0 -154 53 -285t145.5 -220.5t219 -139.5t271.5 -50q193 0 349.5 84.5 t248.5 244.5t92 366t-92 364.5t-248 242t-350 83.5t-350.5 -84t-247.5 -242.5t-91 -363.5zM424 547q0 177 113.5 284t279.5 107q114 0 186.5 -39.5t108.5 -95.5h2v108h51v-260h-53v56q0 59 -80.5 118.5t-214.5 59.5q-140 0 -239 -91.5t-99 -246.5q0 -157 100 -248.5 t240 -91.5q231 0 318 192l49 -16q-42 -102 -134.5 -165.5t-234.5 -63.5q-163 0 -278 107.5t-115 285.5z" />
<glyph unicode="&#xaa;" horiz-adv-x="784" d="M72 283v53h641v-53h-641zM72 481v54h59l225 559h-63v53h115l245 -612h60v-54h-178v54h59l-53 139h-297l-54 -139h58v-54h-176zM262 723h260l-63 164l-66 176h-2q-1 0 -8.5 -20.5t-24.5 -66t-34 -89.5z" />
<glyph unicode="&#xab;" horiz-adv-x="1208" d="M123 567l481 480l39 -37l-446 -441v-4l446 -440l-39 -37zM565 567l482 480l38 -37l-446 -441v-4l446 -440l-38 -37z" />
<glyph unicode="&#xad;" horiz-adv-x="1142" d="M229 575v54h744v-54h-744z" />
<glyph unicode="&#xae;" horiz-adv-x="1669" d="M90 543q0 159 58.5 298t158.5 237t237 154t290 56t290 -56t237 -154t159 -237t59 -298q0 -212 -100 -383.5t-270.5 -267t-374.5 -95.5q-153 0 -290 56.5t-237 154t-158.5 237t-58.5 298.5zM145 545q0 -154 53 -285t145.5 -220.5t219 -139.5t271.5 -50q193 0 349.5 84.5 t248.5 244.5t92 366t-92 364.5t-248 242t-350 83.5t-350.5 -84t-247.5 -242.5t-91 -363.5zM528 168v53h95v649h-95v54h312q128 0 201 -60.5t73 -167.5q0 -79 -41.5 -134.5t-124.5 -78.5l164 -262h98v-53h-131l-192 303q-16 -2 -47 -2h-162v-248h94v-53h-244zM678 522h160 q114 0 167.5 42t53.5 132q0 89 -53.5 131.5t-167.5 42.5h-160v-348z" />
<glyph unicode="&#xaf;" horiz-adv-x="1024" d="M209 1612v51h545v-51h-545z" />
<glyph unicode="&#xb0;" horiz-adv-x="438" d="M20 1438q0 85 56.5 142.5t142.5 57.5q87 0 143 -57t56 -143q0 -87 -56 -144t-143 -57q-86 0 -142.5 57.5t-56.5 143.5zM70 1438q0 -64 41.5 -107t107.5 -43t108 43t42 107q0 65 -41.5 107t-108.5 42t-108 -42t-41 -107z" />
<glyph unicode="&#xb1;" d="M342 0v53h743v-53h-743zM342 604v53h342v363h59v-363h342v-53h-342v-366h-59v366h-342z" />
<glyph unicode="&#xb2;" horiz-adv-x="696" d="M68 961v53l378 307q54 43 88.5 101.5t34.5 123.5q0 81 -54.5 132t-152.5 51q-104 0 -166.5 -56.5t-62.5 -134.5v-47h-49v274h47v-108h4q32 65 94.5 95t137.5 30q117 0 187.5 -67t70.5 -173q0 -82 -42 -144.5t-120 -125.5q-57 -46 -136.5 -108.5t-133 -104t-58.5 -45.5 l2 -6q42 6 182 6h263v162h49v-215h-563z" />
<glyph unicode="&#xb3;" horiz-adv-x="696" d="M63 1200l58 12q2 -95 69.5 -155t176.5 -60q102 0 157.5 52.5t55.5 126.5q0 78 -62.5 128t-161.5 50h-75v49h75q98 0 157.5 47.5t59.5 118.5q0 28 -9.5 53.5t-30 50.5t-62 40.5t-98.5 15.5q-115 0 -175.5 -59.5t-60.5 -153.5v-25h-49v274h47v-110h4q63 127 236 127 q128 0 191 -61t63 -146q0 -81 -54 -134.5t-131 -58.5v-6q83 -9 137 -62t54 -138q0 -103 -77 -167.5t-193 -64.5q-121 0 -207 70.5t-95 185.5z" />
<glyph unicode="&#xb4;" horiz-adv-x="1024" d="M471 1544l203 303l55 -20l-197 -283h-61z" />
<glyph unicode="&#xb6;" horiz-adv-x="1019" d="M90 813q0 158 103.5 246t295.5 88h445v-53h-164v-1327h164v-54h-219v1381h-170v-1381h-219v54h163v712q-192 0 -295.5 88t-103.5 246z" />
<glyph unicode="&#xb7;" horiz-adv-x="380" d="M121 578q0 28 18.5 46.5t50.5 18.5t51 -18.5t19 -46.5q0 -30 -19 -49t-51 -19t-50.5 19.5t-18.5 48.5z" />
<glyph unicode="&#xb8;" horiz-adv-x="1024" d="M360 -254q55 -39 156 -39q154 0 154 96q0 56 -52.5 80t-160.5 29v88h55v-45q213 -20 213 -154q0 -70 -55 -108.5t-152 -38.5q-98 0 -158 37v55z" />
<glyph unicode="&#xb9;" horiz-adv-x="696" d="M123 1559l215 206h53v-751h209v-53h-473v53h209v493q0 14 0.5 38.5t1 49.5t1 48t1.5 38v15h-4l-62 -62l-114 -112z" />
<glyph unicode="&#xba;" horiz-adv-x="858" d="M72 811q0 154 103.5 256t252.5 102q150 0 254 -102t104 -256q0 -152 -104.5 -254t-253.5 -102t-252.5 102t-103.5 254zM94 283v53h674v-53h-674zM125 811q0 -130 87 -216.5t216 -86.5t216 86.5t87 216.5q0 131 -86.5 218t-216.5 87t-216.5 -87t-86.5 -218z" />
<glyph unicode="&#xbb;" horiz-adv-x="1208" d="M123 125l446 440v4l-446 441l39 37l481 -480l-481 -479zM565 125l447 440v4l-447 441l39 37l481 -480l-481 -479z" />
<glyph unicode="&#xbc;" horiz-adv-x="1634" d="M123 1227l215 207h53v-752h209v-53h-473v53h209v494q0 14 0.5 38.5t1 49.5t1 47.5t1.5 37.5v15h-4q-1 0 -62 -61l-114 -113zM573 0l428 1434h60l-430 -1434h-58zM977 227v62l407 516h56v-524h157v-54h-157v-174h110v-53h-288v53h122v174h-407zM1040 283l2 -4h7 q7 0 19.5 0.5t28 1t36.5 0.5h41h210v211q0 29 0.5 57.5t1.5 51t2.5 43t2.5 36t2 26.5t1 17l1 6h-4q-1 0 -176 -222t-175 -224z" />
<glyph unicode="&#xbd;" horiz-adv-x="1634" d="M123 1227l215 207h53v-752h209v-53h-473v53h209v494q0 14 0.5 38.5t1 49.5t1 47.5t1.5 37.5v15h-4q-1 0 -62 -61l-114 -113zM573 0l428 1434h60l-430 -1434h-58zM1006 0v53l378 307q54 43 88.5 102t34.5 124q0 81 -54.5 131.5t-152.5 50.5q-104 0 -166.5 -56t-62.5 -134 v-48h-49v275h47v-109h4q32 65 94.5 95t137.5 30q117 0 187.5 -66.5t70.5 -172.5q0 -82 -42.5 -145t-119.5 -126q-57 -46 -136.5 -108.5t-133 -104t-58.5 -45.5l2 -6q42 6 182 6h263v162h49v-215h-563z" />
<glyph unicode="&#xbe;" horiz-adv-x="1634" d="M63 868l58 13q2 -95 69.5 -155t176.5 -60q103 0 158 52.5t55 125.5q0 78 -62.5 128t-161.5 50h-75v49h75q98 0 157.5 47.5t59.5 118.5q0 28 -9.5 53.5t-30 50.5t-62 40.5t-98.5 15.5q-115 0 -175.5 -59.5t-60.5 -153.5v-25h-49v275h47v-111h4q63 127 236 127 q128 0 191 -61t63 -146q0 -81 -54 -134t-131 -58v-7q83 -9 137 -62t54 -138q0 -103 -77 -167.5t-193 -64.5q-121 0 -207 70.5t-95 185.5zM573 0l428 1434h60l-430 -1434h-58zM977 227v62l407 516h56v-524h157v-54h-157v-174h110v-53h-288v53h122v174h-407zM1040 283l2 -4h7 q7 0 19.5 0.5t28 1t36.5 0.5h41h210v211q0 29 0.5 57.5t1.5 51t2.5 43t2.5 36t2 26.5t1 17l1 6h-4q-1 0 -176 -222t-175 -224z" />
<glyph unicode="&#xbf;" horiz-adv-x="1132" d="M78 352q0 74 27.5 137.5t70.5 110t108.5 88.5t128 70t142.5 57v338h59v-373q-263 -98 -370 -194t-107 -230q0 -47 11 -91t39.5 -88t72 -76.5t115 -53t162.5 -20.5q192 0 297.5 86t144.5 247l51 -14q-42 -186 -171.5 -280.5t-328.5 -94.5q-97 0 -175.5 22.5t-129 60 t-84.5 87.5t-48.5 102.5t-14.5 108.5zM518 1386q0 30 19 49t51 19t50.5 -19.5t18.5 -48.5q0 -28 -18.5 -46.5t-50.5 -18.5t-51 18.5t-19 46.5z" />
<glyph unicode="&#xc0;" horiz-adv-x="1525" d="M10 0v53h146l516 1219q41 99 45 106l-2 2h-88h-84v54h241l586 -1381h146v-53h-367v53h162l-176 418h-744l-176 -418h162v-53h-367zM414 522h698l-176 422q-45 106 -79.5 189t-51 125t-26.5 69t-13 34l-2 7h-2l-2 -8q-3 -7 -13 -34t-26.5 -69t-51 -126.5t-79.5 -192.5z M526 1827l56 20l202 -303h-61z" />
<glyph unicode="&#xc1;" horiz-adv-x="1525" d="M10 0v53h146l516 1219q41 99 45 106l-2 2h-88h-84v54h241l586 -1381h146v-53h-367v53h162l-176 418h-744l-176 -418h162v-53h-367zM414 522h698l-176 422q-45 106 -79.5 189t-51 125t-26.5 69t-13 34l-2 7h-2l-2 -8q-3 -7 -13 -34t-26.5 -69t-51 -126.5t-79.5 -192.5z M651 1544l203 303l55 -20l-196 -283h-62z" />
<glyph unicode="&#xc2;" horiz-adv-x="1525" d="M10 0v53h146l516 1219q41 99 45 106l-2 2h-88h-84v54h241l586 -1381h146v-53h-367v53h162l-176 418h-744l-176 -418h162v-53h-367zM414 522h698l-176 422q-45 106 -79.5 189t-51 125t-26.5 69t-13 34l-2 7h-2l-2 -8q-3 -7 -13 -34t-26.5 -69t-51 -126.5t-79.5 -192.5z M479 1608l248 225l246 -227l-35 -37l-211 196l-213 -194z" />
<glyph unicode="&#xc3;" horiz-adv-x="1525" d="M10 0v53h146l516 1219q41 99 45 106l-2 2h-88h-84v54h241l586 -1381h146v-53h-367v53h162l-176 418h-744l-176 -418h162v-53h-367zM414 522h698l-176 422q-45 106 -79.5 189t-51 125t-26.5 69t-13 34l-2 7h-2l-2 -8q-3 -7 -13 -34t-26.5 -69t-51 -126.5t-79.5 -192.5z M440 1669q30 37 54 52q39 22 90 22q54 0 133 -38t139 -38q33 0 57 8.5t34.5 17t25.5 25.5l24 -41q-56 -65 -143 -65q-57 0 -136.5 38t-129.5 38q-81 0 -123 -60z" />
<glyph unicode="&#xc4;" horiz-adv-x="1525" d="M10 0v53h146l516 1219q41 99 45 106l-2 2h-88h-84v54h241l586 -1381h146v-53h-367v53h162l-176 418h-744l-176 -418h162v-53h-367zM414 522h698l-176 422q-45 106 -79.5 189t-51 125t-26.5 69t-13 34l-2 7h-2l-2 -8q-3 -7 -13 -34t-26.5 -69t-51 -126.5t-79.5 -192.5z M492 1667q0 25 17 42t40 17q25 0 42 -17t17 -42t-17 -42t-42 -17q-23 0 -40 17t-17 42zM846 1667q0 25 17 42t42 17t42.5 -17t17.5 -42t-17.5 -42t-42.5 -17t-42 17t-17 42z" />
<glyph unicode="&#xc5;" horiz-adv-x="1525" d="M10 0v53h146l516 1219q41 99 45 106l-2 2h-88h-84v54h241l586 -1381h146v-53h-367v53h162l-176 418h-744l-176 -418h162v-53h-367zM414 522h698l-176 422q-45 106 -79.5 189t-51 125t-26.5 69t-13 34l-2 7h-2l-2 -8q-3 -7 -13 -34t-26.5 -69t-51 -126.5t-79.5 -192.5z M559 1679q0 66 44.5 111t115.5 45t115.5 -45t44.5 -111t-44.5 -110.5t-115.5 -44.5t-115.5 44.5t-44.5 110.5zM608 1679q0 -47 31 -77.5t80 -30.5t79.5 30t30.5 78t-30.5 78.5t-79.5 30.5t-80 -30.5t-31 -78.5z" />
<glyph unicode="&#xc6;" horiz-adv-x="2035" d="M10 0v53h166l522 1270q2 5 27 55l-2 2h-78h-61v54h1317v-336h-54v282h-790v-592h688v-53h-688v-682h803v287h53v-340h-916v471h-591l-170 -418h178v-53h-404zM426 522h578v858h-230q-1 0 -17.5 -42.5t-42.5 -109.5t-42 -106z" />
<glyph unicode="&#xc7;" horiz-adv-x="1607" d="M90 721q0 168 58.5 308.5t159 234.5t236.5 146t290 52q187 0 340.5 -79t255.5 -220h2v271h51v-502h-53v133q0 15 -22.5 52t-72.5 87.5t-117 96t-169 77t-215 31.5q-144 0 -270 -47.5t-219 -134.5t-146.5 -217.5t-53.5 -288.5q0 -157 53.5 -289t145 -219t212.5 -135.5 t257 -48.5q218 0 386 98.5t255 271.5l51 -14q-85 -183 -258 -292t-395 -118v-20q213 -20 213 -154q0 -70 -55 -108.5t-152 -38.5q-98 0 -158 37v55q55 -39 156 -39q154 0 154 96q0 56 -52.5 80t-160.5 29v63q-146 3 -275 57.5t-224.5 149.5t-151.5 235t-56 304z" />
<glyph unicode="&#xc8;" horiz-adv-x="1286" d="M86 0v53h164v1327h-164v54h1065v-336h-53v282h-793v-592h688v-53h-688v-682h805v287h53v-340h-1077zM477 1827l55 20l203 -303h-61z" />
<glyph unicode="&#xc9;" horiz-adv-x="1286" d="M86 0v53h164v1327h-164v54h1065v-336h-53v282h-793v-592h688v-53h-688v-682h805v287h53v-340h-1077zM602 1544l203 303l55 -20l-196 -283h-62z" />
<glyph unicode="&#xca;" horiz-adv-x="1286" d="M86 0v53h164v1327h-164v54h1065v-336h-53v282h-793v-592h688v-53h-688v-682h805v287h53v-340h-1077zM430 1608l248 225l246 -227l-35 -37l-211 196l-213 -194z" />
<glyph unicode="&#xcb;" horiz-adv-x="1286" d="M86 0v53h164v1327h-164v54h1065v-336h-53v282h-793v-592h688v-53h-688v-682h805v287h53v-340h-1077zM442 1667q0 25 17 42t41 17q25 0 42 -17t17 -42t-17 -42t-42 -17q-24 0 -41 17t-17 42zM797 1667q0 25 17 42t42 17t42 -17t17 -42t-17 -42t-42 -17t-42 17t-17 42z" />
<glyph unicode="&#xcc;" horiz-adv-x="555" d="M78 1827l55 20l203 -303h-62zM86 0v53h164v1327h-164v54h383v-54h-164v-1327h164v-53h-383z" />
<glyph unicode="&#xcd;" horiz-adv-x="555" d="M86 0v53h164v1327h-164v54h383v-54h-164v-1327h164v-53h-383zM203 1544l203 303l55 -20l-197 -283h-61z" />
<glyph unicode="&#xce;" horiz-adv-x="555" d="M72 1608l207 225l206 -227l-34 -37l-172 188l-173 -186zM86 0v53h164v1327h-164v54h383v-54h-164v-1327h164v-53h-383z" />
<glyph unicode="&#xcf;" horiz-adv-x="555" d="M86 0v53h164v1327h-164v54h383v-54h-164v-1327h164v-53h-383zM104 1667q0 25 17 42t41 17q25 0 42 -17t17 -42t-17 -42t-42 -17q-24 0 -41 17t-17 42zM336 1667q0 25 17 42t42 17t42.5 -17t17.5 -42t-17.5 -42t-42.5 -17t-42 17t-17 42z" />
<glyph unicode="&#xd0;" horiz-adv-x="1527" d="M86 0v53h164v682h-164v53h164v592h-164v54h588q345 0 554.5 -195t209.5 -528q0 -165 -55.5 -300t-154.5 -224.5t-235.5 -138t-298.5 -48.5h-608zM305 53h389q146 0 271 43t218 124t146 207.5t53 283.5q0 210 -91 362.5t-250 229.5t-367 77h-369v-592h340v-53h-340v-682z " />
<glyph unicode="&#xd1;" horiz-adv-x="1568" d="M86 0v53h164v1327h-164v54h219l998 -1346h2l-1 10q0 9 -0.5 25.5t-1 38.5t-1.5 51t-1.5 59.5t-1 67.5t-0.5 72v968h-163v54h383v-54h-164v-1380h-54l-999 1350h-2l1 -9q0 -9 0.5 -25.5t1 -38t1 -50.5t1 -59.5t1 -67t0.5 -72.5v-975h164v-53h-383zM520 1669q30 37 54 52 q39 22 90 22q54 0 133 -38t139 -38q33 0 57 8.5t34.5 17t25.5 25.5l24 -41q-56 -65 -143 -65q-57 0 -136.5 38t-129.5 38q-81 0 -123 -60z" />
<glyph unicode="&#xd2;" horiz-adv-x="1648" d="M90 719q0 165 57.5 305.5t156.5 235.5t233 148.5t286 53.5q203 0 370 -90.5t266.5 -261.5t99.5 -391q0 -165 -58 -305.5t-157.5 -236t-234 -149t-286.5 -53.5t-286 53.5t-233 149t-156.5 236t-57.5 305.5zM145 719q0 -158 53 -289t144.5 -218t215.5 -135t265 -48 t264.5 47.5t216 134.5t146 218.5t53.5 289.5t-53.5 289.5t-146 218.5t-216 134.5t-264.5 47.5t-265 -48t-215.5 -135t-144.5 -218t-53 -289zM625 1827l55 20l203 -303h-62z" />
<glyph unicode="&#xd3;" horiz-adv-x="1648" d="M90 719q0 165 57.5 305.5t156.5 235.5t233 148.5t286 53.5q203 0 370 -90.5t266.5 -261.5t99.5 -391q0 -165 -58 -305.5t-157.5 -236t-234 -149t-286.5 -53.5t-286 53.5t-233 149t-156.5 236t-57.5 305.5zM145 719q0 -158 53 -289t144.5 -218t215.5 -135t265 -48 t264.5 47.5t216 134.5t146 218.5t53.5 289.5t-53.5 289.5t-146 218.5t-216 134.5t-264.5 47.5t-265 -48t-215.5 -135t-144.5 -218t-53 -289zM750 1544l202 303l56 -20l-197 -283h-61z" />
<glyph unicode="&#xd4;" horiz-adv-x="1648" d="M90 719q0 165 57.5 305.5t156.5 235.5t233 148.5t286 53.5q203 0 370 -90.5t266.5 -261.5t99.5 -391q0 -165 -58 -305.5t-157.5 -236t-234 -149t-286.5 -53.5t-286 53.5t-233 149t-156.5 236t-57.5 305.5zM145 719q0 -158 53 -289t144.5 -218t215.5 -135t265 -48 t264.5 47.5t216 134.5t146 218.5t53.5 289.5t-53.5 289.5t-146 218.5t-216 134.5t-264.5 47.5t-265 -48t-215.5 -135t-144.5 -218t-53 -289zM578 1608l247 225l246 -227l-35 -37l-211 196l-213 -194z" />
<glyph unicode="&#xd5;" horiz-adv-x="1648" d="M90 719q0 165 57.5 305.5t156.5 235.5t233 148.5t286 53.5q203 0 370 -90.5t266.5 -261.5t99.5 -391q0 -165 -58 -305.5t-157.5 -236t-234 -149t-286.5 -53.5t-286 53.5t-233 149t-156.5 236t-57.5 305.5zM145 719q0 -158 53 -289t144.5 -218t215.5 -135t265 -48 t264.5 47.5t216 134.5t146 218.5t53.5 289.5t-53.5 289.5t-146 218.5t-216 134.5t-264.5 47.5t-265 -48t-215.5 -135t-144.5 -218t-53 -289zM539 1669q0 1 5 7t7 8.5t8.5 9t10.5 10t12 9.5t14.5 9.5t16.5 8t20 7t23 4t26 1.5q54 0 133 -38t139 -38q33 0 57 8.5t34.5 17 t25.5 25.5l25 -41q-56 -65 -144 -65q-57 0 -136.5 38t-129.5 38q-81 0 -123 -60z" />
<glyph unicode="&#xd6;" horiz-adv-x="1648" d="M90 719q0 165 57.5 305.5t156.5 235.5t233 148.5t286 53.5q203 0 370 -90.5t266.5 -261.5t99.5 -391q0 -165 -58 -305.5t-157.5 -236t-234 -149t-286.5 -53.5t-286 53.5t-233 149t-156.5 236t-57.5 305.5zM145 719q0 -158 53 -289t144.5 -218t215.5 -135t265 -48 t264.5 47.5t216 134.5t146 218.5t53.5 289.5t-53.5 289.5t-146 218.5t-216 134.5t-264.5 47.5t-265 -48t-215.5 -135t-144.5 -218t-53 -289zM590 1667q0 25 17 42t40 17q25 0 42.5 -17t17.5 -42t-17.5 -42t-42.5 -17q-23 0 -40 17t-17 42zM944 1667q0 25 17.5 42t42.5 17 t42 -17t17 -42t-17 -42t-42 -17t-42.5 17t-17.5 42z" />
<glyph unicode="&#xd7;" d="M377 334l272 272l-272 275l35 34l272 -272l272 270l35 -34l-270 -273l272 -272l-37 -35l-272 272l-272 -272z" />
<glyph unicode="&#xd8;" horiz-adv-x="1648" d="M90 719q0 165 57.5 305.5t156.5 235.5t233 148.5t286 53.5q252 0 443 -137l141 186l39 -28l-141 -189q120 -99 187 -246t67 -329q0 -165 -58 -305.5t-157.5 -236t-234 -149t-286.5 -53.5q-239 0 -426 127l-145 -192l-39 31l145 190q-126 99 -197 250.5t-71 337.5z M145 719q0 -177 64 -316t180 -231l846 1112q-175 125 -412 125q-141 0 -265 -48t-215.5 -135t-144.5 -218t-53 -289zM428 143q166 -114 395 -114q141 0 264.5 47.5t216 134.5t146 218.5t53.5 289.5q0 170 -61 307t-170 227z" />
<glyph unicode="&#xd9;" horiz-adv-x="1447" d="M20 1380v54h383v-54h-163v-815q0 -268 118 -402t365 -134q249 0 367 134t118 402v815h-164v54h383v-54h-163v-807q0 -598 -541 -598q-539 0 -539 598v807h-164zM528 1827l56 20l202 -303h-61z" />
<glyph unicode="&#xda;" horiz-adv-x="1447" d="M20 1380v54h383v-54h-163v-815q0 -268 118 -402t365 -134q249 0 367 134t118 402v815h-164v54h383v-54h-163v-807q0 -598 -541 -598q-539 0 -539 598v807h-164zM653 1544l203 303l55 -20l-196 -283h-62z" />
<glyph unicode="&#xdb;" horiz-adv-x="1447" d="M20 1380v54h383v-54h-163v-815q0 -268 118 -402t365 -134q249 0 367 134t118 402v815h-164v54h383v-54h-163v-807q0 -598 -541 -598q-539 0 -539 598v807h-164zM481 1608l248 225l246 -227l-35 -37l-211 196l-213 -194z" />
<glyph unicode="&#xdc;" horiz-adv-x="1447" d="M20 1380v54h383v-54h-163v-815q0 -268 118 -402t365 -134q249 0 367 134t118 402v815h-164v54h383v-54h-163v-807q0 -598 -541 -598q-539 0 -539 598v807h-164zM494 1667q0 25 17 42t40 17q25 0 42 -17t17 -42t-17 -42t-42 -17q-23 0 -40 17t-17 42zM848 1667q0 25 17 42 t42 17t42.5 -17t17.5 -42t-17.5 -42t-42.5 -17t-42 17t-17 42z" />
<glyph unicode="&#xdd;" horiz-adv-x="1390" d="M20 1380v54h365v-54h-160l252 -360q203 -289 217 -303h2q13 13 217 305l252 358h-159v54h364v-54h-137l-510 -721v-606h164v-53h-383v53h164v606l-510 721h-138zM623 1544l202 303l56 -20l-197 -283h-61z" />
<glyph unicode="&#xde;" horiz-adv-x="1159" d="M86 0v53h164v1327h-164v54h383v-54h-164v-286h293q241 0 370.5 -94t129.5 -273t-129.5 -272t-370.5 -93h-293v-309h164v-53h-383zM305 416h293q217 0 330.5 78t113.5 233q0 313 -444 313h-293v-624z" />
<glyph unicode="&#xdf;" horiz-adv-x="1175" d="M86 0v53h133v1094h780l-276 -467v-2h14q164 0 271.5 -90.5t107.5 -249.5q0 -160 -104.5 -261.5t-270.5 -101.5q-162 0 -276 88l31 43q97 -79 243 -79q141 0 231.5 86t90.5 221q0 130 -84.5 212.5t-224.5 82.5h-90v49l247 414l-2 2h-129h-504v-1094h-188z" />
<glyph unicode="&#xe0;" horiz-adv-x="1255" d="M10 0v53h119l352 813q95 219 97 226v2h-72h-66v53h213l473 -1094h119v-53h-307v53h129l-137 320h-604l-138 -320h129v-53h-307zM348 426h559l-151 350q-50 117 -81 195t-37 97l-7 19h-4l-7 -19q-6 -18 -38.5 -96t-83.5 -196zM408 1540l55 21l203 -304h-62z" />
<glyph unicode="&#xe1;" horiz-adv-x="1255" d="M10 0v53h119l352 813q95 219 97 226v2h-72h-66v53h213l473 -1094h119v-53h-307v53h129l-137 320h-604l-138 -320h129v-53h-307zM348 426h559l-151 350q-50 117 -81 195t-37 97l-7 19h-4l-7 -19q-6 -18 -38.5 -96t-83.5 -196zM532 1257l203 304l56 -21l-197 -283h-62z" />
<glyph unicode="&#xe2;" horiz-adv-x="1255" d="M10 0v53h119l352 813q95 219 97 226v2h-72h-66v53h213l473 -1094h119v-53h-307v53h129l-137 320h-604l-138 -320h129v-53h-307zM348 426h559l-151 350q-50 117 -81 195t-37 97l-7 19h-4l-7 -19q-6 -18 -38.5 -96t-83.5 -196zM401 1321l207 225l207 -227l-35 -37l-172 188 l-172 -186z" />
<glyph unicode="&#xe3;" horiz-adv-x="1255" d="M10 0v53h119l352 813q95 219 97 226v2h-72h-66v53h213l473 -1094h119v-53h-307v53h129l-137 320h-604l-138 -320h129v-53h-307zM348 426h559l-151 350q-50 117 -81 195t-37 97l-7 19h-4l-7 -19q-6 -18 -38.5 -96t-83.5 -196zM352 1386q49 70 127 70q49 0 122.5 -38 t123.5 -38q19 0 34 3t26.5 10.5t16.5 11.5t13.5 15t9.5 12l23 -46q-46 -61 -125 -61q-51 0 -126 38t-120 38q-66 0 -102 -60z" />
<glyph unicode="&#xe4;" horiz-adv-x="1255" d="M10 0v53h119l352 813q95 219 97 226v2h-72h-66v53h213l473 -1094h119v-53h-307v53h129l-137 320h-604l-138 -320h129v-53h-307zM348 426h559l-151 350q-50 117 -81 195t-37 97l-7 19h-4l-7 -19q-6 -18 -38.5 -96t-83.5 -196zM434 1380q0 25 17.5 42.5t40.5 17.5 q25 0 42 -17.5t17 -42.5t-17 -42t-42 -17q-24 0 -41 17.5t-17 41.5zM666 1380q0 25 17 42.5t42 17.5t42 -17.5t17 -42.5t-17 -42t-42 -17t-42 17t-17 42z" />
<glyph unicode="&#xe5;" horiz-adv-x="1255" d="M10 0v53h119l352 813q95 219 97 226v2h-72h-66v53h213l473 -1094h119v-53h-307v53h129l-137 320h-604l-138 -320h129v-53h-307zM348 426h559l-151 350q-50 117 -81 195t-37 97l-7 19h-4l-7 -19q-6 -18 -38.5 -96t-83.5 -196zM449 1393q0 66 44 110.5t115 44.5 t115.5 -44.5t44.5 -110.5t-44.5 -111t-115.5 -45t-115 45t-44 111zM498 1393q0 -48 30.5 -78.5t79.5 -30.5t80 30.5t31 78.5q0 47 -31 77.5t-80 30.5t-79.5 -30t-30.5 -78z" />
<glyph unicode="&#xe6;" horiz-adv-x="1683" d="M10 0v53h135l414 983q16 37 27 56l-2 2h-88h-23v53h1077v-275h-55v222h-633v-465h553v-54h-553v-522h643v226h56v-279h-756v373h-467l-133 -320h143v-53h-338zM360 426h445l4 668h-172q-2 0 -84 -207z" />
<glyph unicode="&#xe7;" horiz-adv-x="1353" d="M90 571q0 172 82 310t221 213t307 75q152 0 277.5 -61.5t202.5 -171.5h2v211h49v-406h-51v103q0 13 -18 43t-58.5 69.5t-94 75t-136 60t-173.5 24.5q-155 0 -281 -68t-200 -193t-74 -284q0 -240 151 -391t384 -151q177 0 313.5 79.5t206.5 215.5l51 -15 q-69 -142 -202.5 -230.5t-309.5 -101.5v-22q213 -20 213 -154q0 -70 -55 -108.5t-152 -38.5t-157 37v55q55 -39 155 -39q154 0 154 96q0 56 -52.5 80t-160.5 29v63h-4q-169 0 -303.5 76t-210.5 212t-76 308z" />
<glyph unicode="&#xe8;" horiz-adv-x="1095" d="M86 0v53h133v1041h-133v53h877v-275h-56v222h-633v-465h553v-54h-553v-522h644v226h55v-279h-887zM373 1540l55 21l203 -304h-62z" />
<glyph unicode="&#xe9;" horiz-adv-x="1095" d="M86 0v53h133v1041h-133v53h877v-275h-56v222h-633v-465h553v-54h-553v-522h644v226h55v-279h-887zM498 1257l202 304l56 -21l-197 -283h-61z" />
<glyph unicode="&#xea;" horiz-adv-x="1095" d="M86 0v53h133v1041h-133v53h877v-275h-56v222h-633v-465h553v-54h-553v-522h644v226h55v-279h-887zM326 1321l247 225l246 -227l-35 -37l-211 197l-213 -195z" />
<glyph unicode="&#xeb;" horiz-adv-x="1095" d="M86 0v53h133v1041h-133v53h877v-275h-56v222h-633v-465h553v-54h-553v-522h644v226h55v-279h-887zM338 1380q0 25 17 42.5t40 17.5q25 0 42.5 -17.5t17.5 -42.5t-17.5 -42t-42.5 -17q-23 0 -40 17t-17 42zM692 1380q0 25 17.5 42.5t42.5 17.5t42 -17.5t17 -42.5t-17 -42 t-42 -17t-42.5 17t-17.5 42z" />
<glyph unicode="&#xec;" horiz-adv-x="493" d="M47 1540l55 21l203 -304h-61zM86 0v53h133v1041h-133v53h322v-53h-134v-1041h134v-53h-322z" />
<glyph unicode="&#xed;" horiz-adv-x="493" d="M86 0v53h133v1041h-133v53h322v-53h-134v-1041h134v-53h-322zM172 1257l203 304l55 -21l-197 -283h-61z" />
<glyph unicode="&#xee;" horiz-adv-x="493" d="M41 1321l207 225l207 -227l-35 -37l-172 188l-172 -186zM86 0v53h133v1041h-133v53h322v-53h-134v-1041h134v-53h-322z" />
<glyph unicode="&#xef;" horiz-adv-x="493" d="M74 1380q0 25 17 42.5t40 17.5q25 0 42 -17.5t17 -42.5t-17 -42t-42 -17q-23 0 -40 17t-17 42zM86 0v53h133v1041h-133v53h322v-53h-134v-1041h134v-53h-322zM305 1380q0 25 17.5 42.5t42.5 17.5t42 -17.5t17 -42.5t-17 -42t-42 -17t-42.5 17t-17.5 42z" />
<glyph unicode="&#xf0;" horiz-adv-x="1286" d="M86 0v53h133v522h-133v54h133v465h-133v53h481q283 0 456 -156.5t173 -421.5q0 -174 -78.5 -304t-216.5 -197.5t-317 -67.5h-498zM274 53h308q160 0 285.5 58.5t199.5 176.5t74 281q0 245 -158.5 385t-417.5 140h-291v-465h371v-54h-371v-522z" />
<glyph unicode="&#xf1;" horiz-adv-x="1312" d="M86 0v53h133v1041h-133v53h186l803 -1057h2v8q0 7 -0.5 21t-1 32t-1 41.5t-1 48t-0.5 54v57.5v740h-133v53l322 2v-53h-134v-1094h-51l-805 1063h-2v-7q0 -8 0.5 -21.5t1 -31.5t1 -41.5t1 -48.5t0.5 -55v-59v-746h134v-53h-322zM397 1386q49 70 127 70q49 0 122.5 -38 t123.5 -38q19 0 34 3t26.5 10.5t16.5 11.5t13.5 15t9.5 12l23 -46q-46 -61 -125 -61q-51 0 -126 38t-120 38q-66 0 -102 -60z" />
<glyph unicode="&#xf2;" horiz-adv-x="1361" d="M90 571q0 170 79 307.5t213.5 214t297.5 76.5t298 -76.5t214.5 -214t79.5 -307.5q0 -169 -79.5 -306t-214.5 -213.5t-298 -76.5q-162 0 -297 76.5t-214 213.5t-79 306zM145 571q0 -158 71.5 -282.5t193 -192t270.5 -67.5q148 0 270.5 67.5t194.5 192.5t72 282 q0 158 -72.5 283.5t-194.5 193.5t-270 68q-149 0 -270.5 -68t-193 -193t-71.5 -284zM483 1540l56 21l202 -304h-61z" />
<glyph unicode="&#xf3;" horiz-adv-x="1361" d="M90 571q0 170 79 307.5t213.5 214t297.5 76.5t298 -76.5t214.5 -214t79.5 -307.5q0 -169 -79.5 -306t-214.5 -213.5t-298 -76.5q-162 0 -297 76.5t-214 213.5t-79 306zM145 571q0 -158 71.5 -282.5t193 -192t270.5 -67.5q148 0 270.5 67.5t194.5 192.5t72 282 q0 158 -72.5 283.5t-194.5 193.5t-270 68q-149 0 -270.5 -68t-193 -193t-71.5 -284zM608 1257l203 304l55 -21l-196 -283h-62z" />
<glyph unicode="&#xf4;" horiz-adv-x="1361" d="M90 571q0 170 79 307.5t213.5 214t297.5 76.5t298 -76.5t214.5 -214t79.5 -307.5q0 -169 -79.5 -306t-214.5 -213.5t-298 -76.5q-162 0 -297 76.5t-214 213.5t-79 306zM145 571q0 -158 71.5 -282.5t193 -192t270.5 -67.5q148 0 270.5 67.5t194.5 192.5t72 282 q0 158 -72.5 283.5t-194.5 193.5t-270 68q-149 0 -270.5 -68t-193 -193t-71.5 -284zM436 1321l248 225l246 -227l-35 -37l-211 197l-213 -195z" />
<glyph unicode="&#xf5;" horiz-adv-x="1361" d="M90 571q0 170 79 307.5t213.5 214t297.5 76.5t298 -76.5t214.5 -214t79.5 -307.5q0 -169 -79.5 -306t-214.5 -213.5t-298 -76.5q-162 0 -297 76.5t-214 213.5t-79 306zM145 571q0 -158 71.5 -282.5t193 -192t270.5 -67.5q148 0 270.5 67.5t194.5 192.5t72 282 q0 158 -72.5 283.5t-194.5 193.5t-270 68q-149 0 -270.5 -68t-193 -193t-71.5 -284zM428 1386q49 70 127 70q49 0 122.5 -38t123.5 -38q19 0 34 3t26.5 10.5t16.5 11.5t13.5 15t9.5 12l23 -46q-46 -61 -125 -61q-51 0 -126 38t-120 38q-66 0 -102 -60z" />
<glyph unicode="&#xf6;" horiz-adv-x="1361" d="M90 571q0 170 79 307.5t213.5 214t297.5 76.5t298 -76.5t214.5 -214t79.5 -307.5q0 -169 -79.5 -306t-214.5 -213.5t-298 -76.5q-162 0 -297 76.5t-214 213.5t-79 306zM145 571q0 -158 71.5 -282.5t193 -192t270.5 -67.5q148 0 270.5 67.5t194.5 192.5t72 282 q0 158 -72.5 283.5t-194.5 193.5t-270 68q-149 0 -270.5 -68t-193 -193t-71.5 -284zM449 1380q0 25 17 42.5t40 17.5q25 0 42 -17.5t17 -42.5t-17 -42t-42 -17q-23 0 -40 17t-17 42zM803 1380q0 25 17 42.5t42 17.5t42.5 -17.5t17.5 -42.5t-17.5 -42t-42.5 -17t-42 17 t-17 42z" />
<glyph unicode="&#xf7;" d="M342 575v54h743v-54h-743zM614 248q0 28 19 46.5t51 18.5t51 -18.5t19 -46.5q0 -30 -19 -49t-51 -19q-33 0 -51.5 19.5t-18.5 48.5zM614 969q0 28 19 46.5t51 18.5t51 -19t19 -46q0 -30 -19 -49t-51 -19q-33 0 -51.5 19.5t-18.5 48.5z" />
<glyph unicode="&#xf8;" horiz-adv-x="1361" d="M90 571q0 170 79 307.5t213.5 214t297.5 76.5q198 0 346 -108l129 166l39 -31l-129 -166q97 -81 152 -200t55 -259q0 -169 -79.5 -306t-214.5 -213.5t-298 -76.5q-195 0 -350 111l-129 -166l-39 31l129 166q-95 84 -148 201t-53 253zM145 571q0 -127 47 -233.5 t132 -179.5l669 862q-138 96 -313 96q-149 0 -270.5 -68t-193 -193t-71.5 -284zM362 127q137 -98 318 -98q148 0 270.5 67.5t194.5 192.5t72 282q0 129 -49 236.5t-136 181.5z" />
<glyph unicode="&#xf9;" horiz-adv-x="1200" d="M20 1094v53h322v-53h-133v-648q0 -208 95.5 -312.5t295.5 -104.5t295.5 104.5t95.5 312.5v648h-133v53h322v-53h-133v-641q0 -478 -449 -478q-444 0 -444 478v641h-134zM401 1540l56 21l202 -304h-61z" />
<glyph unicode="&#xfa;" horiz-adv-x="1200" d="M20 1094v53h322v-53h-133v-648q0 -208 95.5 -312.5t295.5 -104.5t295.5 104.5t95.5 312.5v648h-133v53h322v-53h-133v-641q0 -478 -449 -478q-444 0 -444 478v641h-134zM526 1257l203 304l55 -21l-196 -283h-62z" />
<glyph unicode="&#xfb;" horiz-adv-x="1200" d="M20 1094v53h322v-53h-133v-648q0 -208 95.5 -312.5t295.5 -104.5t295.5 104.5t95.5 312.5v648h-133v53h322v-53h-133v-641q0 -478 -449 -478q-444 0 -444 478v641h-134zM354 1321l248 225l246 -227l-35 -37l-211 197l-213 -195z" />
<glyph unicode="&#xfc;" horiz-adv-x="1200" d="M20 1094v53h322v-53h-133v-648q0 -208 95.5 -312.5t295.5 -104.5t295.5 104.5t95.5 312.5v648h-133v53h322v-53h-133v-641q0 -478 -449 -478q-444 0 -444 478v641h-134zM367 1380q0 25 17 42.5t40 17.5q25 0 42 -17.5t17 -42.5t-17 -42t-42 -17q-23 0 -40 17t-17 42z M721 1380q0 25 17 42.5t42 17.5t42.5 -17.5t17.5 -42.5t-17.5 -42t-42.5 -17t-42 17t-17 42z" />
<glyph unicode="&#xfd;" horiz-adv-x="1148" d="M20 1094v53h308v-53h-129l123 -174q71 -100 133 -185t89 -120t29 -37h2q18 18 254 344l123 172h-131v53h307v-53h-112l-414 -570v-471h133v-53h-321v53h133v471l-414 570h-113zM504 1257l203 304l55 -21l-197 -283h-61z" />
<glyph unicode="&#xfe;" horiz-adv-x="935" d="M86 0v53h133v1041h-133v53h322v-53h-134v-224h185q208 0 311.5 -67t103.5 -217t-103 -216.5t-312 -66.5h-185v-250h134v-53h-322zM274 356h185q188 0 274 51.5t86 178.5t-87.5 179t-272.5 52h-185v-461z" />
<glyph unicode="&#xff;" horiz-adv-x="1148" d="M20 1094v53h308v-53h-129l123 -174q71 -100 133 -185t89 -120t29 -37h2q18 18 254 344l123 172h-131v53h307v-53h-112l-414 -570v-471h133v-53h-321v53h133v471l-414 570h-113zM344 1380q0 25 17 42.5t40 17.5q25 0 42.5 -17.5t17.5 -42.5t-17.5 -42t-42.5 -17 q-23 0 -40 17t-17 42zM698 1380q0 25 17.5 42.5t42.5 17.5t42 -17.5t17 -42.5t-17 -42t-42 -17t-42.5 17t-17.5 42z" />
<glyph unicode="&#x152;" horiz-adv-x="2004" d="M90 717q0 214 93.5 379t263 255.5t389.5 90.5q55 0 133 -8h901v-336h-53v282h-793v-592h688v-53h-688v-682h805v287h53v-340h-903q-57 -8 -145 -8q-219 0 -388 90.5t-262.5 255.5t-93.5 379zM145 719q0 -309 188.5 -491.5t500.5 -182.5q60 0 135 10v1323q-79 11 -135 11 q-313 0 -501 -181t-188 -489z" />
<glyph unicode="&#x153;" horiz-adv-x="1689" d="M90 573q0 259 168.5 419.5t437.5 160.5q66 0 119 -6h741v-275h-55v222h-633v-465h551v-54h-551v-522h643v226h56v-279h-754q-55 -6 -119 -6q-268 0 -436 160t-168 419zM145 575q0 -242 151 -385t400 -143q68 0 117 8v1037q-52 8 -117 8q-249 0 -400 -142t-151 -383z" />
<glyph unicode="&#x178;" horiz-adv-x="1390" d="M20 1380v54h365v-54h-160l252 -360q203 -289 217 -303h2q13 13 217 305l252 358h-159v54h364v-54h-137l-510 -721v-606h164v-53h-383v53h164v606l-510 721h-138zM463 1667q0 25 17 42t40 17q25 0 42.5 -17t17.5 -42t-17.5 -42t-42.5 -17q-23 0 -40 17t-17 42zM817 1667 q0 25 17.5 42t42.5 17t42 -17t17 -42t-17 -42t-42 -17t-42.5 17t-17.5 42z" />
<glyph unicode="&#x2c6;" horiz-adv-x="1024" d="M270 1608l248 225l246 -227l-35 -37l-211 196l-213 -194z" />
<glyph unicode="&#x2dc;" horiz-adv-x="1024" d="M233 1673q49 70 127 70q49 0 122.5 -38t123.5 -38q16 0 30 3t22.5 6t17.5 10t12.5 10.5t10.5 11.5t8 10l22 -45q-46 -61 -125 -61q-51 0 -126 38t-120 38q-66 0 -102 -60z" />
<glyph unicode="&#x2000;" horiz-adv-x="923" />
<glyph unicode="&#x2001;" horiz-adv-x="1847" />
<glyph unicode="&#x2002;" horiz-adv-x="923" />
<glyph unicode="&#x2003;" horiz-adv-x="1847" />
<glyph unicode="&#x2004;" horiz-adv-x="615" />
<glyph unicode="&#x2005;" horiz-adv-x="461" />
<glyph unicode="&#x2006;" horiz-adv-x="307" />
<glyph unicode="&#x2007;" horiz-adv-x="307" />
<glyph unicode="&#x2008;" horiz-adv-x="230" />
<glyph unicode="&#x2009;" horiz-adv-x="369" />
<glyph unicode="&#x200a;" horiz-adv-x="102" />
<glyph unicode="&#x2010;" horiz-adv-x="1142" d="M229 575v54h744v-54h-744z" />
<glyph unicode="&#x2011;" horiz-adv-x="1142" d="M229 575v54h744v-54h-744z" />
<glyph unicode="&#x2012;" horiz-adv-x="1142" d="M229 575v54h744v-54h-744z" />
<glyph unicode="&#x2013;" d="M229 575v54h908v-54h-908z" />
<glyph unicode="&#x2014;" horiz-adv-x="2045" d="M199 575v54h1646v-54h-1646z" />
<glyph unicode="&#x2018;" horiz-adv-x="380" d="M104 1223q0 38 16 83.5t51.5 90.5t82.5 63l29 -39q-48 -19 -82.5 -70.5t-34.5 -90.5q35 9 57.5 -8t22.5 -50q0 -29 -18 -47t-52 -18t-53 22.5t-19 63.5z" />
<glyph unicode="&#x2019;" horiz-adv-x="380" d="M98 1174q48 19 82.5 70.5t34.5 90.5q-35 -9 -57.5 8t-22.5 50q0 29 18 47t52 18t52.5 -22.5t18.5 -63.5q0 -38 -15.5 -83.5t-51 -90.5t-82.5 -63z" />
<glyph unicode="&#x201a;" horiz-adv-x="380" d="M98 -188q48 19 82.5 70.5t34.5 90.5q-35 -9 -57.5 8t-22.5 50q0 29 18 47t52 18t52.5 -22.5t18.5 -63.5q0 -38 -15.5 -83.5t-51 -90.5t-82.5 -63z" />
<glyph unicode="&#x201c;" horiz-adv-x="696" d="M104 1223q0 38 16 83.5t51.5 90.5t82.5 63l29 -39q-48 -19 -82.5 -70.5t-34.5 -90.5q35 9 57.5 -8t22.5 -50q0 -29 -18 -47t-52 -18t-53 22.5t-19 63.5zM420 1223q0 38 15.5 83.5t51 90.5t82.5 63l29 -39q-48 -19 -82.5 -70.5t-34.5 -90.5q35 9 57.5 -8t22.5 -50 q0 -29 -17.5 -47t-51.5 -18t-53 22.5t-19 63.5z" />
<glyph unicode="&#x201d;" horiz-adv-x="696" d="M98 1174q48 19 82.5 70.5t34.5 90.5q-35 -9 -57.5 8t-22.5 50q0 29 18 47t52 18t52.5 -22.5t18.5 -63.5q0 -38 -15.5 -83.5t-51 -90.5t-82.5 -63zM414 1174q48 19 82 70.5t34 90.5q-35 -9 -57 8t-22 50q0 29 17.5 47t51.5 18t53 -22.5t19 -63.5q0 -38 -16 -83.5 t-51.5 -90.5t-82.5 -63z" />
<glyph unicode="&#x201e;" horiz-adv-x="651" d="M98 -188q48 19 82.5 70.5t34.5 90.5q-35 -9 -57.5 8t-22.5 50q0 29 18 47t52 18t52.5 -22.5t18.5 -63.5q0 -38 -15.5 -83.5t-51 -90.5t-82.5 -63zM369 -188q48 19 82 70.5t34 90.5q-35 -9 -57 8t-22 50q0 29 17.5 47t51.5 18t53 -22.5t19 -63.5q0 -38 -16 -83.5 t-51.5 -90.5t-82.5 -63z" />
<glyph unicode="&#x2022;" horiz-adv-x="425" d="M86 584q0 54 36.5 90.5t90.5 36.5t90.5 -36.5t36.5 -90.5t-36.5 -90.5t-90.5 -36.5t-90.5 36.5t-36.5 90.5z" />
<glyph unicode="&#x2026;" horiz-adv-x="1316" d="M121 33q0 24 15 38.5t42 14.5t41 -15t14 -38q0 -25 -14.5 -40.5t-40.5 -15.5q-28 0 -42.5 15.5t-14.5 40.5zM592 33q0 24 15 38.5t42 14.5t41.5 -15t14.5 -38q0 -25 -15 -40.5t-41 -15.5q-28 0 -42.5 15.5t-14.5 40.5zM1083 33q0 24 15.5 38.5t42.5 14.5t41 -15t14 -38 q0 -25 -14.5 -40.5t-40.5 -15.5q-28 0 -43 15.5t-15 40.5z" />
<glyph unicode="&#x202f;" horiz-adv-x="369" />
<glyph unicode="&#x2039;" horiz-adv-x="765" d="M123 567l481 480l39 -37l-446 -441v-4l446 -440l-39 -37z" />
<glyph unicode="&#x203a;" horiz-adv-x="765" d="M123 125l446 440v4l-446 441l39 37l481 -480l-481 -479z" />
<glyph unicode="&#x205f;" horiz-adv-x="461" />
<glyph unicode="&#x20ac;" horiz-adv-x="1200" d="M90 457v53h88l-2 68q0 37 2 55h-88v53h90q22 233 140 357t329 124q83 0 151.5 -19t114 -51t74.5 -66.5t45 -72.5h2v189h51v-406h-53v72q0 30 -11.5 66.5t-40 79t-70.5 76.5t-111 56.5t-152 22.5q-371 0 -413 -428h469v-53h-472l-2 -55q0 -45 2 -68h472v-53h-467 q44 -428 434 -428q139 0 230.5 59.5t144.5 192.5l51 -17q-59 -147 -162.5 -218t-265.5 -71q-219 0 -342 123t-146 359h-92z" />
<glyph unicode="&#x2122;" horiz-adv-x="1579" d="M82 1243v191h563v-191h-51v139h-205v-563h78v-51h-209v51h78v563h-203v-139h-51zM705 768v51h77v563h-77v52h163l181 -359q13 -26 26.5 -53.5t18.5 -37.5t6 -11h2q2 2 51 100l180 361h160v-52h-78v-563h78v-51h-207v51h74v271v52.5t0.5 55.5t0.5 54v50t0.5 40t0.5 28v10 h-2q-1 -1 -10 -21.5t-26.5 -56.5t-33.5 -67l-162 -313h-55l-162 313q-16 30 -34 66.5t-28 57t-11 21.5h-2v-10q0 -11 0.5 -28t0.5 -40v-50t0.5 -54t0.5 -55.5v-52.5v-271h73v-51h-206z" />
<glyph unicode="&#x25fc;" horiz-adv-x="1146" d="M0 0v1147h1147v-1147h-1147z" />
</font>
</defs>
</svg>
